<?xml version="1.0" encoding="utf-8"?>
<!-- Generator: Adobe Illustrator 21.1.0, SVG Export Plug-In . SVG Version: 6.00 Build 0)  -->
<svg version="1.1" id="Layer_1" xmlns="http://www.w3.org/2000/svg" xmlns:xlink="http://www.w3.org/1999/xlink" x="0px" y="0px"
	 width="24px" height="24px" viewBox="0 0 24 24" enable-background="new 0 0 24 24" xml:space="preserve">
<g>
	<rect y="15.4" fill="#FFFFFF" width="24" height="6.6"/>
	<path fill="#CF8B17" d="M0,15.4h24V22H0V15.4z M23,15.8v2.4h-0.5v-2.4h-0.9v1.1H21v-1.1h-0.9v1.1h-0.5v-1.1h-0.9v1.1h-0.5v-1.1
		h-0.9v1.1h-0.5v-1.1h-0.9v2.4h-0.5v-2.4h-1v1.1h-0.5v-1.1H13v1.1h-0.5v-1.1h-0.9v1.1h-0.5v-1.1h-0.9v1.1H9.6v-1.1H8.7v2.4H8.2v-2.4
		H7.3v1.1H6.8v-1.1H5.9v1.1H5.4v-1.1H4.5v1.1H3.9v-1.1H3v1.1H2.5v-1.1H1.6v2.4H1.1v-2.4H0.4v5.9h23.3v-5.9H23z"/>
</g>
</svg>
