<?xml version="1.0" encoding="utf-8"?>
<!-- Generator: Adobe Illustrator 21.1.0, SVG Export Plug-In . SVG Version: 6.00 Build 0)  -->
<svg version="1.1" id="Layer_1" xmlns="http://www.w3.org/2000/svg" xmlns:xlink="http://www.w3.org/1999/xlink" x="0px" y="0px"
	 width="24px" height="24px" viewBox="0 0 24 24" enable-background="new 0 0 24 24" xml:space="preserve">
<g>
	<polygon opacity="0.5" fill="#FFFFFF" enable-background="new    " points="7.7,8.1 5.9,6.2 18.3,6.2 16.5,8.1 	"/>
	<rect x="5.8" y="14.2" opacity="0.5" fill="#FFFFFF" enable-background="new    " width="12.5" height="3.8"/>
	<path fill="#FFFFFF" d="M23.9,12c0,3-2.4,5.6-5.4,5.8c-0.2,0-0.4,0-0.6-0.2L15.6,16c-0.6-0.4-1.5-0.7-2.2-0.7h-2.5
		c-0.8,0-1.6,0.2-2.2,0.7l-2.3,1.6c-0.2,0.1-0.4,0.2-0.6,0.2c-3-0.2-5.4-2.7-5.4-5.8c0-2.8,2-5.2,4.8-5.7l2.3,2.4h9.4l2.3-2.4
		C21.8,6.7,23.9,9.1,23.9,12z M8.7,13l-1.1-1.1c-0.1-0.1-0.1-0.1-0.2-0.1H2.5c-0.2,0-0.3,0.1-0.3,0.3s0.1,0.3,0.3,0.3h4.7l1.1,1.1
		c0.1,0.1,0.1,0.1,0.2,0.1s0.2,0,0.2-0.1C8.8,13.3,8.8,13.1,8.7,13z M22,12c0-0.2-0.1-0.3-0.3-0.3h-4.8c-0.1,0-0.2,0-0.2,0.1
		L15.5,13c-0.1,0.1-0.1,0.3,0,0.4c0.1,0.1,0.1,0.1,0.2,0.1s0.2,0,0.2-0.1l1.1-1.1h4.7C21.9,12.3,22,12.2,22,12z"/>
	<path fill="#CF8B17" d="M18.7,6.6c2.8,0.3,4.9,2.6,4.9,5.4s-2.2,5.2-5.1,5.4h-0.1c-0.1,0-0.2-0.1-0.4-0.1l-2.3-1.6
		C15,15.3,14.1,15,13.2,15h-2.5c-0.9,0-1.7,0.2-2.5,0.7l-2.3,1.6c-0.1,0.1-0.2,0.1-0.4,0.1l0,0c-2.9-0.2-5.1-2.5-5.1-5.4
		c0-2.8,2.1-5.1,4.9-5.4H18.7 M18.7,6H5.4C2.4,6.3,0,8.9,0,12c0,3.2,2.5,5.8,5.6,6h0.1c0.2,0,0.5-0.1,0.7-0.2l2.3-1.6
		c0.6-0.4,1.4-0.7,2.1-0.7h2.5c0.8,0,1.5,0.2,2.1,0.7l2.3,1.6c0.2,0.1,0.4,0.2,0.7,0.2h0.1c3.1-0.2,5.6-2.8,5.6-6
		C24.1,8.9,21.8,6.3,18.7,6L18.7,6z"/>
</g>
<circle fill="#CF8B17" cx="12" cy="7.3" r="0.5"/>
</svg>
