<?xml version="1.0" encoding="utf-8"?>
<!-- Generator: Adobe Illustrator 21.1.0, SVG Export Plug-In . SVG Version: 6.00 Build 0)  -->
<svg version="1.1" id="Layer_1" xmlns="http://www.w3.org/2000/svg" xmlns:xlink="http://www.w3.org/1999/xlink" x="0px" y="0px"
	 width="24px" height="24px" viewBox="0 0 24 24" enable-background="new 0 0 24 24" xml:space="preserve">
<g>
	<path fill="#FFFFFF" d="M20.3,23H3.8C2.2,23,1,21.8,1,20.2V3.8C1,2.2,2.2,1,3.8,1h16.5C21.8,1,23,2.2,23,3.8v16.5
		C23,21.8,21.8,23,20.3,23z M11.9,3.1c-3.4,0-6.2,2.8-6.2,6.2c0,1.7,0.7,3.4,2,4.5c-0.4,0.7-0.6,1.5-0.6,2.3c0,2.7,2.1,4.8,4.8,4.8
		s4.8-2.1,4.8-4.8c0-0.8-0.2-1.6-0.6-2.3c1.3-1.2,2-2.8,2-4.6C18.1,5.9,15.4,3.1,11.9,3.1L11.9,3.1z"/>
	
		<path fill="none" stroke="#CF8B17" stroke-width="0.6875" stroke-linecap="round" stroke-linejoin="round" stroke-miterlimit="10" d="
		M20.3,23H3.8C2.2,23,1,21.8,1,20.2V3.8C1,2.2,2.2,1,3.8,1h16.5C21.8,1,23,2.2,23,3.8v16.5C23,21.8,21.8,23,20.3,23z"/>
	<path fill="#CF8B17" d="M11.9,3.8c3,0,5.5,2.5,5.5,5.5c0,1.8-0.9,3.4-2.2,4.4c0.5,0.7,0.8,1.5,0.8,2.5c0,2.3-1.9,4.1-4.1,4.1
		s-4.1-1.9-4.1-4.1c0-1,0.3-1.8,0.8-2.5c-1.3-1-2.2-2.6-2.2-4.4C6.5,6.2,8.9,3.8,11.9,3.8 M11.9,3.1c-3.4,0-6.2,2.8-6.2,6.2
		c0,1.7,0.7,3.4,2,4.5c-0.4,0.7-0.6,1.5-0.6,2.3c0,2.7,2.1,4.8,4.8,4.8s4.8-2.1,4.8-4.8c0-0.8-0.2-1.6-0.6-2.3c1.3-1.2,2-2.8,2-4.6
		C18.1,5.9,15.4,3.1,11.9,3.1L11.9,3.1z"/>
	<path opacity="0.1" fill="#231F20" d="M11.9,4.5c2.7,0,4.8,2.1,4.8,4.8c0,1.5-0.7,3-1.9,3.9c-0.3,0.2-0.3,0.7-0.1,1
		c0.5,0.6,0.7,1.3,0.7,2.1c0,1.9-1.5,3.4-3.4,3.4s-3.4-1.5-3.4-3.4c0-0.8,0.2-1.4,0.7-2.1c0.2-0.3,0.1-0.8-0.1-1
		c-1.2-0.9-1.9-2.3-1.9-3.9C7.2,6.6,9.3,4.5,11.9,4.5 M11.9,3.8c-3,0-5.5,2.5-5.5,5.5c0,1.8,0.9,3.4,2.2,4.4
		c-0.6,0.7-0.8,1.5-0.8,2.5c0,2.3,1.9,4.1,4.1,4.1s4.1-1.9,4.1-4.1c0-1-0.3-1.8-0.8-2.5c1.4-1,2.2-2.6,2.2-4.5
		C17.4,6.2,15,3.8,11.9,3.8L11.9,3.8z"/>
	<path fill="#FFFFFF" d="M9.2,10.4C8.8,9.9,8.7,9.2,8.8,8.6C8.8,8,9.2,7.4,9.6,6.9c0.5-0.5,1.1-0.8,1.7-0.8c0.6-0.1,1.3,0.1,1.8,0.4
		c0.1,0.1,0.2,0.3,0.1,0.5c-0.1,0.1-0.2,0.1-0.3,0.1l0,0c-1-0.1-1.7,0.2-2.3,0.8C10,8.5,9.7,9.3,9.7,10.2l0,0c0,0.2-0.1,0.3-0.3,0.3
		C9.3,10.6,9.3,10.5,9.2,10.4z"/>
	<path fill="#FFFFFF" d="M14.8,10.1c0.1,0.3,0.1,0.6,0.1,0.9c-0.1,0.3-0.2,0.5-0.4,0.8c-0.2,0.2-0.5,0.3-0.8,0.4s-0.6,0.1-0.9-0.1
		c-0.1-0.1-0.1-0.1-0.1-0.2c0-0.1,0.1-0.1,0.1-0.1l0,0c0.4-0.1,0.8-0.2,1-0.5c0.3-0.3,0.5-0.6,0.5-1l0,0c0-0.1,0.1-0.1,0.2-0.1
		C14.8,10.1,14.8,10.1,14.8,10.1z"/>
	<path fill="#FFFFFF" d="M9.9,17.2c-0.3-0.3-0.3-0.8-0.3-1.2c0.1-0.5,0.3-0.9,0.6-1.2s0.8-0.5,1.2-0.6c0.5-0.1,0.9,0.1,1.2,0.3
		c0.1,0.1,0.1,0.3,0.1,0.3c-0.1,0.1-0.1,0.1-0.2,0.1l0,0c-0.7,0-1.2,0.2-1.6,0.5c-0.4,0.4-0.6,0.9-0.5,1.6l0,0
		c0,0.1-0.1,0.3-0.3,0.3C10.1,17.4,10,17.3,9.9,17.2z"/>
	<path fill="#FFFFFF" d="M14,17c0.3,0.4,0.1,0.9-0.2,1.2c-0.3,0.3-0.8,0.5-1.2,0.2c-0.1-0.1-0.1-0.1-0.1-0.3c0-0.1,0.1-0.1,0.1-0.1
		h0.1c0.3-0.1,0.5-0.2,0.6-0.4c0.2-0.2,0.3-0.3,0.4-0.6V17c0-0.1,0.1-0.1,0.2-0.1C13.9,17,14,17,14,17z"/>
</g>
</svg>
