<?xml version="1.0" encoding="utf-8"?>
<!-- Generator: Adobe Illustrator 22.0.1, SVG Export Plug-In . SVG Version: 6.00 Build 0)  -->
<svg version="1.1" id="Layer_1" xmlns="http://www.w3.org/2000/svg" xmlns:xlink="http://www.w3.org/1999/xlink" x="0px" y="0px"
	 width="146px" height="36px" viewBox="0 0 146 36" enable-background="new 0 0 146 36" xml:space="preserve">
<g>
	<path fill="#32AFF7" d="M2.8,26.9c0-3.7,2.7-6.5,7.3-6.5h6.4c0.2,0,0.4-0.2,0.4-0.4c0,0,0,0,0-0.1v-1.7c0-2.9-1.8-4.9-5.2-4.9
		c-2.9,0-5.4,1.6-5.4,3.9c0,0.7-0.5,0.8-0.9,0.8H4.7c-0.7,0-0.9-0.4-0.9-0.9c0-4.1,4-6.2,8-6.2c4.6,0,7.8,2.3,7.8,7.4v14.4
		c0,0.5-0.4,0.9-0.9,0.9h-0.4c-0.2,0-0.5-0.1-0.6-0.3c-0.2-0.4-0.3-0.9-0.9-0.9c-0.8,0-2.6,1.7-5.9,1.7C5.4,34,2.8,30.7,2.8,26.9z
		 M17.1,26v-2.7c0-0.2-0.2-0.4-0.4-0.4c0,0,0,0-0.1,0h-6.5c-2.6,0-4.6,1.4-4.6,4c0,3.2,2.4,4.7,5.1,4.7C14.8,31.5,17.1,29.6,17.1,26
		z"/>
	<path fill="#32AFF7" d="M28.6,20.9v11.7c0,0.5-0.4,0.9-0.9,0.9h-0.8c-0.5,0-0.9-0.4-0.9-0.9V12.2c0-0.5,0.4-0.9,0.9-0.9h0.6
		c0.3,0,0.5,0.1,0.6,0.3c0.3,0.6,0.4,1.5,1.2,1.5c1.2,0,1.8-2.2,6.5-2.2c4.1,0,7.5,3.3,7.5,7.5c0,0,0,0.1,0,0.1
		c0,0.5-0.4,0.9-0.9,0.9h-0.9c-0.5,0-0.9-0.4-0.9-0.9c0-3-2.3-4.9-5.5-4.9C31.4,13.5,28.6,15.7,28.6,20.9z"/>
	<path fill="#32AFF7" d="M58.3,31.3c2.5,0,4.1-2,4.1-4.4c0-0.5,0.4-0.9,0.9-0.9h0.9c0.5,0,0.9,0.4,0.9,0.9c0,3.9-2.9,7.1-6.8,7.1
		s-6.9-3.2-6.9-7.1V14.6c0-0.2-0.2-0.4-0.4-0.4c0,0,0,0,0,0H46c-0.5,0-0.9-0.4-0.9-0.9v-0.8c0-0.5,0.4-0.9,0.9-0.9H51
		c0.2,0,0.4-0.2,0.4-0.4c0,0,0,0,0,0V4.2c0-0.5,0.4-0.9,0.9-0.9h0.9c0.5,0,0.9,0.4,0.9,0.9v6.9c0,0.2,0.2,0.4,0.4,0.4c0,0,0,0,0,0
		h7.8c0.5,0,0.9,0.4,0.9,0.9v0.8c0,0.5-0.4,0.9-0.9,0.9h-7.8c-0.2,0-0.4,0.2-0.4,0.4c0,0,0,0,0,0v11.8C54.1,29.6,56,31.3,58.3,31.3z
		"/>
	<path fill="#32AFF7" d="M72.5,32.7v-3.1c0-0.5,0.4-0.9,0.9-0.9h3.1c0.5,0,0.9,0.4,0.9,0.9v3.1c0,0.5-0.4,0.9-0.9,0.9h-3.1
		C72.9,33.6,72.5,33.2,72.5,32.7z"/>
	<path fill="#32AFF7" d="M72.5,22.8v-3.1c0-0.5,0.4-0.9,0.9-0.9h3.1c0.5,0,0.9,0.4,0.9,0.9v3.1c0,0.5-0.4,0.9-0.9,0.9h-3.1
		C72.9,23.7,72.5,23.3,72.5,22.8z"/>
	<path fill="#32AFF7" d="M89.4,32.3c-0.4,0-0.8,0.3-1.1,0.8c-0.1,0.3-0.4,0.4-0.7,0.4H87c-0.5,0-0.9-0.4-0.9-0.9V2.9
		C86.1,2.4,86.5,2,87,2h0.9c0.5,0,0.9,0.4,0.9,0.9v8c0,0.9,0.3,1.3,0.9,1.3c0.9,0,1.5-1.3,4.9-1.3c3.2,0,5.7,1.3,7,3.6
		c1.1,2,1.5,4.1,1.5,7.9s-0.4,5.9-1.5,7.9c-1.3,2.3-3.8,3.6-7,3.6C91,34,90.5,32.3,89.4,32.3z M99.6,28c0.5-1.2,0.7-2.7,0.7-5.5
		c0-2.8-0.1-4.1-0.7-5.5c-0.9-2.4-2.5-3.4-5.1-3.4s-4.2,1-5.1,3.4c-0.5,1.4-0.7,2.8-0.7,5.5c0,2.9,0.1,4.3,0.7,5.5
		c1,2.4,2.5,3.4,5.1,3.4C97.1,31.4,98.7,30.4,99.6,28L99.6,28z"/>
	<path fill="#32AFF7" d="M107.2,13.1v-0.9c0-0.5,0.4-0.9,0.9-0.9h7.8c0.5,0,0.9,0.4,0.9,0.9v18.2c0,0.2,0.2,0.4,0.4,0.4c0,0,0,0,0,0
		h5.8c0.5,0,0.9,0.4,0.9,0.9v0.9c0,0.5-0.4,0.9-0.9,0.9h-15.4c-0.5,0-0.9-0.4-0.9-0.9v-0.9c0-0.5,0.4-0.9,0.9-0.9h6
		c0.2,0,0.4-0.2,0.4-0.4c0,0,0,0,0-0.1v-16c0-0.2-0.2-0.4-0.4-0.4c0,0,0,0-0.1,0h-5.6C107.6,14,107.2,13.6,107.2,13.1z"/>
	<path fill="#32AFF7" d="M136.4,31.3c2.5,0,4.1-2,4.1-4.4c0-0.5,0.4-0.9,0.9-0.9h0.9c0.5,0,0.9,0.4,0.9,0.9c0,3.9-2.9,7.1-6.8,7.1
		c-3.9,0-6.9-3.2-6.9-7.1V14.6c0-0.2-0.2-0.4-0.4-0.4c0,0,0,0,0,0h-4.9c-0.5,0-0.9-0.4-0.9-0.9v-0.8c0-0.5,0.4-0.9,0.9-0.9h4.9
		c0.2,0,0.4-0.2,0.4-0.4c0,0,0,0,0,0V4.2c0-0.5,0.4-0.9,0.9-0.9h0.9c0.5,0,0.9,0.4,0.9,0.9v6.9c0,0.2,0.2,0.4,0.4,0.4c0,0,0,0,0,0
		h7.8c0.5,0,0.9,0.4,0.9,0.9v0.8c0,0.5-0.4,0.9-0.9,0.9h-7.8c-0.2,0-0.4,0.2-0.4,0.4c0,0,0,0,0,0v11.8
		C132.2,29.6,134.1,31.3,136.4,31.3z"/>
	<circle fill="#32AFF7" cx="114.5" cy="4.7" r="2.2"/>
</g>
</svg>
