<?xml version="1.0" encoding="utf-8"?>
<!-- Generator: Adobe Illustrator 22.0.1, SVG Export Plug-In . SVG Version: 6.00 Build 0)  -->
<svg version="1.1" id="KCJ_1_Line" xmlns="http://www.w3.org/2000/svg" xmlns:xlink="http://www.w3.org/1999/xlink" x="0px" y="0px"
	 width="630px" height="48px" viewBox="0 0 630 48" enable-background="new 0 0 630 48" xml:space="preserve">
<title>KCJ_Logo_1Line</title>
<g>
	<g>
		<path fill="#33AFF7" d="M72.1,32.6C72.1,32.6,72.1,32.5,72.1,32.6C72,32.6,72,32.6,72.1,32.6L72,35.1c0,0.2-0.1,0.3-0.3,0.3h-0.8
			c-0.1,0-0.2,0-0.2-0.1c-0.1-0.1-0.1-0.1-0.1-0.2V24.7c0-0.2,0.1-0.3,0.3-0.3h0.8c0.2,0,0.3,0.1,0.3,0.3v5.4c0,0.1,0,0.1,0.1,0.1
			l2.5-2.3c0.1,0,0.1-0.1,0.2-0.1s0.2-0.1,0.3-0.1h0.8c0.1,0,0.3,0.1,0.3,0.2s0,0.2-0.1,0.3l-3.2,3c-0.1,0.1-0.1,0.3,0,0.4l3.5,3.4
			c0.1,0.1,0.1,0.2,0.1,0.3c-0.1,0.1-0.2,0.2-0.3,0.2h-1c-0.1,0-0.2,0-0.3-0.1c-0.1,0-0.1-0.1-0.2-0.1L72.1,32.6z"/>
		<path fill="#33AFF7" d="M79.2,28.9c-0.2,0-0.3-0.1-0.3-0.3v-0.7c0-0.2,0.1-0.3,0.3-0.3h3.2c0.2,0,0.3,0.1,0.3,0.3v6
			c0,0.1,0,0.1,0.1,0.2l0,0h2c0.1,0,0.2,0,0.2,0.1c0.1,0.1,0.1,0.1,0.1,0.2v0.7c0,0.1,0,0.2-0.1,0.2c-0.1,0.1-0.1,0.1-0.2,0.1H79
			c-0.1,0-0.2,0-0.2-0.1c-0.1-0.1-0.1-0.1-0.1-0.2v-0.7c0-0.2,0.1-0.3,0.3-0.3h2c0.1,0,0.1,0,0.2-0.1l0,0v-4.8c0-0.1,0-0.1-0.1-0.2
			l0,0h-1.9V28.9z M82.7,25.7c0,0.1-0.1,0.2-0.2,0.2c0,0,0,0-0.1,0h-1c-0.1,0-0.2-0.1-0.2-0.2c0,0,0,0,0-0.1v-1.1
			c0-0.1,0-0.1,0.1-0.2c0-0.1,0.1-0.1,0.2-0.1h0.9c0.1,0,0.1,0,0.2,0.1c0,0,0.1,0.1,0.1,0.2L82.7,25.7z"/>
		<path fill="#33AFF7" d="M89.8,35.5c-0.4,0-0.8-0.1-1.1-0.2c-0.3-0.2-0.6-0.4-0.9-0.6c-0.3-0.3-0.5-0.6-0.6-0.9
			c-0.2-0.4-0.3-0.8-0.3-1.2c0-0.3,0-0.7,0-1.1s0-0.8,0-1.1c0-0.4,0.1-0.8,0.3-1.2c0.2-0.3,0.4-0.7,0.6-0.9c0.3-0.3,0.6-0.5,0.9-0.6
			c0.4-0.2,0.7-0.2,1.1-0.2c0.2,0,0.3,0,0.5,0.1c0.1,0,0.3,0.1,0.4,0.1s0.2,0.1,0.3,0.1c0.1,0,0.2,0.1,0.3,0.1c0.1,0,0.2,0,0.3-0.1
			c0.1-0.1,0.1-0.2,0.1-0.3v-2.8c0-0.2,0.1-0.3,0.3-0.3h0.8c0.2,0,0.3,0.1,0.3,0.3v10.4c0,0.2-0.1,0.3-0.3,0.3h-0.5
			c-0.1,0-0.2,0-0.2-0.1c-0.1-0.1-0.1-0.1-0.2-0.2C91.8,35,91.8,35,91.7,35s-0.2,0-0.3,0.1l-0.3,0.2c-0.1,0.1-0.3,0.1-0.4,0.2
			C90.3,35.5,90.1,35.6,89.8,35.5z M90,34.1c0.5,0,1-0.2,1.3-0.5s0.5-0.7,0.5-1.1c0-0.3,0-0.7,0-1.1s0-0.8,0-1.1
			c0-0.4-0.2-0.8-0.5-1.1c-0.3-0.3-0.7-0.5-1.3-0.5c-0.5,0-1,0.2-1.3,0.5s-0.5,0.7-0.5,1.1c0,0.3,0,0.7,0,1.1s0,0.8,0,1.1
			c0,0.4,0.2,0.8,0.5,1.1C89,34,89.4,34.1,90,34.1L90,34.1z"/>
		<path fill="#33AFF7" d="M95.6,32.9c0-0.1,0-0.2,0.1-0.2c0.1-0.1,0.1-0.1,0.2-0.1h0.8c0.1,0,0.2,0,0.2,0.1c0.1,0.1,0.1,0.1,0.1,0.2
			c0,0.2,0,0.5,0.2,0.7c0.1,0.2,0.2,0.3,0.4,0.4c0.2,0.1,0.4,0.2,0.5,0.2c0.2,0,0.4,0.1,0.6,0.1s0.4,0,0.6,0s0.4-0.1,0.5-0.2
			c0.3-0.2,0.5-0.5,0.5-0.9c0-0.2,0-0.3-0.1-0.4c-0.1-0.1-0.2-0.2-0.4-0.3c-0.2-0.1-0.4-0.2-0.5-0.2c-0.2-0.1-0.4-0.1-0.6-0.2
			c-0.3-0.1-0.6-0.1-1-0.2c-0.3-0.1-0.6-0.2-0.9-0.4c-0.3-0.2-0.5-0.4-0.7-0.6c-0.2-0.3-0.3-0.7-0.3-1s0.1-0.7,0.2-0.9
			c0.2-0.3,0.4-0.5,0.6-0.7c0.3-0.2,0.6-0.4,0.9-0.5s0.7-0.2,1-0.2s0.7,0.1,1,0.2s0.6,0.3,0.9,0.5s0.5,0.4,0.6,0.7
			c0.2,0.3,0.2,0.6,0.2,1c0,0.2-0.1,0.3-0.3,0.3h-0.5c-0.2,0-0.3-0.1-0.3-0.3c0-0.3-0.1-0.5-0.3-0.7c-0.2-0.2-0.6-0.3-1.1-0.3
			s-0.8,0.1-1,0.3c-0.2,0.2-0.3,0.4-0.3,0.6c0,0.3,0.2,0.5,0.4,0.6c0.3,0.1,0.6,0.2,1,0.3c0.3,0.1,0.7,0.1,1,0.2s0.7,0.2,1,0.4
			c0.3,0.2,0.6,0.4,0.7,0.7c0.2,0.4,0.3,0.8,0.3,1.2c0,0.7-0.3,1.4-0.9,1.9c-0.3,0.2-0.6,0.4-1,0.5s-0.8,0.2-1.2,0.2
			c-0.4,0-0.8,0-1.1-0.1c-0.4-0.1-0.7-0.3-1-0.5s-0.5-0.5-0.7-0.8C95.7,33.7,95.6,33.3,95.6,32.9z"/>
		<path fill="#FF8939" d="M107.3,34.1c0.4,0,0.8-0.1,1.2-0.4c0.3-0.2,0.4-0.6,0.4-0.9c0-0.1,0-0.2,0.1-0.2s0.1-0.1,0.2-0.1h0.8
			c0.2,0,0.3,0.1,0.3,0.3c0,0.7-0.3,1.4-0.8,1.9c-0.3,0.2-0.6,0.4-0.9,0.6c-0.4,0.1-0.8,0.2-1.2,0.2c-0.4,0-0.9-0.1-1.3-0.2
			c-0.4-0.1-0.7-0.4-1-0.6c-0.3-0.3-0.5-0.6-0.6-0.9c-0.1-0.4-0.2-0.8-0.3-1.2c0-0.3,0-0.7,0-1.1s0-0.8,0-1.1c0-0.4,0.1-0.8,0.3-1.2
			c0.1-0.4,0.4-0.7,0.6-0.9c0.3-0.3,0.6-0.5,1-0.6c0.4-0.2,0.8-0.2,1.3-0.2c0.4,0,0.8,0.1,1.2,0.2c0.3,0.1,0.7,0.3,0.9,0.6
			c0.5,0.5,0.9,1.2,0.8,1.9c0,0.1,0,0.2-0.1,0.2c0,0.1-0.1,0.1-0.2,0.1h-0.8c-0.1,0-0.1,0-0.2-0.1c-0.1,0-0.1-0.1-0.1-0.2
			c0-0.4-0.2-0.7-0.4-0.9c-0.3-0.3-0.7-0.4-1.2-0.4s-0.9,0.2-1.2,0.5c-0.3,0.3-0.4,0.7-0.5,1.1c0,0.3,0,0.7,0,1.1s0,0.8,0,1.1
			c0,0.4,0.2,0.8,0.5,1.1C106.4,34,106.8,34.1,107.3,34.1z"/>
		<path fill="#FF8939" d="M115.8,27.5c0.4,0,0.9,0.1,1.3,0.2s0.7,0.4,1,0.6c0.3,0.3,0.5,0.6,0.7,0.9c0.2,0.4,0.3,0.8,0.3,1.2
			c0,0.3,0,0.7,0,1.1s0,0.8,0,1.1c0,0.4-0.1,0.8-0.3,1.2c-0.2,0.4-0.4,0.7-0.7,0.9c-0.3,0.3-0.6,0.5-1,0.6c-0.8,0.3-1.7,0.3-2.5,0
			c-0.4-0.1-0.7-0.4-1-0.6c-0.3-0.3-0.5-0.6-0.7-0.9c-0.2-0.4-0.3-0.8-0.3-1.2c0-0.3,0-0.7,0-1.1s0-0.8,0-1.1c0-0.4,0.1-0.8,0.3-1.2
			c0.2-0.4,0.4-0.7,0.7-0.9c0.3-0.3,0.6-0.5,1-0.6C115,27.5,115.4,27.4,115.8,27.5z M115.8,34.2c0.5,0,1-0.2,1.3-0.5
			s0.5-0.7,0.5-1.1c0-0.3,0-0.7,0-1.1s0-0.8,0-1.1c0-0.4-0.2-0.8-0.5-1.1c-0.3-0.3-0.7-0.5-1.3-0.5c-0.5,0-1,0.2-1.3,0.5
			S114,30,114,30.4c0,0.3,0,0.7,0,1.1s0,0.8,0,1.1c0,0.4,0.2,0.8,0.5,1.1C114.9,34,115.3,34.1,115.8,34.2L115.8,34.2z"/>
		<path fill="#FF8939" d="M124.1,35.5c-0.4,0-0.8-0.1-1.1-0.2c-0.3-0.2-0.6-0.4-0.9-0.6c-0.3-0.3-0.5-0.6-0.6-0.9
			c-0.2-0.4-0.3-0.8-0.3-1.2c0-0.3,0-0.7,0-1.1s0-0.8,0-1.1c0-0.4,0.1-0.8,0.3-1.2c0.2-0.3,0.4-0.7,0.6-0.9c0.3-0.3,0.6-0.5,0.9-0.6
			c0.4-0.2,0.7-0.2,1.1-0.2c0.2,0,0.3,0,0.5,0.1c0.1,0,0.3,0.1,0.4,0.1s0.2,0.1,0.3,0.1c0.1,0,0.2,0.1,0.3,0.1c0.1,0,0.2,0,0.3-0.1
			c0.1-0.1,0.1-0.2,0.1-0.3v-2.8c0-0.2,0.1-0.3,0.3-0.3h0.8c0.2,0,0.3,0.1,0.3,0.3v10.4c0,0.2-0.1,0.3-0.3,0.3h-0.7
			c-0.1,0-0.2,0-0.2-0.1c-0.1-0.1-0.1-0.1-0.2-0.2c-0.1-0.1-0.1-0.1-0.2-0.1s-0.2,0-0.3,0.1l-0.3,0.2c-0.1,0.1-0.3,0.1-0.4,0.2
			C124.5,35.5,124.3,35.6,124.1,35.5z M124.2,34.1c0.5,0,1-0.2,1.3-0.5s0.5-0.7,0.5-1.1c0-0.3,0-0.7,0-1.1s0-0.8,0-1.1
			c0-0.4-0.2-0.8-0.5-1.1c-0.3-0.3-0.7-0.5-1.3-0.5c-0.5,0-1,0.2-1.3,0.5s-0.5,0.7-0.5,1.1c0,0.3,0,0.7,0,1.1s0,0.8,0,1.1
			c0,0.4,0.2,0.8,0.5,1.1C123.3,34,123.7,34.1,124.2,34.1L124.2,34.1z"/>
		<path fill="#FF8939" d="M131.2,32.1c0,0.7,0.2,1.2,0.5,1.6c0.4,0.3,0.8,0.5,1.3,0.5c0.4,0,0.7-0.1,1-0.3s0.5-0.4,0.6-0.7
			c0-0.1,0.1-0.2,0.1-0.2c0.1,0,0.1-0.1,0.2-0.1h0.8c0.1,0,0.2,0,0.2,0.1c0.1,0.1,0.1,0.2,0.1,0.2c0,0.3-0.2,0.6-0.3,0.9
			c-0.2,0.3-0.4,0.5-0.6,0.7c-0.3,0.2-0.6,0.4-0.9,0.5c-0.4,0.1-0.7,0.2-1.1,0.2c-0.4,0-0.9-0.1-1.3-0.2c-0.4-0.1-0.7-0.4-1-0.6
			c-0.3-0.3-0.5-0.6-0.7-0.9c-0.2-0.4-0.3-0.8-0.3-1.2c0-0.3,0-0.7,0-1.1s0-0.8,0-1.1c0-0.4,0.1-0.8,0.3-1.2
			c0.2-0.4,0.4-0.7,0.7-0.9c0.3-0.3,0.6-0.5,1-0.6c0.4-0.2,0.8-0.2,1.3-0.2c0.9,0,1.7,0.3,2.3,0.8c0.6,0.6,0.8,1.3,0.8,2.3v1.1
			c0,0.2-0.1,0.3-0.3,0.3h-4.5C131.3,32,131.2,32,131.2,32.1L131.2,32.1z M131.2,30.6c0,0.1,0,0.1,0.1,0.2l0,0h3.2
			c0.1,0,0.1,0,0.2-0.1l0,0c0-0.5-0.2-1-0.5-1.3s-0.8-0.5-1.2-0.4c-0.5,0-1,0.2-1.3,0.5C131.4,29.7,131.2,30.1,131.2,30.6z"/>
		<path fill="#33AFF7" d="M143.7,36.1c0,0.3-0.1,0.7-0.2,1c-0.3,0.6-0.7,1.1-1.3,1.4c-0.3,0.1-0.6,0.2-1,0.2c-0.3,0-0.7-0.1-1-0.2
			c-0.6-0.3-1.1-0.7-1.3-1.3c-0.1-0.3-0.2-0.6-0.2-1c0-0.2,0.1-0.3,0.3-0.3h0.8c0.2,0,0.3,0.1,0.3,0.3c0,0.3,0.1,0.5,0.3,0.8
			c0.2,0.2,0.5,0.4,0.8,0.3c0.4,0,0.6-0.1,0.8-0.4c0.2-0.2,0.2-0.5,0.2-0.8v-7c0-0.1,0-0.1-0.1-0.2l0,0h-2.3c-0.2,0-0.3-0.1-0.3-0.3
			v-0.7c0-0.2,0.1-0.3,0.3-0.3h3.5c0.1,0,0.2,0,0.2,0.1c0.1,0.1,0.1,0.1,0.1,0.2L143.7,36.1z M143.7,25.7c0,0.1-0.1,0.2-0.2,0.2
			c0,0,0,0-0.1,0h-1c-0.1,0-0.2-0.1-0.2-0.2c0,0,0,0,0-0.1v-1.1c0-0.1,0-0.1,0.1-0.2c0-0.1,0.1-0.1,0.2-0.1h1.1c0.1,0,0.1,0,0.2,0.1
			c0,0,0.1,0.1,0.1,0.2L143.7,25.7z"/>
		<path fill="#33AFF7" d="M148.3,32.1c0,0.7,0.2,1.2,0.5,1.6c0.4,0.3,0.8,0.5,1.3,0.5c0.4,0,0.7-0.1,1-0.3s0.5-0.4,0.6-0.7
			c0-0.1,0.1-0.2,0.1-0.2c0.1,0,0.1-0.1,0.2-0.1h0.8c0.1,0,0.2,0,0.2,0.1c0.1,0.1,0.1,0.2,0.1,0.2c0,0.3-0.2,0.6-0.3,0.9
			c-0.2,0.3-0.4,0.5-0.6,0.7c-0.3,0.2-0.6,0.4-0.9,0.5c-0.4,0.1-0.7,0.2-1.1,0.2c-0.4,0-0.9-0.1-1.3-0.2c-0.4-0.1-0.7-0.4-1-0.6
			c-0.3-0.3-0.5-0.6-0.7-0.9c-0.2-0.4-0.3-0.8-0.3-1.2c0-0.3,0-0.7,0-1.1s0-0.8,0-1.1c0-0.4,0.1-0.8,0.3-1.2
			c0.2-0.4,0.4-0.7,0.7-0.9c0.3-0.3,0.6-0.5,1-0.6c0.4-0.2,0.8-0.2,1.3-0.2c0.9,0,1.7,0.3,2.3,0.8c0.6,0.6,0.8,1.3,0.8,2.3v1.1
			c0,0.2-0.1,0.3-0.3,0.3h-4.5C148.4,32,148.3,32,148.3,32.1L148.3,32.1z M148.4,30.6c0,0.1,0,0.1,0.1,0.2l0,0h3.2
			c0.1,0,0.1,0,0.2-0.1c0,0,0,0,0-0.1c0-0.5-0.2-1-0.5-1.3s-0.8-0.5-1.2-0.4c-0.5,0-1,0.2-1.3,0.5C148.5,29.7,148.4,30.1,148.4,30.6
			z"/>
		<path fill="#33AFF7" d="M160.1,35c-0.1,0-0.2,0-0.3,0.1s-0.2,0.1-0.3,0.2c-0.1,0.1-0.3,0.1-0.4,0.2c-0.2,0.1-0.5,0.1-0.7,0.1
			c-0.4,0-0.8-0.1-1.2-0.2c-0.4-0.1-0.7-0.3-0.9-0.6c-0.3-0.3-0.5-0.6-0.6-0.9c-0.1-0.4-0.2-0.8-0.2-1.2V28c0-0.2,0.1-0.3,0.3-0.3
			h0.8c0.2,0,0.3,0.1,0.3,0.3v4.7c0,0.4,0.1,0.8,0.5,1.1c0.3,0.3,0.7,0.4,1.3,0.4c0.4,0,0.9-0.1,1.2-0.4c0.3-0.3,0.5-0.7,0.5-1.1V28
			c0-0.2,0.1-0.3,0.3-0.3h0.8c0.2,0,0.3,0.1,0.3,0.3v7.2c0,0.1,0,0.2-0.1,0.2c-0.1,0.1-0.1,0.1-0.2,0.1h-0.7c-0.1,0-0.2,0-0.2-0.1
			c-0.1-0.1-0.1-0.1-0.2-0.2C160.3,35.1,160.2,35,160.1,35z"/>
		<path fill="#33AFF7" d="M165.8,28c0.1,0,0.2,0,0.3-0.1s0.2-0.1,0.3-0.2s0.3-0.1,0.4-0.2c0.2-0.1,0.4-0.1,0.7-0.1
			c0.4,0,0.8,0.1,1.2,0.2s0.7,0.3,0.9,0.6c0.6,0.6,0.9,1.3,0.9,2.1V35c0,0.1,0,0.2-0.1,0.2c-0.1,0.1-0.1,0.1-0.2,0.1h-0.8
			c-0.2,0-0.3-0.1-0.3-0.3v-4.7c0-0.4-0.2-0.8-0.5-1.1c-0.3-0.3-0.8-0.5-1.2-0.4c-0.4,0-0.9,0.1-1.2,0.4s-0.5,0.7-0.5,1.1V35
			c0,0.2-0.1,0.3-0.3,0.3h-0.8c-0.2,0-0.3-0.1-0.3-0.3v-7.2c0-0.1,0-0.2,0.1-0.2c0.1-0.1,0.1-0.1,0.2-0.1h0.7c0.1,0,0.2,0,0.2,0.1
			c0.1,0.1,0.1,0.1,0.2,0.2C165.6,27.9,165.7,28,165.8,28z"/>
		<path fill="#33AFF7" d="M174,32.1c0,0.7,0.2,1.2,0.5,1.6c0.4,0.3,0.8,0.5,1.3,0.5c0.4,0,0.7-0.1,1-0.3s0.5-0.4,0.6-0.7
			c0-0.1,0.1-0.2,0.1-0.2c0.1,0,0.1-0.1,0.2-0.1h0.8c0.1,0,0.2,0,0.2,0.1c0.1,0.1,0.1,0.2,0.1,0.2c0,0.3-0.2,0.6-0.3,0.9
			c-0.2,0.3-0.4,0.5-0.6,0.7c-0.3,0.2-0.6,0.4-0.9,0.5c-0.4,0.1-0.7,0.2-1.1,0.2c-0.4,0-0.9-0.1-1.3-0.2c-0.4-0.1-0.7-0.4-1-0.6
			c-0.3-0.3-0.5-0.6-0.7-0.9c-0.2-0.4-0.3-0.8-0.3-1.2c0-0.3,0-0.7,0-1.1s0-0.8,0-1.1c0-0.4,0.1-0.8,0.3-1.2
			c0.2-0.4,0.4-0.7,0.7-0.9c0.3-0.3,0.6-0.5,1-0.6c0.4-0.2,0.8-0.2,1.3-0.2c0.9,0,1.7,0.3,2.3,0.8c0.6,0.6,0.8,1.3,0.8,2.3v1.1
			c0,0.2-0.1,0.3-0.3,0.3h-4.5C174.1,32,174,32,174,32.1L174,32.1z M174,30.6c0,0.1,0,0.1,0.1,0.2l0,0h3.2c0.1,0,0.1,0,0.2-0.1
			c0,0,0,0,0-0.1c0-0.5-0.2-1-0.5-1.3s-0.8-0.5-1.2-0.4c-0.5,0-1,0.2-1.3,0.5S174,30.1,174,30.6L174,30.6z"/>
		<path fill="#33AFF7" d="M181.2,32.9c0-0.2,0.1-0.3,0.3-0.3h0.8c0.1,0,0.2,0,0.2,0.1c0.1,0.1,0.1,0.1,0.1,0.2c0,0.2,0,0.5,0.2,0.7
			c0.1,0.2,0.2,0.3,0.4,0.4c0.2,0.1,0.4,0.2,0.5,0.2c0.2,0,0.4,0.1,0.6,0.1c0.2,0,0.4,0,0.6,0c0.2,0,0.4-0.1,0.5-0.2
			c0.3-0.2,0.5-0.5,0.5-0.9c0-0.2,0-0.3-0.1-0.4c-0.1-0.1-0.2-0.2-0.4-0.3s-0.4-0.2-0.5-0.2c-0.2-0.1-0.4-0.1-0.6-0.2
			c-0.3-0.1-0.6-0.1-1-0.2c-0.3-0.1-0.6-0.2-0.9-0.4c-0.3-0.2-0.5-0.4-0.7-0.6c-0.2-0.3-0.3-0.7-0.3-1s0.1-0.7,0.2-0.9
			c0.2-0.3,0.4-0.5,0.6-0.7c0.3-0.2,0.6-0.4,0.9-0.5c0.3-0.1,0.7-0.2,1-0.2s0.7,0.1,1,0.2s0.6,0.3,0.9,0.5c0.3,0.2,0.5,0.4,0.6,0.7
			c0.2,0.3,0.2,0.6,0.2,1c0,0.2-0.1,0.3-0.3,0.3h-0.8c-0.2,0-0.3-0.1-0.3-0.3c0-0.3-0.1-0.5-0.3-0.7S184.5,29,184,29
			s-0.8,0.1-1.1,0.3c-0.2,0.2-0.3,0.4-0.3,0.6c0,0.3,0.2,0.5,0.4,0.6c0.3,0.1,0.6,0.2,1,0.3c0.3,0.1,0.7,0.1,1,0.2s0.7,0.2,1,0.4
			c0.3,0.2,0.6,0.4,0.7,0.7c0.2,0.4,0.3,0.8,0.3,1.2s-0.1,0.8-0.2,1.1c-0.2,0.3-0.4,0.6-0.7,0.8s-0.6,0.4-1,0.5s-0.8,0.2-1.2,0.2
			s-0.8,0-1.1-0.1c-0.4-0.1-0.7-0.3-1-0.5s-0.5-0.5-0.7-0.8C181.3,33.7,181.2,33.3,181.2,32.9z"/>
		<path fill="#33AFF7" d="M189.8,32.9c0-0.1,0-0.2,0.1-0.2c0.1-0.1,0.1-0.1,0.2-0.1h0.8c0.1,0,0.2,0,0.2,0.1
			c0.1,0.1,0.1,0.1,0.1,0.2c0,0.2,0,0.5,0.2,0.7c0.1,0.2,0.2,0.3,0.4,0.4c0.2,0.1,0.4,0.2,0.5,0.2c0.2,0,0.4,0.1,0.6,0.1
			c0.2,0,0.4,0,0.6,0c0.2,0,0.4-0.1,0.5-0.2c0.3-0.2,0.5-0.5,0.5-0.9c0-0.2,0-0.3-0.1-0.4c-0.1-0.1-0.2-0.2-0.4-0.3
			s-0.4-0.2-0.5-0.2c-0.2-0.1-0.4-0.1-0.6-0.2c-0.3-0.1-0.6-0.1-1-0.2c-0.3-0.1-0.6-0.2-0.9-0.4c-0.3-0.2-0.5-0.4-0.7-0.6
			c-0.2-0.3-0.3-0.7-0.3-1s0.1-0.7,0.2-0.9c0.2-0.3,0.4-0.5,0.6-0.7c0.3-0.2,0.6-0.4,0.9-0.5c0.3-0.1,0.7-0.2,1-0.2s0.7,0.1,1,0.2
			s0.6,0.3,0.9,0.5c0.3,0.2,0.5,0.4,0.6,0.7c0.2,0.3,0.2,0.6,0.2,1c0,0.2-0.1,0.3-0.3,0.3h-0.8c-0.2,0-0.3-0.1-0.3-0.3
			c0-0.3-0.1-0.5-0.3-0.7s-0.6-0.3-1-0.3s-0.8,0.1-1.1,0.3c-0.2,0.2-0.3,0.4-0.3,0.6c0,0.3,0.2,0.5,0.4,0.6c0.3,0.1,0.6,0.2,1,0.3
			c0.3,0.1,0.7,0.1,1,0.2s0.7,0.2,1,0.4c0.3,0.2,0.6,0.4,0.7,0.7c0.2,0.4,0.3,0.8,0.3,1.2c0,0.7-0.3,1.4-0.9,1.9
			c-0.3,0.2-0.6,0.4-1,0.5s-0.8,0.2-1.2,0.2s-0.8,0-1.1-0.1c-0.4-0.1-0.7-0.3-1-0.5s-0.5-0.5-0.7-0.8
			C189.9,33.7,189.8,33.3,189.8,32.9z"/>
		<path fill="#33AFF7" d="M199.7,32.1c0,0.7,0.2,1.2,0.5,1.6c0.4,0.3,0.8,0.5,1.3,0.5c0.4,0,0.7-0.1,1-0.3s0.5-0.4,0.6-0.7
			c0-0.1,0.1-0.2,0.1-0.2c0.1,0,0.1-0.1,0.2-0.1h0.8c0.1,0,0.2,0,0.2,0.1c0.1,0.1,0.1,0.2,0.1,0.2c0,0.3-0.2,0.6-0.3,0.9
			c-0.2,0.3-0.4,0.5-0.6,0.7c-0.3,0.2-0.6,0.4-0.9,0.5c-0.4,0.1-0.7,0.2-1.1,0.2c-0.4,0-0.9-0.1-1.3-0.2c-0.4-0.1-0.7-0.4-1-0.6
			c-0.3-0.3-0.5-0.6-0.7-0.9c-0.2-0.4-0.3-0.8-0.3-1.2c0-0.3,0-0.7,0-1.1s0-0.8,0-1.1c0-0.4,0.1-0.8,0.3-1.2
			c0.2-0.4,0.4-0.7,0.7-0.9c0.3-0.3,0.6-0.5,1-0.6c0.4-0.2,0.8-0.2,1.3-0.2c0.9,0,1.7,0.3,2.3,0.8c0.6,0.6,0.8,1.3,0.8,2.3v1.1
			c0,0.2-0.1,0.3-0.3,0.3h-4.5C199.8,32,199.7,32,199.7,32.1L199.7,32.1z M199.7,30.6c0,0.1,0,0.1,0.1,0.2l0,0h3.2
			c0.1,0,0.1,0,0.2-0.1l0,0c0-0.5-0.2-1-0.5-1.3s-0.8-0.5-1.2-0.4c-0.5,0-1,0.2-1.3,0.5C199.9,29.7,199.7,30.1,199.7,30.6z"/>
		<path fill="#33AFF7" d="M47.3,38.6c-0.6,0-1-0.4-1-1c0-0.2,0.1-0.4,0.2-0.6l15.8-19.9c0.3-0.4,1-0.5,1.4-0.2
			c0.4,0.3,0.5,1,0.2,1.4l-15.8,20C47.9,38.5,47.6,38.6,47.3,38.6z"/>
		<path fill="#FF8939" d="M43.1,0.7c-3.7,0-7,2.1-8.6,5.3c-2.4-4.8-8.1-6.7-12.9-4.3c-3.3,1.6-5.3,5-5.3,8.6c0,0.6,0.4,1,1,1
			s1-0.4,1-1c0-4.2,3.4-7.6,7.6-7.6s7.6,3.4,7.6,7.6c0,0.6,0.4,1,1,1s1-0.4,1-1c0.1-4.2,3.5-7.6,7.7-7.5c4.1,0.1,7.5,3.4,7.5,7.5
			c0,0.6,0.4,1,1,1s1-0.4,1-1C52.7,5,48.4,0.7,43.1,0.7z"/>
		<path fill="#FF8939" d="M51,16.6c-0.4-0.3-1.1-0.3-1.4,0.2L34.4,36L19.3,16.8c-0.3-0.4-1-0.5-1.4-0.2s-0.5,1-0.2,1.4l0,0
			l15.9,20.2c0.3,0.4,1,0.5,1.4,0.2c0.1,0,0.1-0.1,0.2-0.2l16-20.2C51.5,17.6,51.4,16.9,51,16.6z"/>
		<path fill="#33AFF7" d="M21.6,38.6c-0.3,0-0.6-0.1-0.8-0.4L5,18.4C4.7,18,4.7,17.3,5.2,17c0.4-0.3,1.1-0.3,1.4,0.2L22.4,37
			c0.3,0.4,0.3,1.1-0.2,1.4C22,38.6,21.8,38.6,21.6,38.6L21.6,38.6z"/>
	</g>
	<g enable-background="new    ">
		<path fill="#4F4F6D" d="M213.6,25.5V24h1.5v1.5H213.6z M213.6,35.5v-8.5h1.5v8.5H213.6z"/>
		<path fill="#4F4F6D" d="M218.2,35.5v-8.5h1.5v1.6c0.8-1.2,1.8-1.8,3-1.8c0.7,0,1.3,0.2,1.8,0.7c0.4,0.5,0.7,1.1,0.7,1.9v6.1h-1.5
			V30c0-0.6-0.1-1.1-0.3-1.3c-0.2-0.3-0.5-0.4-0.9-0.4c-0.9,0-1.8,0.6-2.7,1.9v5.5H218.2z"/>
		<path fill="#4F4F6D" d="M236.4,35.7c-1.1,0-2.1-0.4-2.8-1.3c-0.8-0.8-1.1-1.9-1.1-3.2c0-1.4,0.4-2.5,1.1-3.2
			c0.7-0.8,1.8-1.2,3.1-1.2c0.7,0,1.4,0.1,2.2,0.3v1.3c-0.9-0.3-1.6-0.4-2.1-0.4c-0.8,0-1.4,0.3-1.9,0.9c-0.5,0.6-0.7,1.4-0.7,2.4
			c0,1,0.2,1.7,0.7,2.3c0.5,0.6,1.1,0.9,1.9,0.9c0.7,0,1.4-0.2,2.2-0.5v1.3C238,35.6,237.1,35.7,236.4,35.7z"/>
		<path fill="#4F4F6D" d="M244.6,35.7c-1.2,0-2.2-0.4-2.9-1.2s-1.1-1.9-1.1-3.2c0-1.4,0.4-2.4,1.1-3.2c0.7-0.8,1.7-1.2,2.9-1.2
			c1.2,0,2.2,0.4,2.9,1.2c0.7,0.8,1.1,1.9,1.1,3.2c0,1.4-0.4,2.5-1.1,3.3C246.8,35.3,245.8,35.7,244.6,35.7z M244.6,34.6
			c1.6,0,2.4-1.1,2.4-3.3c0-2.2-0.8-3.3-2.4-3.3c-1.6,0-2.4,1.1-2.4,3.3C242.2,33.5,243,34.6,244.6,34.6z"/>
		<path fill="#4F4F6D" d="M251,35.5V23.2h1.5v12.3H251z"/>
		<path fill="#4F4F6D" d="M255.7,35.5V23.2h1.5v12.3H255.7z"/>
		<path fill="#4F4F6D" d="M264.6,34.5c-0.9,0.8-1.8,1.3-2.7,1.3c-0.7,0-1.3-0.2-1.7-0.7c-0.5-0.4-0.7-1-0.7-1.7
			c0-0.9,0.4-1.6,1.2-2.1c0.8-0.5,1.9-0.7,3.3-0.7h0.4v-1c0-1-0.5-1.5-1.5-1.5c-0.8,0-1.7,0.2-2.6,0.8v-1.3c1-0.4,2-0.6,2.9-0.6
			c0.9,0,1.6,0.2,2.1,0.6c0.4,0.4,0.7,1.1,0.7,2v3.8c0,0.9,0.3,1.3,0.8,1.3c0.1,0,0.2,0,0.3,0l0.1,0.9c-0.3,0.2-0.7,0.2-1.2,0.2
			C265.3,35.7,264.8,35.3,264.6,34.5z M264.4,33.6v-2.2l-0.5,0c-0.8,0-1.5,0.2-2,0.5s-0.8,0.7-0.8,1.3c0,0.4,0.1,0.7,0.4,0.9
			c0.3,0.3,0.6,0.4,0.9,0.4C263,34.5,263.7,34.2,264.4,33.6z"/>
		<path fill="#4F4F6D" d="M269.1,35.6V23.2h1.5v5.4c0.6-1.2,1.6-1.8,2.8-1.8c1,0,1.8,0.4,2.4,1.1c0.6,0.7,0.9,1.8,0.9,3.1
			c0,1.4-0.3,2.5-1,3.4c-0.7,0.9-1.5,1.3-2.6,1.3c-1,0-1.8-0.4-2.5-1.2l-0.2,1.1H269.1z M270.6,33.5c0.8,0.7,1.5,1.1,2.3,1.1
			c1.5,0,2.2-1.1,2.2-3.4c0-2-0.7-3-2-3c-0.9,0-1.7,0.5-2.5,1.4V33.5z"/>
		<path fill="#4F4F6D" d="M282.4,35.7c-1.2,0-2.2-0.4-2.9-1.2s-1.1-1.9-1.1-3.2c0-1.4,0.4-2.4,1.1-3.2c0.7-0.8,1.7-1.2,2.9-1.2
			c1.2,0,2.2,0.4,2.9,1.2c0.7,0.8,1.1,1.9,1.1,3.2c0,1.4-0.4,2.5-1.1,3.3C284.7,35.3,283.7,35.7,282.4,35.7z M282.4,34.6
			c1.6,0,2.4-1.1,2.4-3.3c0-2.2-0.8-3.3-2.4-3.3c-1.6,0-2.4,1.1-2.4,3.3C280,33.5,280.8,34.6,282.4,34.6z"/>
		<path fill="#4F4F6D" d="M288.9,35.5v-8.5h1.5v1.6c0.6-1.2,1.5-1.8,2.6-1.8c0.2,0,0.3,0,0.5,0v1.4c-0.3-0.1-0.5-0.1-0.7-0.1
			c-1,0-1.8,0.6-2.4,1.7v5.6H288.9z"/>
		<path fill="#4F4F6D" d="M299.7,34.5c-0.9,0.8-1.8,1.3-2.7,1.3c-0.7,0-1.3-0.2-1.7-0.7c-0.5-0.4-0.7-1-0.7-1.7
			c0-0.9,0.4-1.6,1.2-2.1c0.8-0.5,1.9-0.7,3.3-0.7h0.4v-1c0-1-0.5-1.5-1.5-1.5c-0.8,0-1.7,0.2-2.6,0.8v-1.3c1-0.4,2-0.6,2.9-0.6
			c0.9,0,1.6,0.2,2.1,0.6c0.4,0.4,0.7,1.1,0.7,2v3.8c0,0.9,0.3,1.3,0.8,1.3c0.1,0,0.2,0,0.3,0l0.1,0.9c-0.3,0.2-0.7,0.2-1.2,0.2
			C300.4,35.7,299.9,35.3,299.7,34.5z M299.5,33.6v-2.2l-0.5,0c-0.8,0-1.5,0.2-2,0.5s-0.8,0.7-0.8,1.3c0,0.4,0.1,0.7,0.4,0.9
			c0.3,0.3,0.6,0.4,0.9,0.4C298.2,34.5,298.8,34.2,299.5,33.6z"/>
		<path fill="#4F4F6D" d="M306.7,35.7c-0.8,0-1.4-0.2-1.8-0.7c-0.4-0.4-0.7-1.1-0.7-1.9v-5h-1.1v-1.2h1.1v-1.5l1.5-0.1v1.7h2.2v1.2
			h-2.2v4.7c0,1.1,0.5,1.7,1.4,1.7c0.2,0,0.4,0,0.7-0.1v1.1C307.5,35.7,307.1,35.7,306.7,35.7z"/>
		<path fill="#4F4F6D" d="M310.1,25.5V24h1.5v1.5H310.1z M310.1,35.5v-8.5h1.5v8.5H310.1z"/>
		<path fill="#4F4F6D" d="M318,35.7c-1.2,0-2.2-0.4-2.9-1.2s-1.1-1.9-1.1-3.2c0-1.4,0.4-2.4,1.1-3.2c0.7-0.8,1.7-1.2,2.9-1.2
			s2.2,0.4,2.9,1.2c0.7,0.8,1.1,1.9,1.1,3.2c0,1.4-0.4,2.5-1.1,3.3C320.3,35.3,319.3,35.7,318,35.7z M318.1,34.6
			c1.6,0,2.4-1.1,2.4-3.3c0-2.2-0.8-3.3-2.4-3.3c-1.6,0-2.4,1.1-2.4,3.3C315.7,33.5,316.5,34.6,318.1,34.6z"/>
		<path fill="#4F4F6D" d="M324.5,35.5v-8.5h1.5v1.6c0.8-1.2,1.8-1.8,3-1.8c0.7,0,1.3,0.2,1.8,0.7c0.4,0.5,0.7,1.1,0.7,1.9v6.1h-1.5
			V30c0-0.6-0.1-1.1-0.3-1.3c-0.2-0.3-0.5-0.4-0.9-0.4c-0.9,0-1.8,0.6-2.7,1.9v5.5H324.5z"/>
		<path fill="#4F4F6D" d="M340.4,35.5l-2.4-8.5h1.5l1.9,6.6l2-6.6h1.5l1.8,6.6l2.1-6.6h1.3l-2.8,8.5h-1.5L344,29l-2,6.6H340.4z"/>
		<path fill="#4F4F6D" d="M351.7,25.5V24h1.5v1.5H351.7z M351.7,35.5v-8.5h1.5v8.5H351.7z"/>
		<path fill="#4F4F6D" d="M358.9,35.7c-0.8,0-1.4-0.2-1.8-0.7c-0.4-0.4-0.7-1.1-0.7-1.9v-5h-1.1v-1.2h1.1v-1.5l1.5-0.1v1.7h2.2v1.2
			h-2.2v4.7c0,1.1,0.5,1.7,1.4,1.7c0.2,0,0.4,0,0.7-0.1v1.1C359.6,35.7,359.2,35.7,358.9,35.7z"/>
		<path fill="#4F4F6D" d="M362.3,35.5V23.2h1.5v5.4c0.8-1.2,1.8-1.8,3-1.8c0.7,0,1.3,0.2,1.8,0.7c0.4,0.5,0.7,1.1,0.7,1.9v6.1h-1.5
			V30c0-0.6-0.1-1.1-0.3-1.3c-0.2-0.3-0.5-0.4-0.9-0.4c-0.9,0-1.8,0.6-2.7,1.9v5.5H362.3z"/>
	</g>
	<g enable-background="new    ">
		<path fill="#FB8700" d="M433.4,24.2h3.4c0.6,0,1.2,0.1,1.7,0.2c0.5,0.1,0.9,0.3,1.3,0.6c0.3,0.3,0.6,0.6,0.8,1
			c0.2,0.4,0.3,0.9,0.3,1.4c0,0.6-0.1,1-0.3,1.5c-0.2,0.4-0.5,0.7-0.9,1s-0.8,0.4-1.3,0.6c-0.5,0.1-1,0.2-1.6,0.2H435v5h-1.6V24.2z
			 M435,29.2h1.7c0.4,0,0.7,0,1.1-0.1c0.3-0.1,0.6-0.2,0.8-0.3c0.2-0.1,0.4-0.3,0.5-0.6c0.1-0.2,0.2-0.5,0.2-0.9
			c0-0.3-0.1-0.6-0.2-0.9c-0.1-0.2-0.3-0.4-0.5-0.6c-0.2-0.1-0.5-0.2-0.8-0.3c-0.3-0.1-0.7-0.1-1-0.1H435V29.2z"/>
		<path fill="#FB8700" d="M444.4,35.5h-1.5V23.5h1.5V35.5z"/>
		<path fill="#FB8700" d="M451.7,30.6c0-0.6-0.2-1-0.5-1.3c-0.3-0.3-0.8-0.4-1.4-0.4c-0.4,0-0.8,0.1-1.2,0.2
			c-0.4,0.2-0.7,0.4-0.9,0.6l-0.8-1c0.4-0.4,0.8-0.6,1.4-0.8c0.5-0.2,1.1-0.3,1.7-0.3c0.5,0,1,0.1,1.4,0.2s0.7,0.4,1,0.6
			s0.4,0.6,0.6,0.9c0.1,0.4,0.2,0.8,0.2,1.2V34c0,0.3,0,0.5,0,0.8s0,0.5,0.1,0.7h-1.4c-0.1-0.4-0.1-0.7-0.1-1.1h0
			c-0.3,0.4-0.6,0.7-1,0.9s-0.9,0.3-1.5,0.3c-0.3,0-0.6,0-0.9-0.1c-0.3-0.1-0.6-0.2-0.9-0.4s-0.5-0.4-0.7-0.7
			c-0.2-0.3-0.3-0.7-0.3-1.1c0-0.6,0.2-1,0.5-1.4c0.3-0.3,0.7-0.6,1.2-0.8c0.5-0.2,1.1-0.3,1.7-0.3c0.6-0.1,1.3-0.1,1.9-0.1V30.6z
			 M451.3,31.9c-0.4,0-0.8,0-1.2,0c-0.4,0-0.8,0.1-1.1,0.2c-0.3,0.1-0.6,0.2-0.8,0.4c-0.2,0.2-0.3,0.4-0.3,0.8c0,0.2,0,0.4,0.1,0.6
			c0.1,0.2,0.2,0.3,0.4,0.4c0.1,0.1,0.3,0.2,0.5,0.2c0.2,0,0.4,0.1,0.6,0.1c0.7,0,1.2-0.2,1.6-0.6c0.4-0.4,0.6-1,0.6-1.6v-0.4H451.3
			z"/>
		<path fill="#FB8700" d="M458.5,33.9L458.5,33.9l2.1-6h1.6l-3.7,9.4c-0.1,0.3-0.3,0.6-0.4,0.9s-0.3,0.5-0.5,0.6
			c-0.2,0.2-0.4,0.3-0.7,0.4s-0.6,0.1-1,0.1c-0.2,0-0.3,0-0.5,0c-0.2,0-0.3,0-0.5-0.1l0.1-1.3c0.3,0.1,0.5,0.1,0.7,0.1
			c0.4,0,0.7-0.1,0.9-0.3c0.2-0.2,0.4-0.5,0.5-0.9l0.5-1.3l-3.2-7.6h1.7L458.5,33.9z"/>
		<path fill="#FB8700" d="M467.2,29.2h-1.8v6.4h-1.5v-6.4h-1.5V28h1.5v-1.6c0-0.4,0.1-0.9,0.2-1.2s0.3-0.7,0.5-1
			c0.2-0.3,0.5-0.5,0.9-0.7c0.4-0.2,0.8-0.2,1.3-0.2c0.4,0,0.7,0,0.9,0.1l-0.2,1.3c-0.1,0-0.2-0.1-0.3-0.1c-0.1,0-0.2,0-0.4,0
			c-0.3,0-0.5,0.1-0.7,0.2c-0.2,0.1-0.3,0.2-0.4,0.4c-0.1,0.2-0.2,0.4-0.2,0.6c0,0.2,0,0.4,0,0.7V28h1.8V29.2z"/>
		<path fill="#FB8700" d="M473.9,35.5c0-0.2,0-0.4,0-0.6c0-0.2,0-0.4,0-0.6h0c-0.2,0.4-0.5,0.7-1,1c-0.5,0.3-1,0.4-1.5,0.4
			c-0.5,0-0.9-0.1-1.3-0.2c-0.4-0.2-0.6-0.4-0.9-0.7s-0.4-0.6-0.5-1c-0.1-0.4-0.2-0.8-0.2-1.2V28h1.5v4.2c0,0.3,0,0.6,0.1,0.9
			c0,0.3,0.1,0.5,0.3,0.7c0.1,0.2,0.3,0.4,0.5,0.5c0.2,0.1,0.5,0.2,0.9,0.2c0.6,0,1.1-0.2,1.5-0.7c0.4-0.5,0.6-1.1,0.6-1.8v-4h1.5v6
			c0,0.2,0,0.5,0,0.8c0,0.3,0,0.6,0,0.8H473.9z"/>
		<path fill="#FB8700" d="M479.4,35.5h-1.5V23.5h1.5V35.5z"/>
		<path fill="#FB8700" d="M487.6,35.5h-1.6V24.2h1.6V35.5z"/>
		<path fill="#FB8700" d="M491.6,28c0,0.2,0,0.4,0,0.6c0,0.2,0,0.4,0,0.6h0c0.1-0.2,0.2-0.4,0.4-0.6c0.2-0.2,0.4-0.3,0.6-0.5
			c0.2-0.1,0.4-0.2,0.7-0.3c0.3-0.1,0.5-0.1,0.8-0.1c0.5,0,0.9,0.1,1.3,0.2c0.3,0.2,0.6,0.4,0.9,0.7c0.2,0.3,0.4,0.6,0.5,1
			s0.2,0.8,0.2,1.2v4.7h-1.5v-4.2c0-0.3,0-0.6-0.1-0.9c0-0.3-0.1-0.5-0.3-0.7c-0.1-0.2-0.3-0.4-0.5-0.5c-0.2-0.1-0.5-0.2-0.9-0.2
			c-0.6,0-1.1,0.2-1.5,0.7c-0.4,0.5-0.6,1.1-0.6,1.8v4h-1.5v-6c0-0.2,0-0.5,0-0.8s0-0.6,0-0.8H491.6z"/>
		<path fill="#FB8700" d="M503.1,35.5h-1.6l-3.1-7.6h1.7l2.2,6h0l2.2-6h1.6L503.1,35.5z"/>
		<path fill="#FB8700" d="M514.6,31.7c0,0.1,0,0.2,0,0.3s0,0.2,0,0.3h-6c0,0.3,0.1,0.6,0.2,0.9c0.1,0.3,0.3,0.5,0.5,0.7
			c0.2,0.2,0.5,0.4,0.8,0.5s0.6,0.2,0.9,0.2c0.5,0,1-0.1,1.3-0.3c0.4-0.2,0.7-0.5,0.9-0.8l1.1,0.8c-0.4,0.5-0.9,0.9-1.4,1.2
			s-1.2,0.4-1.8,0.4c-0.6,0-1.1-0.1-1.6-0.3c-0.5-0.2-0.9-0.5-1.3-0.8c-0.4-0.3-0.6-0.8-0.8-1.3c-0.2-0.5-0.3-1-0.3-1.6
			c0-0.6,0.1-1.1,0.3-1.6c0.2-0.5,0.5-0.9,0.8-1.3c0.4-0.4,0.8-0.6,1.2-0.8c0.5-0.2,1-0.3,1.5-0.3c0.6,0,1.1,0.1,1.5,0.3
			c0.5,0.2,0.8,0.4,1.1,0.8c0.3,0.3,0.6,0.8,0.7,1.2C514.6,30.5,514.6,31.1,514.6,31.7z M513.1,31.1c0-0.3-0.1-0.6-0.2-0.8
			c-0.1-0.3-0.2-0.5-0.4-0.7c-0.2-0.2-0.4-0.3-0.7-0.5c-0.3-0.1-0.6-0.2-0.9-0.2c-0.3,0-0.6,0.1-0.9,0.2s-0.5,0.3-0.7,0.5
			s-0.4,0.4-0.5,0.7s-0.2,0.5-0.2,0.8H513.1z"/>
		<path fill="#FB8700" d="M518.1,28c0,0.2,0,0.4,0,0.6c0,0.2,0,0.4,0,0.6h0c0.1-0.2,0.2-0.4,0.4-0.6c0.2-0.2,0.4-0.3,0.6-0.5
			c0.2-0.1,0.4-0.2,0.7-0.3c0.3-0.1,0.5-0.1,0.8-0.1c0.5,0,0.9,0.1,1.3,0.2c0.3,0.2,0.6,0.4,0.9,0.7c0.2,0.3,0.4,0.6,0.5,1
			s0.2,0.8,0.2,1.2v4.7H522v-4.2c0-0.3,0-0.6-0.1-0.9c0-0.3-0.1-0.5-0.3-0.7c-0.1-0.2-0.3-0.4-0.5-0.5c-0.2-0.1-0.5-0.2-0.9-0.2
			c-0.6,0-1.1,0.2-1.5,0.7c-0.4,0.5-0.6,1.1-0.6,1.8v4h-1.5v-6c0-0.2,0-0.5,0-0.8s0-0.6,0-0.8H518.1z"/>
		<path fill="#FB8700" d="M529.7,29.2h-2v3.9c0,0.5,0.1,0.8,0.3,1s0.4,0.3,0.8,0.3c0.1,0,0.3,0,0.4,0c0.2,0,0.3-0.1,0.4-0.1l0,1.2
			c-0.2,0.1-0.4,0.1-0.6,0.2c-0.2,0-0.4,0.1-0.7,0.1c-0.7,0-1.3-0.2-1.6-0.6s-0.6-1-0.6-1.8v-4.1h-1.4V28h1.4v-2.2h1.5V28h2V29.2z"
			/>
		<path fill="#FB8700" d="M533,25.2c0,0.3-0.1,0.5-0.3,0.7c-0.2,0.2-0.4,0.3-0.7,0.3s-0.5-0.1-0.7-0.3c-0.2-0.2-0.3-0.4-0.3-0.7
			c0-0.3,0.1-0.5,0.3-0.7c0.2-0.2,0.4-0.3,0.7-0.3s0.5,0.1,0.7,0.3C532.9,24.7,533,25,533,25.2z M532.7,35.5h-1.5V28h1.5V35.5z"/>
		<path fill="#FB8700" d="M543,31.7c0,0.6-0.1,1.1-0.3,1.6s-0.5,0.9-0.9,1.3s-0.8,0.6-1.3,0.8c-0.5,0.2-1,0.3-1.6,0.3
			s-1.1-0.1-1.6-0.3c-0.5-0.2-0.9-0.5-1.3-0.8c-0.4-0.4-0.6-0.8-0.9-1.3s-0.3-1-0.3-1.6c0-0.6,0.1-1.1,0.3-1.6
			c0.2-0.5,0.5-0.9,0.9-1.3c0.4-0.4,0.8-0.6,1.3-0.8c0.5-0.2,1-0.3,1.6-0.3s1.1,0.1,1.6,0.3c0.5,0.2,0.9,0.5,1.3,0.8
			c0.4,0.4,0.7,0.8,0.9,1.3C542.9,30.6,543,31.2,543,31.7z M541.4,31.7c0-0.4-0.1-0.7-0.2-1c-0.1-0.3-0.3-0.6-0.5-0.9
			c-0.2-0.2-0.5-0.4-0.8-0.6c-0.3-0.1-0.7-0.2-1.1-0.2c-0.4,0-0.8,0.1-1.1,0.2c-0.3,0.1-0.6,0.3-0.8,0.6c-0.2,0.2-0.4,0.5-0.5,0.9
			c-0.1,0.3-0.2,0.7-0.2,1s0.1,0.7,0.2,1c0.1,0.3,0.3,0.6,0.5,0.9c0.2,0.3,0.5,0.5,0.8,0.6c0.3,0.1,0.7,0.2,1.1,0.2
			c0.4,0,0.8-0.1,1.1-0.2c0.3-0.1,0.6-0.4,0.8-0.6c0.2-0.3,0.4-0.5,0.5-0.9C541.4,32.5,541.4,32.1,541.4,31.7z"/>
		<path fill="#FB8700" d="M546.4,28c0,0.2,0,0.4,0,0.6c0,0.2,0,0.4,0,0.6h0c0.1-0.2,0.2-0.4,0.4-0.6c0.2-0.2,0.4-0.3,0.6-0.5
			c0.2-0.1,0.4-0.2,0.7-0.3c0.3-0.1,0.5-0.1,0.8-0.1c0.5,0,0.9,0.1,1.3,0.2c0.3,0.2,0.6,0.4,0.9,0.7c0.2,0.3,0.4,0.6,0.5,1
			s0.2,0.8,0.2,1.2v4.7h-1.5v-4.2c0-0.3,0-0.6-0.1-0.9c0-0.3-0.1-0.5-0.3-0.7c-0.1-0.2-0.3-0.4-0.5-0.5c-0.2-0.1-0.5-0.2-0.9-0.2
			c-0.6,0-1.1,0.2-1.5,0.7c-0.4,0.5-0.6,1.1-0.6,1.8v4h-1.5v-6c0-0.2,0-0.5,0-0.8s0-0.6,0-0.8H546.4z"/>
		<path fill="#FB8700" d="M568.1,33.8c-0.4,0.6-1,1.1-1.7,1.5c-0.7,0.4-1.6,0.6-2.6,0.6c-0.9,0-1.7-0.1-2.4-0.4s-1.4-0.7-1.9-1.2
			c-0.5-0.5-0.9-1.2-1.2-1.9c-0.3-0.7-0.4-1.5-0.4-2.4c0-0.9,0.2-1.7,0.5-2.4c0.3-0.7,0.7-1.4,1.3-1.9s1.2-0.9,1.9-1.2
			c0.7-0.3,1.5-0.4,2.4-0.4c0.4,0,0.8,0,1.2,0.1s0.8,0.2,1.1,0.3s0.7,0.3,1,0.6c0.3,0.2,0.6,0.5,0.8,0.8l-1.2,1
			c-0.3-0.4-0.7-0.7-1.2-1c-0.5-0.3-1-0.4-1.6-0.4c-0.7,0-1.2,0.1-1.8,0.4c-0.5,0.2-1,0.6-1.3,1s-0.7,0.9-0.9,1.4
			c-0.2,0.5-0.3,1.1-0.3,1.8c0,0.6,0.1,1.2,0.3,1.8s0.5,1,0.8,1.4c0.4,0.4,0.8,0.7,1.3,1c0.5,0.2,1.1,0.4,1.8,0.4
			c0.6,0,1.2-0.1,1.7-0.4s1-0.6,1.3-1.1L568.1,33.8z"/>
		<path fill="#FB8700" d="M577.1,31.7c0,0.6-0.1,1.1-0.3,1.6s-0.5,0.9-0.9,1.3s-0.8,0.6-1.3,0.8c-0.5,0.2-1,0.3-1.6,0.3
			s-1.1-0.1-1.6-0.3c-0.5-0.2-0.9-0.5-1.3-0.8c-0.4-0.4-0.6-0.8-0.9-1.3s-0.3-1-0.3-1.6c0-0.6,0.1-1.1,0.3-1.6
			c0.2-0.5,0.5-0.9,0.9-1.3c0.4-0.4,0.8-0.6,1.3-0.8c0.5-0.2,1-0.3,1.6-0.3s1.1,0.1,1.6,0.3c0.5,0.2,0.9,0.5,1.3,0.8
			c0.4,0.4,0.7,0.8,0.9,1.3C577,30.6,577.1,31.2,577.1,31.7z M575.5,31.7c0-0.4-0.1-0.7-0.2-1c-0.1-0.3-0.3-0.6-0.5-0.9
			c-0.2-0.2-0.5-0.4-0.8-0.6c-0.3-0.1-0.7-0.2-1.1-0.2c-0.4,0-0.8,0.1-1.1,0.2c-0.3,0.1-0.6,0.3-0.8,0.6c-0.2,0.2-0.4,0.5-0.5,0.9
			c-0.1,0.3-0.2,0.7-0.2,1s0.1,0.7,0.2,1c0.1,0.3,0.3,0.6,0.5,0.9c0.2,0.3,0.5,0.5,0.8,0.6c0.3,0.1,0.7,0.2,1.1,0.2
			c0.4,0,0.8-0.1,1.1-0.2c0.3-0.1,0.6-0.4,0.8-0.6c0.2-0.3,0.4-0.5,0.5-0.9C575.4,32.5,575.5,32.1,575.5,31.7z"/>
		<path fill="#FB8700" d="M581.5,28.2c0.4-0.3,0.9-0.4,1.5-0.4c0.5,0,1,0.1,1.4,0.4c0.4,0.2,0.7,0.6,1,1.2c0.3-0.5,0.6-0.9,1.1-1.1
			c0.5-0.3,1-0.4,1.5-0.4c0.5,0,0.9,0.1,1.3,0.2c0.4,0.2,0.6,0.4,0.9,0.7s0.4,0.6,0.5,1s0.2,0.8,0.2,1.2v4.7h-1.5v-4.2
			c0-0.3,0-0.6-0.1-0.9c-0.1-0.3-0.1-0.5-0.3-0.7c-0.1-0.2-0.3-0.4-0.5-0.5c-0.2-0.1-0.5-0.2-0.8-0.2c-0.3,0-0.6,0.1-0.9,0.2
			s-0.4,0.3-0.6,0.6c-0.2,0.2-0.3,0.5-0.3,0.8c-0.1,0.3-0.1,0.6-0.1,0.9v4.1h-1.5V31c0-0.3,0-0.6-0.1-0.8c-0.1-0.2-0.1-0.5-0.3-0.6
			c-0.1-0.2-0.3-0.3-0.5-0.4c-0.2-0.1-0.5-0.2-0.7-0.2c-0.6,0-1,0.2-1.4,0.7c-0.4,0.5-0.5,1.1-0.5,1.8v4h-1.5v-6c0-0.2,0-0.5,0-0.8
			s0-0.6,0-0.8h1.4c0,0.2,0,0.4,0,0.6c0,0.2,0,0.4,0,0.6h0C580.8,28.8,581.1,28.5,581.5,28.2z"/>
		<path fill="#FB8700" d="M594.8,39.4h-1.5V28h1.5v1.2h0c0.2-0.4,0.6-0.7,1.1-1s1-0.4,1.6-0.4c0.6,0,1.1,0.1,1.5,0.3
			c0.5,0.2,0.9,0.5,1.2,0.8c0.3,0.4,0.6,0.8,0.8,1.3c0.2,0.5,0.3,1,0.3,1.6s-0.1,1.1-0.3,1.6c-0.2,0.5-0.4,0.9-0.8,1.3
			c-0.3,0.4-0.7,0.6-1.2,0.9c-0.5,0.2-1,0.3-1.6,0.3c-0.5,0-1-0.1-1.5-0.4s-0.9-0.6-1.1-1h0V39.4z M599.7,31.7c0-0.4-0.1-0.7-0.2-1
			c-0.1-0.3-0.3-0.6-0.5-0.9c-0.2-0.3-0.5-0.5-0.8-0.6s-0.7-0.2-1.1-0.2c-0.4,0-0.7,0.1-1,0.2s-0.6,0.4-0.8,0.6
			c-0.2,0.3-0.4,0.5-0.5,0.9c-0.1,0.3-0.2,0.7-0.2,1c0,0.4,0.1,0.7,0.2,1c0.1,0.3,0.3,0.6,0.5,0.9c0.2,0.3,0.5,0.5,0.8,0.6
			s0.7,0.2,1,0.2c0.4,0,0.8-0.1,1.1-0.2c0.3-0.2,0.6-0.4,0.8-0.6c0.2-0.3,0.4-0.5,0.5-0.9C599.7,32.4,599.7,32.1,599.7,31.7z"/>
		<path fill="#FB8700" d="M608.1,30.6c0-0.6-0.2-1-0.5-1.3c-0.3-0.3-0.8-0.4-1.4-0.4c-0.4,0-0.8,0.1-1.2,0.2
			c-0.4,0.2-0.7,0.4-0.9,0.6l-0.8-1c0.4-0.4,0.8-0.6,1.4-0.8c0.5-0.2,1.1-0.3,1.7-0.3c0.5,0,1,0.1,1.4,0.2s0.7,0.4,1,0.6
			s0.4,0.6,0.6,0.9c0.1,0.4,0.2,0.8,0.2,1.2V34c0,0.3,0,0.5,0,0.8s0,0.5,0.1,0.7h-1.4c-0.1-0.4-0.1-0.7-0.1-1.1h0
			c-0.3,0.4-0.6,0.7-1,0.9s-0.9,0.3-1.5,0.3c-0.3,0-0.6,0-0.9-0.1c-0.3-0.1-0.6-0.2-0.9-0.4s-0.5-0.4-0.7-0.7
			c-0.2-0.3-0.3-0.7-0.3-1.1c0-0.6,0.2-1,0.5-1.4c0.3-0.3,0.7-0.6,1.2-0.8c0.5-0.2,1.1-0.3,1.7-0.3c0.6-0.1,1.3-0.1,1.9-0.1V30.6z
			 M607.7,31.9c-0.4,0-0.8,0-1.2,0c-0.4,0-0.8,0.1-1.1,0.2c-0.3,0.1-0.6,0.2-0.8,0.4c-0.2,0.2-0.3,0.4-0.3,0.8c0,0.2,0,0.4,0.1,0.6
			c0.1,0.2,0.2,0.3,0.4,0.4c0.1,0.1,0.3,0.2,0.5,0.2c0.2,0,0.4,0.1,0.6,0.1c0.7,0,1.2-0.2,1.6-0.6c0.4-0.4,0.6-1,0.6-1.6v-0.4H607.7
			z"/>
		<path fill="#FB8700" d="M613.3,28c0,0.2,0,0.4,0,0.6c0,0.2,0,0.4,0,0.6h0c0.1-0.2,0.2-0.4,0.4-0.6c0.2-0.2,0.4-0.3,0.6-0.5
			c0.2-0.1,0.4-0.2,0.7-0.3c0.3-0.1,0.5-0.1,0.8-0.1c0.5,0,0.9,0.1,1.3,0.2c0.3,0.2,0.6,0.4,0.9,0.7c0.2,0.3,0.4,0.6,0.5,1
			s0.2,0.8,0.2,1.2v4.7h-1.5v-4.2c0-0.3,0-0.6-0.1-0.9c0-0.3-0.1-0.5-0.3-0.7c-0.1-0.2-0.3-0.4-0.5-0.5c-0.2-0.1-0.5-0.2-0.9-0.2
			c-0.6,0-1.1,0.2-1.5,0.7c-0.4,0.5-0.6,1.1-0.6,1.8v4H612v-6c0-0.2,0-0.5,0-0.8s0-0.6,0-0.8H613.3z"/>
		<path fill="#FB8700" d="M624.1,33.9L624.1,33.9l2.1-6h1.6l-3.7,9.4c-0.1,0.3-0.3,0.6-0.4,0.9s-0.3,0.5-0.5,0.6
			c-0.2,0.2-0.4,0.3-0.7,0.4s-0.6,0.1-1,0.1c-0.2,0-0.3,0-0.5,0c-0.2,0-0.3,0-0.5-0.1l0.1-1.3c0.3,0.1,0.5,0.1,0.7,0.1
			c0.4,0,0.7-0.1,0.9-0.3c0.2-0.2,0.4-0.5,0.5-0.9l0.5-1.3l-3.2-7.6h1.7L624.1,33.9z"/>
	</g>
	<g>
		<path d="M388.1,35.9"/>
		<path fill="#FDC600" d="M400.4,42.6c0,1.3-1,2.3-2.2,2.3H394c-1.2,0-2.2-1-2.2-2.3V28.9c0-1.3,1-2.3,2.2-2.3h4.2
			c1.2,0,2.2,1,2.2,2.3V42.6z"/>
		<path d="M399.2,25"/>
		<path d="M400.7,25"/>
		<path fill="#FDC600" d="M423,14.4c0,1.2-1,2.2-2.3,2.2h-7.9c-1.2,0-2.2,1-2.2,2.2V32c0,1.2,1,2.2,2.2,2.2h7.9l0,0
			c1.3,0,2.3,1,2.3,2.2v3.2c0,1.2-1,2.2-2.3,2.2h-15.5c-1.3,0-2.3-1-2.3-2.2V11.3c0-1.3,1.1-2.4,2.4-2.4h15.4c1.3,0,2.3,1,2.3,2.2
			V14.4"/>
		<path fill="#FB8700" d="M423.1,27.8c0,0.5-0.4,0.8-0.8,0.8h-5c-0.5,0-0.8-0.4-0.8-0.8v-4.9c0-0.5,0.4-0.8,0.8-0.8h5
			c0.5,0,0.8,0.4,0.8,0.8V27.8z M426.6,20.4c0-0.9-0.8-1.7-1.7-1.7h-10.2c-0.9,0-1.7,0.8-1.7,1.7v9.9c0,0.9,0.8,1.7,1.7,1.7h10.2
			c0.9,0,1.7-0.8,1.7-1.7V20.4z"/>
		<path fill="#FB8700" d="M392.6,24.5c-1.8,0-3.1,1.4-3.1,3v11.8c0,1.3-1.1,2.4-2.4,2.4h-7.2c-1.3,0-2.4-1.1-2.4-2.4v-28
			c0-1.3,1.1-2.4,2.4-2.4h18c1.3,0,2.4,1.1,2.4,2.4v10.8c0,1.3-1.1,2.4-2.4,2.4C397.9,24.5,392.6,24.5,392.6,24.5z M395.9,15.1
			c-2,0-3.6,1.6-3.6,3.6s1.6,3.6,3.6,3.6s3.6-1.6,3.6-3.6C399.5,16.8,397.9,15.1,395.9,15.1z"/>
		<path fill="#DD0004" d="M398.1,18.7c0,1.2-1,2.2-2.2,2.2s-2.2-1-2.2-2.2s1-2.2,2.2-2.2C397.1,16.6,398.1,17.5,398.1,18.7z"/>
	</g>
</g>
</svg>
