<?xml version="1.0" encoding="utf-8"?>
<!-- Generator: Adobe Illustrator 22.0.1, SVG Export Plug-In . SVG Version: 6.00 Build 0)  -->
<svg version="1.1" id="Layer_1" xmlns="http://www.w3.org/2000/svg" xmlns:xlink="http://www.w3.org/1999/xlink" x="0px" y="0px"
	 width="34px" height="26px" viewBox="0 0 34 26" enable-background="new 0 0 34 26" xml:space="preserve">
<g>
	<path fill="#010101" d="M7.9,18.9"/>
	<path fill="#FDC70D" d="M15.9,23.3c0,0.8-0.7,1.5-1.5,1.5h-2.7c-0.8,0-1.5-0.7-1.5-1.5v-8.9c0-0.8,0.7-1.5,1.5-1.5h2.7
		c0.8,0,1.5,0.7,1.5,1.5V23.3z"/>
	<path fill="#010101" d="M15.1,11.7"/>
	<path fill="#010101" d="M16.1,11.7"/>
	<path fill="#FDC70D" d="M30.7,4.8c0,0.8-0.7,1.4-1.5,1.4H24c-0.8,0-1.4,0.6-1.4,1.4v8.6c0,0.8,0.6,1.4,1.4,1.4h5.2l0,0
		c0.8,0,1.5,0.6,1.5,1.4v2.1c0,0.8-0.7,1.4-1.5,1.4H19.1c-0.8,0-1.5-0.6-1.5-1.4V2.8c0-0.9,0.7-1.6,1.6-1.6h10
		c0.8,0,1.5,0.6,1.5,1.4L30.7,4.8"/>
	<path fill="#F6871F" d="M30.7,13.6c0,0.3-0.3,0.6-0.6,0.6h-3.3c-0.3,0-0.6-0.2-0.6-0.6v-3.2c0-0.3,0.2-0.6,0.6-0.6h3.3
		c0.3,0,0.6,0.2,0.6,0.6V13.6z M33,8.7c0-0.6-0.5-1.1-1.1-1.1h-6.7c-0.6,0-1.1,0.5-1.1,1.1v6.5c0,0.6,0.5,1.1,1.1,1.1h6.7
		c0.6,0,1.1-0.5,1.1-1.1V8.7z"/>
	<path fill="#F6871F" d="M10.9,11.5c-1.2,0-2,0.9-2,1.9l0,7.7c0,0.9-0.7,1.6-1.6,1.6H2.6C1.7,22.7,1,22,1,21.1V2.8
		C1,2,1.7,1.3,2.6,1.3h11.8c0.9,0,1.6,0.7,1.6,1.6v7.1c0,0.9-0.7,1.6-1.6,1.6L10.9,11.5L10.9,11.5z M13,5.3c-1.3,0-2.3,1-2.3,2.3
		s1,2.3,2.3,2.3s2.3-1,2.3-2.3C15.3,6.4,14.3,5.3,13,5.3z"/>
	<path fill="#DB1F26" d="M14.4,7.7c0,0.8-0.6,1.4-1.4,1.4c-0.8,0-1.4-0.6-1.4-1.4c0-0.8,0.6-1.4,1.4-1.4C13.8,6.3,14.4,6.9,14.4,7.7
		z"/>
</g>
</svg>
