<?xml version="1.0" encoding="utf-8"?>
<!-- Generator: Adobe Illustrator 21.1.0, SVG Export Plug-In . SVG Version: 6.00 Build 0)  -->
<svg version="1.1" id="Layer_1" xmlns="http://www.w3.org/2000/svg" xmlns:xlink="http://www.w3.org/1999/xlink" x="0px" y="0px"
	 width="24px" height="24px" viewBox="0 0 24 24" enable-background="new 0 0 24 24" xml:space="preserve">
<g>
	<path fill="#B4B4B5" d="M4.2,19.4c0,2.6,2.6,2.5,3.5,1.9L19.9,14c0.5-0.3,0.9-0.9,0.9-1.6c0-0.6-0.4-1.3-0.9-1.6L7.8,3.4
		c-1-0.6-3.5-1-3.5,1.9C4.2,5.2,4.2,19.4,4.2,19.4z"/>
	<path fill="#FFFFFF" stroke="#B4B4B5" stroke-width="0.5" stroke-miterlimit="10" stroke-opacity="0.75" d="M4.2,18.9
		c0,2.6,2.6,2.5,3.5,1.9l12.1-7.2c0.5-0.3,0.9-0.9,0.9-1.6c0-0.6-0.4-1.3-0.9-1.6l-12-7.6c-1-0.6-3.5-1-3.5,1.9
		C4.2,4.7,4.2,18.9,4.2,18.9z"/>
</g>
</svg>
