<?xml version="1.0" encoding="utf-8"?>
<!-- Generator: Adobe Illustrator 22.0.1, SVG Export Plug-In . SVG Version: 6.00 Build 0)  -->
<svg version="1.1" id="Icon" xmlns="http://www.w3.org/2000/svg" xmlns:xlink="http://www.w3.org/1999/xlink" x="0px" y="0px"
	 width="40px" height="40px" viewBox="0 0 40 40" enable-background="new 0 0 40 40" xml:space="preserve">
<title>event_broadcast_coral</title>
<path fill="#FF839E" d="M35.8,30.5H11.1c-1,0-1.8-0.8-1.8-1.7c0,0,0,0,0,0l0.1-17.3c0-1,0.8-1.7,1.8-1.7h24.5c1,0,1.8,0.8,1.8,1.8
	v17.3C37.5,29.7,36.7,30.5,35.8,30.5z"/>
<polyline fill="none" stroke="#BF5668" stroke-linecap="round" stroke-linejoin="round" points="10.4,29.6 23.5,18.7 36.6,29.6 "/>
<g opacity="0.1">
	<path fill="#231F20" d="M37.9,12.8L26,25.1c-1.3,1.4-3.5,1.4-4.9,0.1c0,0-0.1-0.1-0.1-0.1L9.1,12.8C9,12.7,8.9,12.4,9,12.3
		C9.1,12.1,9.3,12,9.5,12h28c0.2,0,0.4,0.1,0.5,0.3C38,12.5,38,12.7,37.9,12.8z"/>
</g>
<path fill="#FF839E" stroke="#BF5668" stroke-linecap="round" stroke-linejoin="round" d="M37.5,11.5L25.5,21.8c-1.1,1-2.8,1-3.9,0
	L9.5,11.5"/>
<line fill="none" stroke="#FFFFFF" stroke-width="1.5" stroke-linecap="round" stroke-linejoin="round" x1="7" y1="12" x2="4.5" y2="12"/>
<line fill="none" stroke="#FFFFFF" stroke-width="1.5" stroke-linecap="round" stroke-linejoin="round" x1="7" y1="20" x2="4.5" y2="20"/>
<line fill="none" stroke="#FFFFFF" stroke-width="1.5" stroke-linecap="round" stroke-linejoin="round" x1="7" y1="28" x2="4.5" y2="28"/>
<line fill="none" stroke="#FFFFFF" stroke-width="1.5" stroke-linecap="round" stroke-linejoin="round" x1="7" y1="24" x2="1" y2="24"/>
<line fill="none" stroke="#FFFFFF" stroke-width="1.5" stroke-linecap="round" stroke-linejoin="round" x1="7" y1="16" x2="1" y2="16"/>
<path fill="none" stroke="#BF5668" stroke-linecap="round" stroke-linejoin="round" d="M35.8,30.5H11.1c-1,0-1.8-0.8-1.8-1.7
	c0,0,0,0,0,0l0.1-17.3c0-1,0.8-1.7,1.8-1.7h24.5c1,0,1.8,0.8,1.8,1.8v17.3C37.5,29.7,36.7,30.5,35.8,30.5z"/>
</svg>
