<?xml version="1.0" encoding="utf-8"?>
<!-- Generator: Adobe Illustrator 22.0.1, SVG Export Plug-In . SVG Version: 6.00 Build 0)  -->
<svg version="1.1" id="Icon" xmlns="http://www.w3.org/2000/svg" xmlns:xlink="http://www.w3.org/1999/xlink" x="0px" y="0px"
	 width="40px" height="40px" viewBox="0 0 40 40" enable-background="new 0 0 40 40" xml:space="preserve">
<title>LetterGet_Coral</title>
<path fill="#FF839E" stroke="#BF5668" stroke-linecap="round" stroke-linejoin="round" d="M34,36H5.9c-1.1,0-2-0.9-2-2L4,17
	c0-0.6,0.3-1.2,0.8-1.6l14-10.5c0.7-0.5,1.7-0.5,2.4,0l14,10.5c0.5,0.4,0.8,1,0.8,1.6v17C36,35.1,35.1,36,34,36z"/>
<path fill="#F9F8FF" stroke="#BF5668" stroke-linecap="round" stroke-linejoin="round" d="M10,8h20c1.1,0,2,0.9,2,2v16
	c0,1.1-0.9,2-2,2H10c-1.1,0-2-0.9-2-2V10C8,8.9,8.9,8,10,8z"/>
<g opacity="0.1">
	<path fill="#231F20" d="M36.5,17v1c0,0.2-0.1,0.3-0.2,0.4l-14.9,9.3c-0.4,0.3-0.9,0.4-1.3,0.4c-0.5,0-0.9-0.1-1.3-0.4l-15-9.4
		c-0.1-0.1-0.2-0.3-0.2-0.4v-1.2c0.1-0.7,0.4-1.3,1-1.8l0.7-0.5c0.2-0.1,0.4-0.1,0.6,0l11.3,7l1.5-1.1c0.9-0.7,2.1-0.7,3,0l1.5,1.1
		l11.3-7.1c0.2-0.1,0.4-0.1,0.6,0l0.6,0.5C36.1,15.5,36.5,16.2,36.5,17z"/>
</g>
<path fill="#FF839E" stroke="#BF5668" stroke-linecap="round" stroke-linejoin="round" d="M36,18l-14.9,9.3c-0.6,0.4-1.5,0.4-2.1,0
	L4,18v16c0,1.1,0.9,2,2,2h28c1.1,0,2-0.9,2-2V18z"/>
<path fill="#FF839E" stroke="#BF5668" stroke-linecap="round" stroke-linejoin="round" d="M4.9,35l13.9-10.1c0.7-0.5,1.7-0.5,2.4,0
	L35,35"/>
<line fill="none" stroke="#FFFFFF" stroke-width="1.5" stroke-linecap="round" stroke-linejoin="round" x1="11.8" y1="4.1" x2="10.1" y2="1"/>
<line fill="none" stroke="#FFFFFF" stroke-width="1.5" stroke-linecap="round" stroke-linejoin="round" x1="5.3" y1="11" x2="2" y2="8.6"/>
<line fill="none" stroke="#FFFFFF" stroke-width="1.5" stroke-linecap="round" stroke-linejoin="round" x1="28.2" y1="4.1" x2="29.8" y2="1"/>
<line fill="none" stroke="#FFFFFF" stroke-width="1.5" stroke-linecap="round" stroke-linejoin="round" x1="34.7" y1="11" x2="37.9" y2="8.6"/>
</svg>
