<?xml version="1.0" encoding="utf-8"?>
<!-- Generator: Adobe Illustrator 21.1.0, SVG Export Plug-In . SVG Version: 6.00 Build 0)  -->
<svg version="1.1" id="Layer_1" xmlns="http://www.w3.org/2000/svg" xmlns:xlink="http://www.w3.org/1999/xlink" x="0px" y="0px"
	 width="32px" height="32px" viewBox="0 0 32 32" enable-background="new 0 0 32 32" xml:space="preserve">
<path fill="#FFFFFF" d="M0,0l31.8,0L0,32L0,0z M4.9,14.5h4.4c0.8,0,1.5-0.3,2.1-0.9c0.6-0.5,0.8-1.3,0.9-2.2c0-0.6-0.1-1.1-0.4-1.6
	c-0.3-0.5-0.7-0.8-1.3-0.9v0c0.3-0.1,0.6-0.3,0.8-0.5c0.2-0.2,0.4-0.4,0.5-0.6C12,7.4,12.2,7,12.1,6.5c0-0.9-0.3-1.6-0.8-2.1
	C10.8,3.9,10.1,3.6,9,3.6H4.9V14.5z M8.8,5.1c0.6,0,1,0.2,1.3,0.4c0.3,0.3,0.4,0.7,0.4,1.1c0,0.4-0.1,0.8-0.4,1.1
	C9.8,8,9.4,8.2,8.8,8.2H6.5V5.1H8.8z M9,9.7c0.6,0,1,0.2,1.3,0.5c0.3,0.3,0.4,0.7,0.4,1.2c0,0.4-0.1,0.8-0.4,1.1
	C10,12.8,9.6,12.9,9,12.9H6.5V9.7H9z"/>
</svg>
