<?xml version="1.0" encoding="utf-8"?>
<!-- Generator: Adobe Illustrator 21.1.0, SVG Export Plug-In . SVG Version: 6.00 Build 0)  -->
<svg version="1.1" id="Layer_2" xmlns="http://www.w3.org/2000/svg" xmlns:xlink="http://www.w3.org/1999/xlink" x="0px" y="0px"
	 width="51px" height="44px" viewBox="0 0 51 44" style="enable-background:new 0 0 51 44;" xml:space="preserve">
<style type="text/css">
	.st0{fill:#FFFFFF;}
</style>
<path class="st0" d="M23.8,18.1v4.3h3.3v-4.3c2.9-0.5,5-2.3,5-4.4c0-2.5-3-4.6-6.7-4.6c-3.7,0-6.7,2.1-6.7,4.6
	C18.8,15.8,21,17.6,23.8,18.1z M33,19.9h-4.2c0,0.8,0,1.6,0,1.7v2.5h-6.7v-2.5c0,0,0-0.9,0-1.7H18c-1.7,0-4.2,1.7-4.2,4.2v1.7v5.8
	h23.4v-5.8v-1.7C37.2,21.6,34.7,19.9,33,19.9z M15.5,32.4v0.8c0,0.6,1,1.7,1.7,1.7h7.5h9.2c0.6,0,1.7-1.1,1.7-1.7v-0.8H24.7H15.5z"
	/>
</svg>
