<?xml version="1.0" encoding="utf-8"?>
<!-- Generator: Adobe Illustrator 22.0.1, SVG Export Plug-In . SVG Version: 6.00 Build 0)  -->
<svg version="1.1" id="Layer_2_1_" xmlns="http://www.w3.org/2000/svg" xmlns:xlink="http://www.w3.org/1999/xlink" x="0px" y="0px"
	 width="51px" height="44px" viewBox="0 0 51 44" enable-background="new 0 0 51 44" xml:space="preserve">
<g>
	<circle fill="#FFFFFF" stroke="#60ABCC" stroke-miterlimit="10" cx="25.5" cy="22" r="20.3"/>
	<g>
		<g>
			<path fill="#52ADE1" d="M23.8,16.3v4.3h3.3v-4.3c2.9-0.5,5-2.3,5-4.4c0-2.5-3-4.6-6.7-4.6s-6.7,2.1-6.7,4.6
				C18.8,14,21,15.8,23.8,16.3z"/>
			<path fill="#52ADE1" d="M33,18.1h-4.2c0,0.8,0,1.6,0,1.7v2.5h-6.7v-2.5c0,0,0-0.9,0-1.7H18c-1.7,0-4.2,1.7-4.2,4.2V24v5.8h23.4
				V24v-1.7C37.2,19.7,34.7,18.1,33,18.1z"/>
			<path fill="#52ADE1" d="M15.5,30.6v0.8c0,0.6,1,1.7,1.7,1.7h7.5h9.2c0.6,0,1.7-1.1,1.7-1.7v-0.8H24.7
				C24.7,30.6,15.5,30.6,15.5,30.6z"/>
		</g>
	</g>
</g>
</svg>
