<?xml version="1.0" encoding="utf-8"?>
<!-- Generator: Adobe Illustrator 22.0.1, SVG Export Plug-In . SVG Version: 6.00 Build 0)  -->
<svg version="1.1" id="Layer_2_1_" xmlns="http://www.w3.org/2000/svg" xmlns:xlink="http://www.w3.org/1999/xlink" x="0px" y="0px"
	 width="51px" height="44px" viewBox="0 0 51 44" enable-background="new 0 0 51 44" xml:space="preserve">
<g>
	<circle fill="#FFFFFF" stroke="#60ABCC" stroke-miterlimit="10" cx="25.5" cy="22" r="20.3"/>
	<g>
		<g>
			<path fill="#3BB2F7" d="M17.6,32.7c-1.3-1.5-2.9-4-3.7-7c-1-3.9-0.3-8.1,1.8-10.9c1.8-2.4,4.4-3.6,7.6-3.7
				c4.6-0.1,7.7,2.2,9.6,4.2l0.2,0.3l2-2c0.3-0.3,0.7-0.3,1-0.2s0.6,0.5,0.6,0.8l0.7,9.6c0,0.3-0.1,0.6-0.3,0.8
				c-0.2,0.2-0.5,0.3-0.8,0.3l-9.5-1c-0.4,0-0.7-0.3-0.8-0.6c-0.1-0.4,0-0.7,0.2-1l1.8-1.8l0.1-0.5c-1.2-1.4-3.1-3.1-5.5-2.9
				c-1.5,0.1-2.9,1.1-3.9,2.6c-1,1.6-2.2,5.4,0.5,11.9c0.2,0.4,0,0.9-0.4,1.2C18.6,33,18.5,33,18.3,33C18,33,17.7,32.9,17.6,32.7z"
				/>
		</g>
	</g>
</g>
</svg>
