<?xml version="1.0" encoding="utf-8"?>
<!-- Generator: Adobe Illustrator 22.0.1, SVG Export Plug-In . SVG Version: 6.00 Build 0)  -->
<svg version="1.1" id="Layer_2_1_" xmlns="http://www.w3.org/2000/svg" xmlns:xlink="http://www.w3.org/1999/xlink" x="0px" y="0px"
	 width="51px" height="44px" viewBox="0 0 51 44" enable-background="new 0 0 51 44" xml:space="preserve">
<circle fill="#FFFFFF" stroke="#60ABCC" stroke-miterlimit="10" cx="25.5" cy="22" r="20.3"/>
<g>
	<g>
		<g>
			<g>
				<path fill="#52ADE1" d="M26.2,20.8l15.5,6.9l-3.9,0.7l-11.7-4.8L23,22c0,0-2.1-1.8-3.1-2.1c-1-0.3-4.1-0.8-5.1-0.9
					s-2.3-0.3-3.1-1.8c-0.8-1.4-0.4-2.4,0-3.2s1.2-1.6,2.1-2c1.2-0.5,2.2-0.6,3.8-0.2c1.7,0.3,2.9,2.4,2.9,2.4s2.7,4.2,3.5,4.8
					C24.8,19.7,26.2,20.8,26.2,20.8z M16.8,13.6c-1.4-0.4-2.8,0.1-3.1,1.1c-0.3,1.1,0.5,2.2,1.9,2.7c1.4,0.4,2.8-0.1,3.1-1.1
					C19,15.2,18.2,14,16.8,13.6z"/>
				<path fill="#52ADE1" d="M24,24.9c-0.8,0.6-3.5,4.8-3.5,4.8s-1.3,2-2.9,2.4c-1.6,0.3-2.6,0.3-3.8-0.2c-0.9-0.4-1.7-1.2-2.1-2
					s-0.7-1.7,0-3.2c0.8-1.4,2.1-1.7,3.1-1.8c1-0.1,4.1-0.6,5.1-0.9s3.1-2.1,3.1-2.1l3.1-1.5l11.7-4.8l3.9,0.7l-15.5,6.9
					C26.2,23.2,24.8,24.3,24,24.9z M18.7,27.8c-0.3-1.1-1.7-1.6-3.1-1.1s-2.2,1.6-1.9,2.7s1.7,1.6,3.1,1.1S19,28.8,18.7,27.8z"/>
			</g>
		</g>
	</g>
</g>
</svg>
