<?xml version="1.0" encoding="utf-8"?>
<!-- Generator: Adobe Illustrator 22.0.1, SVG Export Plug-In . SVG Version: 6.00 Build 0)  -->
<svg version="1.1" id="Layer_2_1_" xmlns="http://www.w3.org/2000/svg" xmlns:xlink="http://www.w3.org/1999/xlink" x="0px" y="0px"
	 width="51px" height="44px" viewBox="0 0 51 44" enable-background="new 0 0 51 44" xml:space="preserve">
<g>
	<circle fill="#FFFFFF" stroke="#60ABCC" stroke-miterlimit="10" cx="25.5" cy="22" r="20.3"/>
	<path fill="#3BB2F7" d="M32.7,33c-0.2,0-0.3,0-0.5-0.1c-0.4-0.2-0.6-0.8-0.4-1.2c2.7-6.6,1.5-10.3,0.5-11.9
		c-0.9-1.5-2.3-2.5-3.9-2.6c-2.4-0.2-4.3,1.5-5.5,2.9l-0.2,0.2l1.8,1.8c0.3,0.3,0.4,0.6,0.2,1c-0.1,0.4-0.4,0.6-0.8,0.6l-9.5,1
		c-0.3,0-0.6-0.1-0.8-0.3c-0.2-0.2-0.3-0.5-0.3-0.8L14,14c0-0.4,0.3-0.7,0.6-0.8s0.7-0.1,1,0.2l2,2l0.2-0.3c1.8-2,5-4.3,9.6-4.2
		c3.2,0.1,5.9,1.4,7.6,3.7c2.1,2.8,2.8,7,1.8,10.9c-0.8,3-2.4,5.5-3.7,7C33.3,32.9,33,33,32.7,33z"/>
</g>
</svg>
