<?xml version="1.0" encoding="utf-8"?>
<!-- Generator: Adobe Illustrator 15.0.0, SVG Export Plug-In . SVG Version: 6.00 Build 0)  -->
<!DOCTYPE svg PUBLIC "-//W3C//DTD SVG 1.1//EN" "http://www.w3.org/Graphics/SVG/1.1/DTD/svg11.dtd">
<svg version="1.1" id="Layer_2" xmlns="http://www.w3.org/2000/svg" xmlns:xlink="http://www.w3.org/1999/xlink" x="0px" y="0px"
	 width="44px" height="44px" viewBox="0 0 44 44" enable-background="new 0 0 44 44" xml:space="preserve">
<g id="Layer_7">
	<g>
		<path fill="#D37E37" stroke="#D37E37" stroke-width="0.3703" stroke-linejoin="round" stroke-miterlimit="10" d="M37,13.789V38.79
			c0,1.655-1.343,3-3,3H11c-1.656,0-3-1.345-3-3V13.789c0-1.657,1.344-3,3-3h2.939l-0.782,1.006
			c-0.349,0.449-0.412,1.068-0.162,1.579s0.778,0.841,1.349,0.841h16c0.567,0,1.098-0.33,1.348-0.84
			c0.25-0.512,0.188-1.131-0.163-1.58l-0.779-1.006h3.252C35.657,10.789,37,12.132,37,13.789z M30.793,12.935
			c-0.086,0.173-0.259,0.279-0.449,0.279h-16c-0.189,0-0.366-0.109-0.448-0.28c-0.084-0.17-0.062-0.376,0.053-0.525l3.371-4.342
			l0.111-0.233l-0.013-0.189c-0.007-0.072-0.013-0.145-0.013-0.217c0-2.36,1.687-4.395,4.006-4.835
			c0.32-0.062,0.621-0.091,0.923-0.091c0.309,0,0.625,0.031,0.938,0.093c2.31,0.449,3.984,2.481,3.984,4.832
			c0,0.062-0.006,0.125-0.017,0.28l-0.011,0.188l3.507,4.517C30.855,12.558,30.877,12.764,30.793,12.935z M24.758,7.426
			c0-1.337-1.088-2.425-2.426-2.425c-1.339,0-2.427,1.088-2.427,2.425c0,1.338,1.088,2.426,2.427,2.426
			C23.67,9.852,24.758,8.764,24.758,7.426z"/>
		<path fill="#FFFFFF" stroke="#D37E37" stroke-width="0.3703" stroke-linejoin="round" stroke-miterlimit="10" d="M36,12.789V37.79
			c0,1.655-1.343,3-3,3H10c-1.656,0-3-1.345-3-3V12.789c0-1.657,1.344-3,3-3h2.939l-0.782,1.006
			c-0.349,0.449-0.412,1.068-0.162,1.579s0.778,0.841,1.349,0.841h16c0.567,0,1.098-0.33,1.348-0.84
			c0.25-0.512,0.188-1.131-0.163-1.58l-0.779-1.006h3.252C34.657,9.789,36,11.132,36,12.789z M29.793,11.935
			c-0.086,0.173-0.259,0.279-0.449,0.279h-16c-0.189,0-0.366-0.109-0.448-0.28c-0.084-0.17-0.062-0.376,0.053-0.525l3.371-4.342
			l0.111-0.233l-0.013-0.189c-0.007-0.072-0.013-0.145-0.013-0.217c0-2.36,1.687-4.395,4.006-4.835
			c0.32-0.062,0.621-0.091,0.923-0.091c0.309,0,0.625,0.031,0.938,0.093c2.31,0.449,3.984,2.481,3.984,4.832
			c0,0.062-0.006,0.125-0.017,0.28l-0.011,0.188l3.507,4.517C29.855,11.558,29.877,11.764,29.793,11.935z M23.758,6.426
			c0-1.337-1.088-2.425-2.426-2.425c-1.339,0-2.427,1.088-2.427,2.425c0,1.338,1.088,2.426,2.427,2.426
			C22.67,8.852,23.758,7.764,23.758,6.426z"/>
		<g>
			<g id="arrow_3_">
				<path fill="none" stroke="#D37E37" stroke-width="2.5" stroke-miterlimit="10" d="M21.522,25.042l4.934,4.937
					c0.73,0.729,2.008,0.73,2.74,0c0.365-0.367,0.567-0.854,0.567-1.373c0-0.521-0.201-1.006-0.567-1.371l-6.303-6.307
					c-0.692-0.691-2.056-0.69-2.744,0l-6.304,6.307c-0.366,0.365-0.567,0.852-0.567,1.369c0,0.521,0.202,1.008,0.567,1.373
					c0.69,0.688,2.053,0.688,2.742,0L21.522,25.042z"/>
				<path fill="none" stroke="#D37E37" stroke-width="2.5" stroke-miterlimit="10" d="M21.522,21.163
					c-1.071,0-1.939,0.87-1.939,1.938v17.459c0,1.067,0.868,1.938,1.939,1.938c1.067,0,1.938-0.871,1.938-1.938V23.104
					C23.459,22.033,22.59,21.163,21.522,21.163z"/>
			</g>
			<g id="arrow_2_">
				<path fill="#FFFFFF" d="M21.522,25.042l4.934,4.937c0.73,0.729,2.008,0.73,2.74,0c0.365-0.367,0.567-0.854,0.567-1.373
					c0-0.521-0.201-1.006-0.567-1.371l-6.303-6.307c-0.692-0.691-2.056-0.69-2.744,0l-6.304,6.307
					c-0.366,0.365-0.567,0.852-0.567,1.369c0,0.521,0.202,1.008,0.567,1.373c0.69,0.688,2.053,0.688,2.742,0L21.522,25.042z"/>
				<path fill="#FFFFFF" d="M21.522,21.163c-1.071,0-1.939,0.87-1.939,1.938v17.459c0,1.067,0.868,1.938,1.939,1.938
					c1.067,0,1.938-0.871,1.938-1.938V23.104C23.459,22.033,22.59,21.163,21.522,21.163z"/>
			</g>
		</g>
	</g>
</g>
</svg>
