<?xml version="1.0" encoding="utf-8"?>
<!-- Generator: Adobe Illustrator 21.1.0, SVG Export Plug-In . SVG Version: 6.00 Build 0)  -->
<svg version="1.1" id="Layer_1" xmlns="http://www.w3.org/2000/svg" xmlns:xlink="http://www.w3.org/1999/xlink" x="0px" y="0px"
	 width="44px" height="44px" viewBox="0 0 44 44" style="enable-background:new 0 0 44 44;" xml:space="preserve">
<style type="text/css">
	.st0{fill:#FFFFFF;}
</style>
<g id="Layer_1_1_">
	<path class="st0" d="M35.2,15v18c0,3.7-3,6.8-6.8,6.8H15c-3.7,0-6.8-3-6.8-6.8V15C7,15,6,14,6,12.8c0-1.2,1-2.2,2.2-2.2H15l0,0
		c0-3.7,3-6.8,6.8-6.8c3.7,0,6.8,3,6.8,6.8l0,0h6.8c1.2,0,2.2,1,2.2,2.2C37.5,14,36.5,15,35.2,15z M21.8,8.2c-1.2,0-2.2,1-2.2,2.2
		H24C24,9.3,23,8.2,21.8,8.2z M12.8,15v18c0,1.2,1,2.2,2.2,2.2h13.5c1.2,0,2.2-1,2.2-2.2V15H12.8z M25.1,30.8
		c-0.6,0-1.1-0.5-1.1-1.1v-9c0-0.6,0.5-1.1,1.1-1.1c0.6,0,1.1,0.5,1.1,1.1v9C26.2,30.2,25.7,30.8,25.1,30.8z M18.4,30.8
		c-0.6,0-1.1-0.5-1.1-1.1v-9c0-0.6,0.5-1.1,1.1-1.1s1.1,0.5,1.1,1.1v9C19.5,30.2,19,30.8,18.4,30.8z"/>
</g>
</svg>
