<?xml version="1.0" encoding="utf-8"?>
<!-- Generator: Adobe Illustrator 15.0.0, SVG Export Plug-In . SVG Version: 6.00 Build 0)  -->
<!DOCTYPE svg PUBLIC "-//W3C//DTD SVG 1.1//EN" "http://www.w3.org/Graphics/SVG/1.1/DTD/svg11.dtd">
<svg version="1.1" id="Layer_1" xmlns="http://www.w3.org/2000/svg" xmlns:xlink="http://www.w3.org/1999/xlink" x="0px" y="0px"
	 width="44px" height="44px" viewBox="0 0 44 44" enable-background="new 0 0 44 44" xml:space="preserve">
<g id="Layer_7">
	<g>
		<path fill="#D37E37" stroke="#D37E37" stroke-width="0.3703" stroke-linejoin="round" stroke-miterlimit="10" d="M38,12.663
			v25.001c0,1.656-1.342,3-3,3H12c-1.656,0-3-1.344-3-3V12.663c0-1.657,1.344-3,3-3h2.939l-0.782,1.006
			c-0.349,0.449-0.412,1.068-0.162,1.579c0.25,0.511,0.778,0.841,1.349,0.841h16c0.568,0,1.098-0.33,1.348-0.84
			c0.25-0.512,0.189-1.131-0.162-1.58L31.75,9.663h3.252C36.658,9.663,38,11.006,38,12.663z M31.793,11.809
			c-0.086,0.173-0.258,0.279-0.449,0.279h-16c-0.189,0-0.366-0.109-0.448-0.28c-0.084-0.17-0.062-0.376,0.053-0.525l3.371-4.342
			l0.111-0.233l-0.013-0.189c-0.007-0.072-0.013-0.145-0.013-0.217c0-2.36,1.687-4.396,4.006-4.835
			c0.319-0.062,0.622-0.091,0.922-0.091c0.31,0,0.625,0.031,0.938,0.093c2.311,0.449,3.982,2.481,3.982,4.832
			c0,0.062-0.006,0.125-0.02,0.28l-0.01,0.188l3.506,4.517C31.855,11.432,31.877,11.638,31.793,11.809z M25.758,6.3
			c0-1.337-1.088-2.425-2.426-2.425S20.905,4.963,20.905,6.3c0,1.338,1.088,2.426,2.427,2.426S25.758,7.638,25.758,6.3z"/>
		<path fill="#FFFFFF" stroke="#D37E37" stroke-width="0.3703" stroke-linejoin="round" stroke-miterlimit="10" d="M37,11.663
			v25.001c0,1.656-1.342,3-3,3H11c-1.656,0-3-1.344-3-3V11.663c0-1.657,1.344-3,3-3h2.939l-0.782,1.006
			c-0.349,0.449-0.412,1.068-0.162,1.579c0.25,0.511,0.778,0.841,1.349,0.841h16c0.568,0,1.098-0.33,1.348-0.84
			c0.25-0.512,0.189-1.131-0.162-1.58L30.75,8.663h3.252C35.658,8.663,37,10.006,37,11.663z M30.793,10.809
			c-0.086,0.173-0.258,0.279-0.449,0.279h-16c-0.189,0-0.366-0.109-0.448-0.28c-0.084-0.17-0.062-0.376,0.053-0.525l3.371-4.342
			l0.111-0.233l-0.013-0.189c-0.007-0.072-0.013-0.145-0.013-0.217c0-2.36,1.687-4.396,4.006-4.835
			c0.319-0.062,0.621-0.091,0.923-0.091c0.309,0,0.625,0.031,0.938,0.093c2.312,0.449,3.984,2.481,3.984,4.832
			c0,0.062-0.006,0.125-0.018,0.28l-0.01,0.188l3.506,4.517C30.855,10.432,30.877,10.638,30.793,10.809z M24.758,5.3
			c0-1.337-1.088-2.425-2.426-2.425c-1.339,0-2.427,1.088-2.427,2.425c0,1.338,1.088,2.426,2.427,2.426
			C23.67,7.726,24.758,6.638,24.758,5.3z"/>
		<g>
			<g id="arrow_3_">
				<path fill="none" stroke="#D37E37" stroke-width="2.5" stroke-miterlimit="10" d="M17.587,32.807
					c-0.689-0.688-2.052-0.688-2.742,0c-0.365,0.365-0.567,0.854-0.567,1.373c0,0.518,0.201,1.004,0.567,1.369l6.304,6.307
					c0.688,0.69,2.052,0.691,2.744,0l6.303-6.307c0.367-0.365,0.568-0.85,0.568-1.371c0-0.52-0.203-1.006-0.568-1.373
					c-0.729-0.729-2.01-0.729-2.736,0l-4.938,4.938L17.587,32.807z"/>
				<path fill="none" stroke="#D37E37" stroke-width="2.5" stroke-miterlimit="10" d="M24.461,39.68V22.222
					c0-1.066-0.871-1.938-1.939-1.938s-1.938,0.871-1.938,1.938v17.459c0,1.066,0.868,1.938,1.938,1.938
					C23.59,41.621,24.459,40.75,24.461,39.68z"/>
			</g>
			<g id="arrow_2_">
				<path fill="#FFFFFF" d="M17.587,32.807c-0.689-0.688-2.052-0.688-2.742,0c-0.365,0.365-0.567,0.854-0.567,1.373
					c0,0.518,0.201,1.004,0.567,1.369l6.304,6.307c0.688,0.69,2.052,0.691,2.744,0l6.303-6.307c0.367-0.365,0.568-0.85,0.568-1.371
					c0-0.52-0.203-1.006-0.568-1.373c-0.729-0.729-2.01-0.729-2.736,0l-4.938,4.938L17.587,32.807z"/>
				<path fill="#FFFFFF" d="M24.461,39.68V22.222c0-1.066-0.871-1.938-1.939-1.938s-1.938,0.871-1.938,1.938v17.459
					c0,1.066,0.868,1.938,1.938,1.938C23.59,41.621,24.459,40.75,24.461,39.68z"/>
			</g>
		</g>
	</g>
</g>
</svg>
