<?xml version="1.0" encoding="utf-8"?>
<!-- Generator: Adobe Illustrator 21.1.0, SVG Export Plug-In . SVG Version: 6.00 Build 0)  -->
<svg version="1.1" id="Layer_1" xmlns="http://www.w3.org/2000/svg" xmlns:xlink="http://www.w3.org/1999/xlink" x="0px" y="0px"
	 width="44px" height="44px" viewBox="0 0 44 44" style="enable-background:new 0 0 44 44;" xml:space="preserve">
<style type="text/css">
	.st0{fill:#FFFFFF;}
</style>
<g>
	<g>
		<g>
			<path class="st0" d="M26.2,24.8c0,2.3-1.9,4.2-4.2,4.2c-2.3,0-4.2-1.9-4.2-4.2c0-2.3,1.9-4.2,4.2-4.2
				C24.3,20.6,26.2,22.5,26.2,24.8z"/>
			<path class="st0" d="M27.5,13.3L26,7.5h-8.4l-1.3,5.8h-1.6V12c0-1-0.6-1.8-1.2-1.8H7.8c-0.7,0-1.2,0.8-1.2,1.8v1.3H4.4v23.2h35.2
				V13.3H27.5z M22,31.8c-3.9,0-7-3.1-7-7c0-3.9,3.1-7,7-7c3.9,0,7,3.1,7,7C29,28.7,25.9,31.8,22,31.8z M34.4,20.3
				c-1.2,0-2.1-1-2.1-2.1c0-1.2,1-2.1,2.1-2.1c1.2,0,2.1,1,2.1,2.1C36.6,19.3,35.6,20.3,34.4,20.3z"/>
		</g>
	</g>
</g>
</svg>
