<?xml version="1.0" encoding="utf-8"?>
<!-- Generator: Adobe Illustrator 21.1.0, SVG Export Plug-In . SVG Version: 6.00 Build 0)  -->
<svg version="1.1" id="Layer_2" xmlns="http://www.w3.org/2000/svg" xmlns:xlink="http://www.w3.org/1999/xlink" x="0px" y="0px"
	 width="51px" height="44px" viewBox="0 0 51 44" style="enable-background:new 0 0 51 44;" xml:space="preserve">
<style type="text/css">
	.st0{fill:#FFFFFF;stroke:#5EBFCC;stroke-miterlimit:10;}
	.st1{fill:#69D2E7;}
</style>
<g>
	<circle class="st0" cx="25.5" cy="22" r="20.3"/>
	<g>
		<g>
			<path class="st1" d="M23.8,16.3v4.3h3.3v-4.3c2.9-0.5,5-2.3,5-4.4c0-2.5-3-4.6-6.7-4.6c-3.7,0-6.7,2.1-6.7,4.6
				C18.8,14,21,15.8,23.8,16.3z"/>
			<path class="st1" d="M33,18.1h-4.2c0,0.8,0,1.6,0,1.7v2.5h-6.7v-2.5c0,0,0-0.9,0-1.7H18c-1.7,0-4.2,1.7-4.2,4.2v1.7v5.8h23.4
				v-5.8v-1.7C37.2,19.7,34.7,18.1,33,18.1z"/>
			<path class="st1" d="M15.5,30.6v0.8c0,0.6,1,1.7,1.7,1.7h7.5h9.2c0.6,0,1.7-1.1,1.7-1.7v-0.8H24.7H15.5z"/>
		</g>
	</g>
</g>
</svg>
