<?xml version="1.0" encoding="utf-8"?>
<!-- Generator: Adobe Illustrator 21.1.0, SVG Export Plug-In . SVG Version: 6.00 Build 0)  -->
<svg version="1.1" id="Layer_2" xmlns="http://www.w3.org/2000/svg" xmlns:xlink="http://www.w3.org/1999/xlink" x="0px" y="0px"
	 width="51px" height="44px" viewBox="0 0 51 44" style="enable-background:new 0 0 51 44;" xml:space="preserve">
<style type="text/css">
	.st0{fill:#FFFFFF;}
</style>
<g>
	<g>
		<g>
			<path class="st0" d="M17.6,32.7c-1.3-1.5-2.9-4-3.7-7c-1-3.9-0.3-8.1,1.8-10.9c1.8-2.4,4.4-3.6,7.6-3.7c4.6-0.1,7.7,2.2,9.6,4.2
				l0.2,0.3l2-2c0.3-0.3,0.7-0.3,1-0.2c0.3,0.1,0.6,0.5,0.6,0.8l0.7,9.6c0,0.3-0.1,0.6-0.3,0.8c-0.2,0.2-0.5,0.3-0.8,0.3l-9.5-1
				c-0.4,0-0.7-0.3-0.8-0.6c-0.1-0.4,0-0.7,0.2-1l1.8-1.8L28.1,20c-1.2-1.4-3.1-3.1-5.5-2.9c-1.5,0.1-2.9,1.1-3.9,2.6
				c-1,1.6-2.2,5.4,0.5,11.9c0.2,0.4,0,0.9-0.4,1.2C18.6,33,18.5,33,18.3,33C18,33,17.7,32.9,17.6,32.7z"/>
		</g>
	</g>
</g>
</svg>
