<?xml version="1.0" encoding="utf-8"?>
<!-- Generator: Adobe Illustrator 22.0.1, SVG Export Plug-In . SVG Version: 6.00 Build 0)  -->
<svg version="1.1" id="Layer_1" xmlns="http://www.w3.org/2000/svg" xmlns:xlink="http://www.w3.org/1999/xlink" x="0px" y="0px"
	 width="48px" height="48px" viewBox="0 0 48 48" enable-background="new 0 0 48 48" xml:space="preserve">
<path opacity="0.17" d="M23.6,15.4c0.3-0.4,0.5-0.7,0.7-1.1c1.3-1.7,3.1-2.6,5.2-2.8c1.8-0.1,3.5,0.4,4.9,1.6
	c1.5,1.2,2.4,2.9,2.6,4.9c0,0.2,0,0.4,0,0.7c0,0.4-0.3,0.8-0.7,0.8c-0.4,0-0.8-0.3-0.8-0.8c0-1.7-0.7-3.1-1.9-4.2
	c-1-0.9-2.1-1.3-3.4-1.4c-1.6-0.1-3.1,0.5-4.2,1.6c-1.1,1.1-1.7,2.4-1.7,3.9c0,0.3-0.1,0.6-0.4,0.8c-0.3,0.1-0.6,0.1-0.8-0.1
	c-0.2-0.2-0.3-0.4-0.3-0.7c0-0.4-0.1-0.9-0.2-1.3c-0.5-2.2-2.6-4-4.9-4.2c-1.9-0.2-3.5,0.5-4.8,1.9c-0.9,1-1.4,2.3-1.4,3.7
	c0,0.4-0.2,0.6-0.5,0.7c-0.3,0.1-0.7,0-0.9-0.3c-0.1-0.1-0.1-0.3-0.1-0.4c0-2.2,0.8-4,2.5-5.4c1.7-1.4,3.6-2,5.8-1.6
	c1.4,0.2,2.7,0.8,3.7,1.8c0.6,0.5,1,1.1,1.4,1.8C23.5,15.3,23.5,15.3,23.6,15.4z M20.6,33.9c-1.4-1.8-2.8-3.5-4.2-5.3
	c-1.4-1.7-2.7-3.4-4.1-5.1c-0.3-0.4-0.7-0.4-1.1-0.2c-0.3,0.3-0.4,0.7-0.1,1.1c0.9,1.2,1.8,2.3,2.7,3.5c1.4,1.8,2.8,3.6,4.2,5.4
	c1,1.2,2,2.5,2.9,3.7c0.6,0.8,1.3,1.6,1.9,2.4c0.3,0.4,0.9,0.4,1.2,0c0.2-0.3,0.4-0.5,0.6-0.8c1.2-1.6,2.5-3.2,3.7-4.7
	c1.2-1.5,2.4-3,3.5-4.5c1.3-1.6,2.6-3.3,3.9-4.9c0.3-0.4,0.2-0.8-0.1-1.1c-0.4-0.3-0.8-0.2-1.1,0.1c-0.8,1.1-1.7,2.1-2.5,3.2
	c-0.9,1.1-1.8,2.2-2.6,3.4c-1.2,1.5-2.4,3-3.6,4.5c-0.8,1-1.6,2.1-2.5,3.1C22.6,36.4,21.6,35.2,20.6,33.9z M1.6,24.2
	c0.1,0.2,0.1,0.4,0.2,0.5c0.8,1,1.6,2.1,2.4,3.1c1.6,2.1,3.3,4.1,4.9,6.2c1.4,1.8,2.8,3.6,4.3,5.4c0.3,0.4,0.8,0.4,1.1,0.2
	c0.3-0.3,0.4-0.7,0.1-1.1c-1.5-1.9-3.1-3.9-4.6-5.8c-1.6-2.1-3.3-4.1-4.9-6.2c-0.7-0.9-1.4-1.8-2.2-2.7c-0.2-0.3-0.5-0.4-0.9-0.2
	C1.8,23.6,1.6,23.9,1.6,24.2C1.6,24.2,1.6,24.2,1.6,24.2z M33.8,39.4c1-1.3,2-2.5,3-3.8c2.3-2.9,4.7-5.9,7-8.8
	c0.5-0.7,1.1-1.4,1.6-2.1c0.2-0.3,0.2-0.7,0-1c-0.2-0.3-0.6-0.4-0.9-0.2c-0.1,0.1-0.3,0.2-0.4,0.3c-1.5,1.9-3.1,3.8-4.6,5.8
	c-1.6,2-3.2,4-4.8,6c-0.8,1-1.5,1.9-2.3,2.9c-0.2,0.3-0.2,0.5-0.1,0.8c0.1,0.3,0.4,0.4,0.7,0.4C33.4,39.7,33.6,39.6,33.8,39.4z"/>
<path fill="#FFFFFF" d="M23.6,14.4c0.3-0.4,0.5-0.7,0.7-1.1c1.3-1.7,3.1-2.6,5.2-2.8c1.8-0.1,3.5,0.4,4.9,1.6
	c1.5,1.2,2.4,2.9,2.6,4.9c0,0.2,0,0.4,0,0.7c0,0.4-0.3,0.8-0.7,0.8c-0.4,0-0.8-0.3-0.8-0.8c0-1.7-0.7-3.1-1.9-4.2
	c-1-0.9-2.1-1.3-3.4-1.4c-1.6-0.1-3.1,0.5-4.2,1.6c-1.1,1.1-1.7,2.4-1.7,3.9c0,0.3-0.1,0.6-0.4,0.8c-0.3,0.1-0.6,0.1-0.8-0.1
	c-0.2-0.2-0.3-0.4-0.3-0.7c0-0.4-0.1-0.9-0.2-1.3c-0.5-2.2-2.6-4-4.9-4.2c-1.9-0.2-3.5,0.5-4.8,1.9c-0.9,1-1.4,2.3-1.4,3.7
	c0,0.4-0.2,0.6-0.5,0.7c-0.3,0.1-0.7,0-0.9-0.3c-0.1-0.1-0.1-0.3-0.1-0.4c0-2.2,0.8-4,2.5-5.4c1.7-1.4,3.6-2,5.8-1.6
	c1.4,0.2,2.7,0.8,3.7,1.8c0.6,0.5,1,1.1,1.4,1.8C23.5,14.3,23.5,14.3,23.6,14.4z M20.6,32.9c-1.4-1.8-2.8-3.5-4.2-5.3
	c-1.4-1.7-2.7-3.4-4.1-5.1c-0.3-0.4-0.7-0.4-1.1-0.2c-0.3,0.3-0.4,0.7-0.1,1.1c0.9,1.2,1.8,2.3,2.7,3.5c1.4,1.8,2.8,3.6,4.2,5.4
	c1,1.2,2,2.5,2.9,3.7c0.6,0.8,1.3,1.6,1.9,2.4c0.3,0.4,0.9,0.4,1.2,0c0.2-0.3,0.4-0.5,0.6-0.8c1.2-1.6,2.5-3.2,3.7-4.7
	c1.2-1.5,2.4-3,3.5-4.5c1.3-1.6,2.6-3.3,3.9-4.9c0.3-0.4,0.2-0.8-0.1-1.1c-0.4-0.3-0.8-0.2-1.1,0.1c-0.8,1.1-1.7,2.1-2.5,3.2
	c-0.9,1.1-1.8,2.2-2.6,3.4c-1.2,1.5-2.4,3-3.6,4.5c-0.8,1-1.6,2.1-2.5,3.1C22.6,35.4,21.6,34.2,20.6,32.9z M1.6,23.2
	c0.1,0.2,0.1,0.4,0.2,0.5c0.8,1,1.6,2.1,2.4,3.1c1.6,2.1,3.3,4.1,4.9,6.2c1.4,1.8,2.8,3.6,4.3,5.4c0.3,0.4,0.8,0.4,1.1,0.2
	c0.3-0.3,0.4-0.7,0.1-1.1c-1.5-1.9-3.1-3.9-4.6-5.8c-1.6-2.1-3.3-4.1-4.9-6.2c-0.7-0.9-1.4-1.8-2.2-2.7c-0.2-0.3-0.5-0.4-0.9-0.2
	C1.8,22.6,1.6,22.9,1.6,23.2C1.6,23.2,1.6,23.2,1.6,23.2z M33.8,38.4c1-1.3,2-2.5,3-3.8c2.3-2.9,4.7-5.9,7-8.8
	c0.5-0.7,1.1-1.4,1.6-2.1c0.2-0.3,0.2-0.7,0-1c-0.2-0.3-0.6-0.4-0.9-0.2c-0.1,0.1-0.3,0.2-0.4,0.3c-1.5,1.9-3.1,3.8-4.6,5.8
	c-1.6,2-3.2,4-4.8,6c-0.8,1-1.5,1.9-2.3,2.9c-0.2,0.3-0.2,0.5-0.1,0.8c0.1,0.3,0.4,0.4,0.7,0.4C33.4,38.7,33.6,38.6,33.8,38.4z"/>
</svg>
