<?xml version="1.0" encoding="utf-8"?>
<!-- Generator: Adobe Illustrator 22.0.1, SVG Export Plug-In . SVG Version: 6.00 Build 0)  -->
<svg version="1.1" id="Layer_1" xmlns="http://www.w3.org/2000/svg" xmlns:xlink="http://www.w3.org/1999/xlink" x="0px" y="0px"
	 width="108px" height="48px" viewBox="0 0 108 48" enable-background="new 0 0 108 48" xml:space="preserve">
<g opacity="0.17">
	<path d="M35.7,37.3c-0.2,0-0.3-0.1-0.5-0.2c-0.3-0.3-0.4-0.7-0.1-1.1L47,21.2c0.3-0.3,0.7-0.4,1.1-0.1c0.3,0.3,0.4,0.7,0.1,1.1
		L36.3,37C36.2,37.2,35.9,37.3,35.7,37.3"/>
	<g>
		<path d="M35.7,37.6c0.3,0,0.6-0.1,0.8-0.4l11.8-14.9c0.2-0.2,0.2-0.5,0.2-0.7c0-0.3-0.2-0.5-0.4-0.7c-0.2-0.2-0.5-0.2-0.7-0.2
			c-0.3,0-0.5,0.2-0.7,0.4L34.9,35.9c-0.2,0.2-0.2,0.5-0.2,0.7c0,0.3,0.2,0.5,0.4,0.7C35.3,37.5,35.5,37.6,35.7,37.6"/>
		<path d="M47.6,21.1c0.1,0,0.2,0,0.3,0.1c0.1,0.1,0.2,0.2,0.2,0.3c0,0.1,0,0.3-0.1,0.4L36.1,36.9c-0.1,0.2-0.3,0.2-0.4,0.2
			c-0.1,0-0.2,0-0.3-0.1c-0.1-0.1-0.2-0.2-0.2-0.3c0-0.1,0-0.3,0.1-0.4l11.8-14.9C47.2,21.2,47.4,21.2,47.6,21.1
			C47.5,21.1,47.5,21.1,47.6,21.1"/>
	</g>
	<path d="M32.5,8.8c-2.8,0-5.3,1.6-6.5,4c-1.2-2.4-3.6-4-6.5-4c-4,0-7.2,3.2-7.2,7.2c0,0.4,0.3,0.8,0.8,0.8c0.4,0,0.8-0.3,0.8-0.8
		c0-3.1,2.6-5.7,5.7-5.7c3.1,0,5.7,2.6,5.7,5.7c0,0.4,0.3,0.8,0.8,0.8c0.4,0,0.8-0.3,0.8-0.8c0-3.1,2.6-5.7,5.7-5.7
		c3.1,0,5.7,2.6,5.7,5.7c0,0.4,0.3,0.8,0.8,0.8c0.4,0,0.8-0.3,0.8-0.8C39.8,12.1,36.5,8.8,32.5,8.8"/>
	<g>
		<path d="M39,17c0.6,0,1-0.5,1-1c0-4.1-3.4-7.5-7.5-7.5c-2.7,0-5.1,1.4-6.5,3.7c-1.3-2.3-3.8-3.7-6.5-3.7c-4.1,0-7.5,3.4-7.5,7.5
			c0,0.6,0.5,1,1,1c0.6,0,1-0.5,1-1c0-3,2.4-5.4,5.4-5.4s5.4,2.4,5.4,5.4c0,0.6,0.5,1,1,1s1-0.5,1-1c0-3,2.4-5.4,5.4-5.4
			c3,0,5.4,2.4,5.4,5.4C38,16.6,38.4,17,39,17"/>
		<path d="M32.5,10.1c-3.3,0-6,2.7-6,6c0,0.3-0.2,0.5-0.5,0.5c-0.3,0-0.5-0.2-0.5-0.5c0-3.3-2.7-6-6-6c-3.3,0-6,2.7-6,6
			c0,0.3-0.2,0.5-0.5,0.5c-0.3,0-0.5-0.2-0.5-0.5c0-3.8,3.1-7,7-7c2.7,0,5,1.5,6.2,3.9l0.2,0.5l0.2-0.5c1.2-2.4,3.6-3.9,6.2-3.9
			c3.8,0,7,3.1,7,7c0,0.3-0.2,0.5-0.5,0.5c-0.3,0-0.5-0.2-0.5-0.5C38.5,12.7,35.8,10.1,32.5,10.1"/>
	</g>
	<path d="M38.5,20.8c-0.3-0.3-0.8-0.2-1.1,0.1L26.1,35.3L14.7,20.9c-0.3-0.3-0.7-0.4-1.1-0.1c-0.3,0.3-0.4,0.7-0.1,1.1l12,15.2
		c0.1,0.2,0.4,0.3,0.6,0.3c0.2,0,0.4-0.1,0.6-0.3l12-15.2C38.9,21.5,38.8,21,38.5,20.8"/>
	<g>
		<path d="M26,37.6c0.3,0,0.6-0.1,0.8-0.4l12-15.2c0.2-0.2,0.3-0.5,0.3-0.7c0-0.3-0.2-0.5-0.4-0.7c-0.2-0.2-0.5-0.2-0.7-0.2
			c-0.3,0-0.5,0.2-0.7,0.4L26.1,34.9L14.9,20.7c-0.3-0.4-1-0.5-1.4-0.2c-0.2,0.2-0.3,0.4-0.4,0.7c0,0.3,0,0.5,0.2,0.7l12,15.2
			C25.4,37.4,25.7,37.6,26,37.6"/>
		<path d="M14.1,20.9c0.1,0,0.3,0.1,0.4,0.2l11.6,14.7l11.6-14.7c0.1-0.1,0.2-0.2,0.3-0.2c0.1,0,0.3,0,0.4,0.1
			c0.1,0.1,0.2,0.2,0.2,0.3c0,0.1,0,0.2-0.1,0.3l-12,15.2c-0.1,0.1-0.2,0.2-0.4,0.2c-0.2,0-0.3-0.1-0.4-0.2l-12-15.2
			c-0.1-0.1-0.1-0.2-0.1-0.4c0-0.1,0.1-0.3,0.2-0.3C13.9,20.9,14,20.9,14.1,20.9"/>
	</g>
	<path d="M16.4,37.3c0.2,0,0.3-0.1,0.5-0.2c0.3-0.3,0.4-0.7,0.1-1.1L5.2,21.2c-0.3-0.3-0.7-0.4-1.1-0.1c-0.3,0.3-0.4,0.7-0.1,1.1
		L15.8,37C16,37.2,16.2,37.3,16.4,37.3"/>
	<g>
		<path d="M16.4,37.6c0.2,0,0.5-0.1,0.6-0.2c0.2-0.2,0.3-0.4,0.4-0.7c0-0.3,0-0.5-0.2-0.7L5.4,21c-0.2-0.2-0.4-0.3-0.7-0.4
			c-0.3,0-0.5,0-0.7,0.2c-0.2,0.2-0.3,0.4-0.4,0.7c0,0.3,0,0.5,0.2,0.7l11.8,14.9C15.8,37.4,16.1,37.6,16.4,37.6"/>
		<path d="M4.6,21.1C4.6,21.1,4.6,21.1,4.6,21.1c0.2,0,0.3,0.1,0.4,0.2l11.8,14.9c0.1,0.1,0.1,0.2,0.1,0.4c0,0.1-0.1,0.3-0.2,0.3
			c-0.1,0.1-0.2,0.1-0.3,0.1c-0.2,0-0.3-0.1-0.4-0.2L4.2,21.9c-0.1-0.1-0.1-0.2-0.1-0.4c0-0.1,0.1-0.3,0.2-0.3
			C4.4,21.2,4.5,21.1,4.6,21.1"/>
	</g>
	<path d="M56,36.4c0,0.4,0.4,0.8,0.8,0.8h0.8c0.4,0,0.8-0.4,0.8-0.8v-7.9c0-0.1,0-0.2,0.1-0.2c0.1,0,0.2,0.1,0.4,0.2l8.1,8
		c0.2,0.2,0.6,0.6,1.2,0.6h0.8c0.6,0,0.8-0.4,0.8-0.8c0-0.2-0.1-0.4-0.3-0.6l-8.8-8.5c-0.2-0.2-0.2-0.3-0.2-0.5
		c0-0.2,0.1-0.3,0.2-0.5l8.6-7.8c0.2-0.2,0.2-0.4,0.2-0.6c0-0.4-0.2-0.7-0.8-0.7h-0.8c-0.6,0-0.9,0.3-1.1,0.5l-8.1,7.4
		c-0.1,0.1-0.2,0.2-0.3,0.2c0,0-0.1,0-0.1-0.2V9.6c0-0.4-0.4-0.8-0.8-0.8h-0.8c-0.4,0-0.8,0.4-0.8,0.8V36.4"/>
	<path d="M73.4,34c1.4,2.2,3.7,3.6,6.7,3.6c2.4,0,4.5-0.8,5.8-2.3c1.1-1.2,1.7-2.9,1.7-4.5c0-0.4-0.4-0.8-0.8-0.8H86
		c-0.4,0-0.8,0.2-0.8,0.7c0,1-0.4,2.2-1.1,3.1c-0.8,0.9-2.1,1.5-3.9,1.5c-2.2,0-4-1.1-4.9-3.1c-0.6-1.3-0.7-2.6-0.7-4.9
		c0-2.3,0.1-3.7,0.7-4.9c0.9-2,2.7-3.1,4.9-3.1c1.5,0,2.7,0.4,3.6,1.1c1,0.8,1.5,2.2,1.5,3.5c0,0.4,0.4,0.6,0.8,0.6h1
		c0.4,0,0.7-0.4,0.7-0.8c0-1.8-0.7-3.7-2.1-5c-1.3-1.2-3.2-1.8-5.4-1.8c-3,0-5.3,1.4-6.7,3.6c-1.3,2-1.4,3.9-1.4,6.8
		C72,30.1,72.2,32,73.4,34"/>
	<path d="M90.1,39.2c0,4.2,2.9,6.4,6.4,6.4c3.5,0,6.2-2.2,6.2-7V18c0-0.4-0.4-0.8-0.8-0.8h-9.2c-0.4,0-0.8,0.4-0.8,0.8v0.8
		c0,0.4,0.4,0.8,0.8,0.8h7.1c0.2,0,0.4,0.2,0.4,0.4v18.5c0,3-1.5,4.5-3.8,4.5c-2.3,0-3.9-1.4-3.9-3.9c0-0.4-0.4-0.8-0.8-0.8H91
		C90.5,38.4,90.1,38.7,90.1,39.2"/>
	<path d="M102.7,10.8c0-1.1-0.9-2-2-2c-1.1,0-2,0.9-2,2c0,1.1,0.9,2,2,2C101.8,12.8,102.7,11.9,102.7,10.8"/>
</g>
<g>
	<path fill="#FFFFFF" d="M35.7,35.3c-0.2,0-0.3-0.1-0.5-0.2c-0.3-0.3-0.4-0.7-0.1-1.1L47,19.2c0.3-0.3,0.7-0.4,1.1-0.1
		c0.3,0.3,0.4,0.7,0.1,1.1L36.3,35C36.2,35.2,35.9,35.3,35.7,35.3"/>
	<g>
		<path fill="#FFFFFF" d="M35.7,35.6c0.3,0,0.6-0.1,0.8-0.4l11.8-14.9c0.2-0.2,0.2-0.5,0.2-0.7c0-0.3-0.2-0.5-0.4-0.7
			c-0.2-0.2-0.5-0.2-0.7-0.2c-0.3,0-0.5,0.2-0.7,0.4L34.9,33.9c-0.2,0.2-0.2,0.5-0.2,0.7c0,0.3,0.2,0.5,0.4,0.7
			C35.3,35.5,35.5,35.6,35.7,35.6"/>
		<path fill="#FFFFFF" d="M47.6,19.1c0.1,0,0.2,0,0.3,0.1c0.1,0.1,0.2,0.2,0.2,0.3c0,0.1,0,0.3-0.1,0.4L36.1,34.9
			c-0.1,0.2-0.3,0.2-0.4,0.2c-0.1,0-0.2,0-0.3-0.1c-0.1-0.1-0.2-0.2-0.2-0.3c0-0.1,0-0.3,0.1-0.4l11.8-14.9
			C47.2,19.2,47.4,19.2,47.6,19.1C47.5,19.1,47.5,19.1,47.6,19.1"/>
	</g>
	<path fill="#FFFFFF" d="M32.5,6.8c-2.8,0-5.3,1.6-6.5,4c-1.2-2.4-3.6-4-6.5-4c-4,0-7.2,3.2-7.2,7.2c0,0.4,0.3,0.8,0.8,0.8
		c0.4,0,0.8-0.3,0.8-0.8c0-3.1,2.6-5.7,5.7-5.7c3.1,0,5.7,2.6,5.7,5.7c0,0.4,0.3,0.8,0.8,0.8c0.4,0,0.8-0.3,0.8-0.8
		c0-3.1,2.6-5.7,5.7-5.7c3.1,0,5.7,2.6,5.7,5.7c0,0.4,0.3,0.8,0.8,0.8c0.4,0,0.8-0.3,0.8-0.8C39.8,10.1,36.5,6.8,32.5,6.8"/>
	<g>
		<path fill="#FFFFFF" d="M39,15c0.6,0,1-0.5,1-1c0-4.1-3.4-7.5-7.5-7.5c-2.7,0-5.1,1.4-6.5,3.7c-1.3-2.3-3.8-3.7-6.5-3.7
			c-4.1,0-7.5,3.4-7.5,7.5c0,0.6,0.5,1,1,1c0.6,0,1-0.5,1-1c0-3,2.4-5.4,5.4-5.4s5.4,2.4,5.4,5.4c0,0.6,0.5,1,1,1s1-0.5,1-1
			c0-3,2.4-5.4,5.4-5.4c3,0,5.4,2.4,5.4,5.4C38,14.6,38.4,15,39,15"/>
		<path fill="#FFFFFF" d="M32.5,8.1c-3.3,0-6,2.7-6,6c0,0.3-0.2,0.5-0.5,0.5c-0.3,0-0.5-0.2-0.5-0.5c0-3.3-2.7-6-6-6
			c-3.3,0-6,2.7-6,6c0,0.3-0.2,0.5-0.5,0.5c-0.3,0-0.5-0.2-0.5-0.5c0-3.8,3.1-7,7-7c2.7,0,5,1.5,6.2,3.9l0.2,0.5l0.2-0.5
			c1.2-2.4,3.6-3.9,6.2-3.9c3.8,0,7,3.1,7,7c0,0.3-0.2,0.5-0.5,0.5c-0.3,0-0.5-0.2-0.5-0.5C38.5,10.7,35.8,8.1,32.5,8.1"/>
	</g>
	<path fill="#FFFFFF" d="M38.5,18.8c-0.3-0.3-0.8-0.2-1.1,0.1L26.1,33.3L14.7,18.9c-0.3-0.3-0.7-0.4-1.1-0.1
		c-0.3,0.3-0.4,0.7-0.1,1.1l12,15.2c0.1,0.2,0.4,0.3,0.6,0.3c0.2,0,0.4-0.1,0.6-0.3l12-15.2C38.9,19.5,38.8,19,38.5,18.8"/>
	<g>
		<path fill="#FFFFFF" d="M26,35.6c0.3,0,0.6-0.1,0.8-0.4l12-15.2c0.2-0.2,0.3-0.5,0.3-0.7c0-0.3-0.2-0.5-0.4-0.7
			c-0.2-0.2-0.5-0.2-0.7-0.2c-0.3,0-0.5,0.2-0.7,0.4L26.1,32.9L14.9,18.7c-0.3-0.4-1-0.5-1.4-0.2c-0.2,0.2-0.3,0.4-0.4,0.7
			c0,0.3,0,0.5,0.2,0.7l12,15.2C25.4,35.4,25.7,35.6,26,35.6"/>
		<path fill="#FFFFFF" d="M14.1,18.9c0.1,0,0.3,0.1,0.4,0.2l11.6,14.7l11.6-14.7c0.1-0.1,0.2-0.2,0.3-0.2c0.1,0,0.3,0,0.4,0.1
			c0.1,0.1,0.2,0.2,0.2,0.3c0,0.1,0,0.2-0.1,0.3l-12,15.2c-0.1,0.1-0.2,0.2-0.4,0.2c-0.2,0-0.3-0.1-0.4-0.2l-12-15.2
			c-0.1-0.1-0.1-0.2-0.1-0.4c0-0.1,0.1-0.3,0.2-0.3C13.9,18.9,14,18.9,14.1,18.9"/>
	</g>
	<path fill="#FFFFFF" d="M16.4,35.3c0.2,0,0.3-0.1,0.5-0.2c0.3-0.3,0.4-0.7,0.1-1.1L5.2,19.2c-0.3-0.3-0.7-0.4-1.1-0.1
		c-0.3,0.3-0.4,0.7-0.1,1.1L15.8,35C16,35.2,16.2,35.3,16.4,35.3"/>
	<g>
		<path fill="#FFFFFF" d="M16.4,35.6c0.2,0,0.5-0.1,0.6-0.2c0.2-0.2,0.3-0.4,0.4-0.7c0-0.3,0-0.5-0.2-0.7L5.4,19
			c-0.2-0.2-0.4-0.3-0.7-0.4c-0.3,0-0.5,0-0.7,0.2c-0.2,0.2-0.3,0.4-0.4,0.7c0,0.3,0,0.5,0.2,0.7l11.8,14.9
			C15.8,35.4,16.1,35.6,16.4,35.6"/>
		<path fill="#FFFFFF" d="M4.6,19.1C4.6,19.1,4.6,19.1,4.6,19.1c0.2,0,0.3,0.1,0.4,0.2l11.8,14.9c0.1,0.1,0.1,0.2,0.1,0.4
			c0,0.1-0.1,0.3-0.2,0.3c-0.1,0.1-0.2,0.1-0.3,0.1c-0.2,0-0.3-0.1-0.4-0.2L4.2,19.9c-0.1-0.1-0.1-0.2-0.1-0.4
			c0-0.1,0.1-0.3,0.2-0.3C4.4,19.2,4.5,19.1,4.6,19.1"/>
	</g>
	<path fill="#FFFFFF" d="M56,34.4c0,0.4,0.4,0.8,0.8,0.8h0.8c0.4,0,0.8-0.4,0.8-0.8v-7.9c0-0.1,0-0.2,0.1-0.2c0.1,0,0.2,0.1,0.4,0.2
		l8.1,8c0.2,0.2,0.6,0.6,1.2,0.6h0.8c0.6,0,0.8-0.4,0.8-0.8c0-0.2-0.1-0.4-0.3-0.6l-8.8-8.5c-0.2-0.2-0.2-0.3-0.2-0.5
		c0-0.2,0.1-0.3,0.2-0.5l8.6-7.8c0.2-0.2,0.2-0.4,0.2-0.6c0-0.4-0.2-0.7-0.8-0.7h-0.8c-0.6,0-0.9,0.3-1.1,0.5l-8.1,7.4
		c-0.1,0.1-0.2,0.2-0.3,0.2c0,0-0.1,0-0.1-0.2V7.6c0-0.4-0.4-0.8-0.8-0.8h-0.8c-0.4,0-0.8,0.4-0.8,0.8V34.4"/>
	<path fill="#FFFFFF" d="M73.4,32c1.4,2.2,3.7,3.6,6.7,3.6c2.4,0,4.5-0.8,5.8-2.3c1.1-1.2,1.7-2.9,1.7-4.5c0-0.4-0.4-0.8-0.8-0.8H86
		c-0.4,0-0.8,0.2-0.8,0.7c0,1-0.4,2.2-1.1,3.1c-0.8,0.9-2.1,1.5-3.9,1.5c-2.2,0-4-1.1-4.9-3.1c-0.6-1.3-0.7-2.6-0.7-4.9
		c0-2.3,0.1-3.7,0.7-4.9c0.9-2,2.7-3.1,4.9-3.1c1.5,0,2.7,0.4,3.6,1.1c1,0.8,1.5,2.2,1.5,3.5c0,0.4,0.4,0.6,0.8,0.6h1
		c0.4,0,0.7-0.4,0.7-0.8c0-1.8-0.7-3.7-2.1-5c-1.3-1.2-3.2-1.8-5.4-1.8c-3,0-5.3,1.4-6.7,3.6c-1.3,2-1.4,3.9-1.4,6.8
		C72,28.1,72.2,30,73.4,32"/>
	<path fill="#FFFFFF" d="M90.1,37.2c0,4.2,2.9,6.4,6.4,6.4c3.5,0,6.2-2.2,6.2-7V16c0-0.4-0.4-0.8-0.8-0.8h-9.2
		c-0.4,0-0.8,0.4-0.8,0.8v0.8c0,0.4,0.4,0.8,0.8,0.8h7.1c0.2,0,0.4,0.2,0.4,0.4v18.5c0,3-1.5,4.5-3.8,4.5c-2.3,0-3.9-1.4-3.9-3.9
		c0-0.4-0.4-0.8-0.8-0.8H91C90.5,36.4,90.1,36.7,90.1,37.2"/>
	<path fill="#FFFFFF" d="M102.7,8.8c0-1.1-0.9-2-2-2c-1.1,0-2,0.9-2,2c0,1.1,0.9,2,2,2C101.8,10.8,102.7,9.9,102.7,8.8"/>
</g>
</svg>
