<?xml version="1.0" encoding="utf-8"?>
<!-- Generator: Adobe Illustrator 22.0.1, SVG Export Plug-In . SVG Version: 6.00 Build 0)  -->
<svg version="1.1" id="Layer_1" xmlns="http://www.w3.org/2000/svg" xmlns:xlink="http://www.w3.org/1999/xlink" x="0px" y="0px"
	 width="48px" height="48px" viewBox="0 0 48 48" style="enable-background:new 0 0 48 48;" xml:space="preserve">
<style type="text/css">
	.st0{fill:#FFFFFF;}
	.st1{opacity:0.17;enable-background:new    ;}
</style>
<g id="Layer_3">
	<g>
		<path class="st0" d="M34.6,12.6c-2.9-3-6.8-4.6-11-4.6l0,0C15.1,8,8.1,14.9,8,23.3c-0.1,4.2,1.5,8.1,4.5,11.1
			c2.9,3,6.9,4.6,11.1,4.6l0,0C32,39,39,32.1,39.1,23.7C39.1,19.6,37.5,15.6,34.6,12.6z M18.1,11.1c-0.8,1-1.4,2.2-1.9,3.4L14,13.8
			C15.3,12.6,16.7,11.7,18.1,11.1z M12.7,15.4l2.9,1c-0.6,2-0.9,4-1,6.1H10C10.2,19.9,11.1,17.5,12.7,15.4z M12.7,31.6
			c-1.3-1.8-2.2-3.7-2.5-5.9c-0.1-0.4-0.1-0.8-0.2-1.2v-0.1h4.6c0.1,2.1,0.4,4.1,1,6.1l-0.3,0.1c-0.7,0.2-1.4,0.5-2.1,0.7
			C13,31.5,12.9,31.5,12.7,31.6z M14,33.2l2.2-0.7c0.5,1.3,1.2,2.5,2,3.6C16.9,35.4,15,34.2,14,33.2z M22.5,36.9
			c-0.3-0.1-0.6-0.2-1-0.4c-0.7-0.4-1.4-1-2-1.9c-0.5-0.7-1-1.5-1.4-2.5c1.5-0.3,2.9-0.4,4.4-0.5V36.9z M22.5,29.6l-5.1,0.5
			c-0.5-1.9-0.8-3.8-0.9-5.6h6V29.6z M22.5,22.5h-6c0.1-1.9,0.4-3.8,0.9-5.7l5.1,0.6V22.5z M22.5,15.4c-1.4,0-2.9-0.2-4.4-0.5
			c0.6-1.4,1.3-2.5,2.1-3.4c0.7-0.8,1.5-1.2,2.3-1.5V15.4z M37,22.6h-4.6c-0.1-2.1-0.4-4.1-1-6.1c0.1,0,0.3-0.1,0.4-0.1
			c0.8-0.3,1.6-0.6,2.5-0.9C35.9,17.5,36.8,19.9,37,22.6z M33,13.8l-2.2,0.7c-0.5-1.3-1.1-2.4-1.9-3.4C30.4,11.7,31.8,12.6,33,13.8z
			 M24.5,10.1c0.7,0.2,1.3,0.6,2,1.2c1,0.9,1.7,2,2.4,3.6c-1.5,0.3-2.9,0.4-4.4,0.5V10.1z M24.5,17.4l5.1-0.5
			c0.5,1.9,0.8,3.8,0.9,5.7h-6V17.4z M24.5,24.5h6c0,1.9-0.3,3.8-0.9,5.7l-5.1-0.6V24.5z M24.5,36.9v-5.3c1.4,0,2.9,0.2,4.4,0.5
			c-0.6,1.5-1.3,2.6-2.2,3.4C26,36.3,25.3,36.7,24.5,36.9z M28.9,36c0.8-1,1.5-2.2,2-3.5l2.2,0.7C32.1,34.2,30.3,35.4,28.9,36z
			 M37,25.2c-0.3,2.4-1.2,4.6-2.6,6.5c-0.8-0.3-1.6-0.6-2.4-0.9l-0.5-0.2c0.6-2,0.9-4,1-6.1H37C37,24.8,37,25,37,25.2z"/>
		<path class="st1" d="M35.5,13.6c-2.9-3-6.8-4.6-11-4.6l0,0C16,8.9,9.1,15.8,8.9,24.3c-0.1,4.2,1.5,8.1,4.5,11.1
			c2.9,3,6.9,4.6,11.1,4.6l0,0c8.4,0,15.4-6.9,15.5-15.3C40.1,20.5,38.5,16.6,35.5,13.6z M19.1,12c-0.8,1-1.4,2.2-1.9,3.4L15,14.8
			C16.3,13.6,17.6,12.7,19.1,12z M13.6,16.4l2.9,1c-0.6,2-0.9,4-1,6.1H11C11.2,20.8,12.1,18.4,13.6,16.4z M13.6,32.6
			c-1.3-1.8-2.2-3.7-2.5-5.9C11,26.3,11,25.9,11,25.5v-0.1h4.6c0.1,2.1,0.4,4.1,1,6.1l-0.3,0.1c-0.7,0.2-1.4,0.5-2.1,0.7
			C14,32.4,13.8,32.5,13.6,32.6z M15,34.1l2.2-0.7c0.5,1.3,1.2,2.5,2,3.6C17.8,36.3,16,35.1,15,34.1z M23.5,37.9
			c-0.3-0.1-0.6-0.2-1-0.4c-0.7-0.4-1.4-1-2-1.9c-0.5-0.7-1-1.5-1.4-2.5c1.5-0.3,2.9-0.4,4.4-0.5V37.9z M23.5,30.5L18.4,31
			c-0.5-1.9-0.8-3.8-0.9-5.6h6V30.5z M23.5,23.4h-6c0.1-1.9,0.4-3.8,0.9-5.7l5.1,0.6V23.4z M23.5,16.4c-1.4,0-2.9-0.2-4.4-0.5
			c0.6-1.4,1.3-2.5,2.1-3.4c0.7-0.8,1.5-1.2,2.3-1.5V16.4z M38,23.5h-4.6c-0.1-2.1-0.4-4.1-1-6.1c0.1,0,0.3-0.1,0.4-0.1
			c0.8-0.3,1.6-0.6,2.5-0.9C36.9,18.5,37.8,20.9,38,23.5z M33.9,14.8l-2.2,0.7c-0.5-1.3-1.1-2.4-1.9-3.4
			C31.3,12.7,32.7,13.6,33.9,14.8z M25.5,11.1c0.7,0.2,1.3,0.6,2,1.2c1,0.9,1.7,2,2.4,3.6c-1.5,0.3-2.9,0.4-4.4,0.5V11.1z
			 M25.5,18.4l5.1-0.5c0.5,1.9,0.8,3.8,0.9,5.7h-6V18.4z M25.5,25.5h6c0,1.9-0.3,3.8-0.9,5.7l-5.1-0.6V25.5z M25.5,37.9v-5.3
			c1.4,0,2.9,0.2,4.4,0.5c-0.6,1.5-1.3,2.6-2.2,3.4C27,37.2,26.3,37.7,25.5,37.9z M29.8,37c0.8-1,1.5-2.2,2-3.5l2.2,0.7
			C33,35.1,31.2,36.3,29.8,37z M37.9,26.1c-0.3,2.4-1.2,4.6-2.6,6.5c-0.8-0.3-1.6-0.6-2.4-0.9l-0.5-0.2c0.6-2,0.9-4,1-6.1H38
			C38,25.7,38,25.9,37.9,26.1z"/>
	</g>
</g>
</svg>
