<?xml version="1.0" encoding="utf-8"?>
<!-- Generator: Adobe Illustrator 22.0.1, SVG Export Plug-In . SVG Version: 6.00 Build 0)  -->
<svg version="1.1" id="Layer_1" xmlns="http://www.w3.org/2000/svg" xmlns:xlink="http://www.w3.org/1999/xlink" x="0px" y="0px"
	 width="48px" height="48px" viewBox="0 0 48 48" enable-background="new 0 0 48 48" xml:space="preserve">
<g id="Hamburger" opacity="0.17">
	<path d="M36,16.8H13c-0.7,0-1.2-0.6-1.2-1.2s0.6-1.2,1.2-1.2h23c0.7,0,1.2,0.6,1.2,1.2S36.7,16.8,36,16.8z"/>
	<path d="M36,25.8H13c-0.7,0-1.2-0.6-1.2-1.2s0.6-1.2,1.2-1.2h23c0.7,0,1.2,0.6,1.2,1.2S36.7,25.8,36,25.8z"/>
	<path d="M36,34.8H13c-0.7,0-1.2-0.6-1.2-1.2s0.6-1.2,1.2-1.2h23c0.7,0,1.2,0.6,1.2,1.2S36.7,34.8,36,34.8z"/>
</g>
<g id="Hamburger_1_">
	<path fill="#FFFFFF" d="M35.5,16.2h-23c-0.7,0-1.2-0.6-1.2-1.2s0.6-1.2,1.2-1.2h23c0.7,0,1.2,0.6,1.2,1.2S36.2,16.2,35.5,16.2z"/>
	<path fill="#FFFFFF" d="M35.5,25.2h-23c-0.7,0-1.2-0.6-1.2-1.2s0.6-1.2,1.2-1.2h23c0.7,0,1.2,0.6,1.2,1.2S36.2,25.2,35.5,25.2z"/>
	<path fill="#FFFFFF" d="M35.5,34.2h-23c-0.7,0-1.2-0.6-1.2-1.2s0.6-1.2,1.2-1.2h23c0.7,0,1.2,0.6,1.2,1.2S36.2,34.2,35.5,34.2z"/>
</g>
</svg>
