<?xml version="1.0" encoding="utf-8"?>
<!-- Generator: Adobe Illustrator 22.0.1, SVG Export Plug-In . SVG Version: 6.00 Build 0)  -->
<svg version="1.1" id="Layer_1" xmlns="http://www.w3.org/2000/svg" xmlns:xlink="http://www.w3.org/1999/xlink" x="0px" y="0px"
	 width="44px" height="24px" viewBox="0 0 44 24" style="enable-background:new 0 0 44 24;" xml:space="preserve">
<style type="text/css">
	.st0{fill:#FFFFFF;}
	.st1{fill:#2E8EB8;}
	.st2{display:none;}
</style>
<g>
	<g>
		<circle class="st0" cx="12.5" cy="12" r="2.3"/>
		<path class="st1" d="M12.5,14.6c-1.4,0-2.6-1.2-2.6-2.6s1.2-2.6,2.6-2.6s2.6,1.2,2.6,2.6S14,14.6,12.5,14.6z M12.5,10
			c-1.1,0-2,0.9-2,2s0.9,2,2,2s2-0.9,2-2S13.6,10,12.5,10z"/>
	</g>
	<g>
		<circle class="st0" cx="31.6" cy="12" r="2.3"/>
		<path class="st1" d="M31.6,14.6c-1.4,0-2.6-1.2-2.6-2.6s1.2-2.6,2.6-2.6s2.6,1.2,2.6,2.6S33,14.6,31.6,14.6z M31.6,10
			c-1.1,0-2,0.9-2,2s0.9,2,2,2s2-0.9,2-2S32.7,10,31.6,10z"/>
	</g>
	<g>
		<path class="st0" d="M16.2,4.9c2.6,0,5,0,5,0l0,0l0,0c2.5,0,3.7,0,4.6,0c0.5,0,0.9,0,1.5,0c0.9,0,2.2,0,4.5,0
			c2.2,0,4.1,0.8,5.4,2.2s1.9,3.3,1.8,5.5c-0.2,3.6-3,6.3-6.6,6.4c-1.4,0-4.7,0.1-8.7,0.1c-4.1,0-8.3,0-11.4-0.1
			c-2.2,0-4.1-0.8-5.4-2.2c-1.3-1.4-1.9-3.3-1.8-5.5c0.2-3.6,3-6.3,6.6-6.4C12.7,4.9,14.2,4.9,16.2,4.9 M16.2,0.3
			c-1.7,0-3.4,0-4.6,0c-6,0.2-10.7,4.9-11,10.8c-0.4,7,4.6,12.4,11.7,12.5c3.2,0,7.6,0.1,11.5,0.1s7.3,0,8.9-0.1
			c6-0.2,10.7-4.9,11-10.8c0.4-7-4.6-12.4-11.7-12.5c-2.5,0-3.7,0-4.6,0c-1.4,0-2.1,0-6.1,0C21.2,0.3,18.8,0.3,16.2,0.3L16.2,0.3z"
			/>
		<path class="st1" d="M23.6,24c-4.1,0-8.4,0-11.5-0.1c-3.5,0-6.7-1.4-8.9-3.7c-2.2-2.4-3.3-5.6-3.1-9.1C0.5,5,5.4,0.2,11.5,0
			c1.1,0,2.6,0,4.7,0c2.6,0,5,0,5,0c2.5,0,3.6,0,4.5,0c1.5,0,2.1,0,6.1,0c3.5,0,6.7,1.4,8.9,3.7c2.2,2.4,3.3,5.6,3.1,9.1
			c-0.3,6.1-5.2,10.9-11.3,11.1C31,24,27.8,24,23.6,24z M16.2,0.6c-2,0-3.6,0-4.6,0C5.7,0.8,1.1,5.3,0.7,11.2
			c-0.2,3.3,0.9,6.4,2.9,8.6c2.1,2.2,5.1,3.5,8.5,3.6c3,0,7.3,0.1,11.5,0.1s7.4,0,8.9-0.1c5.8-0.2,10.4-4.7,10.8-10.5
			c0.2-3.3-0.9-6.4-2.9-8.6c-2.1-2.2-5.1-3.5-8.5-3.6c-4-0.1-4.6,0-6.1,0c-0.9,0-2.1,0-4.6,0C21.2,0.6,18.8,0.6,16.2,0.6z
			 M23.6,19.4c-4.1,0-8.4,0-11.4-0.1c-2.3,0-4.2-0.8-5.6-2.3c-1.3-1.4-2-3.4-1.9-5.7C5,7.7,7.9,4.8,11.6,4.7c1,0,2.5,0,4.5,0
			c2.6,0,5,0,5,0c2.5,0,3.7,0,4.6,0c0.6,0,1,0,1.5,0c0.9,0,2.2,0,4.5,0s4.2,0.8,5.6,2.3c1.3,1.4,2,3.4,1.9,5.7
			c-0.2,3.7-3.2,6.6-6.9,6.7C30.9,19.4,27.7,19.4,23.6,19.4z M16.2,5.2c-2,0-3.5,0-4.5,0C8.3,5.3,5.5,8,5.4,11.4
			c-0.1,2.1,0.5,3.9,1.7,5.2s3,2.1,5.2,2.1c3,0,7.3,0.1,11.4,0.1s7.3,0,8.7-0.1c3.4-0.1,6.1-2.8,6.3-6.2c0.1-2.1-0.5-3.9-1.7-5.2
			s-3-2.1-5.2-2.1c-2.3,0-3.6,0-4.5,0c-0.5,0-0.9,0-1.4,0c-0.9,0-2.2,0-4.6,0C21.1,5.2,18.7,5.2,16.2,5.2z"/>
	</g>
</g>
<g>
	<path class="st2" d="M32.5,23.6c6-0.2,10.7-4.9,11-10.8c0.4-7-4.6-12.4-11.7-12.5c-6.4-0.1-4.2,0-10.6,0c0,0-6.5-0.1-9.7,0
		c-6,0.2-10.7,4.9-11,10.8c-0.4,7,4.6,12.4,11.7,12.5C18.6,23.7,29.3,23.7,32.5,23.6z"/>
	<circle class="st0" cx="12.5" cy="12" r="2.3"/>
	<circle class="st0" cx="31.6" cy="12" r="2.3"/>
	<path class="st0" d="M16.2,4.9c2.6,0,5,0,5,0l0,0l0,0c2.5,0,3.7,0,4.6,0c0.5,0,0.9,0,1.5,0c0.9,0,2.2,0,4.5,0
		c2.2,0,4.1,0.8,5.4,2.2s1.9,3.3,1.8,5.5c-0.2,3.6-3,6.3-6.6,6.4c-1.4,0-4.7,0.1-8.7,0.1c-4.1,0-8.3,0-11.4-0.1
		c-2.2,0-4.1-0.8-5.4-2.2c-1.3-1.4-1.9-3.3-1.8-5.5c0.2-3.6,3-6.3,6.6-6.4C12.7,4.9,14.2,4.9,16.2,4.9 M16.2,0.3c-1.7,0-3.4,0-4.6,0
		c-6,0.2-10.7,4.9-11,10.8c-0.4,7,4.6,12.4,11.7,12.5c3.2,0,7.6,0.1,11.5,0.1s7.3,0,8.9-0.1c6-0.2,10.7-4.9,11-10.8
		c0.4-7-4.6-12.4-11.7-12.5c-2.5,0-3.7,0-4.6,0c-1.4,0-2.1,0-6.1,0C21.2,0.3,18.8,0.3,16.2,0.3L16.2,0.3z"/>
</g>
</svg>
