<?xml version="1.0" encoding="utf-8"?>
<!-- Generator: Adobe Illustrator 21.1.0, SVG Export Plug-In . SVG Version: 6.00 Build 0)  -->
<svg version="1.1" id="rest" xmlns="http://www.w3.org/2000/svg" xmlns:xlink="http://www.w3.org/1999/xlink" x="0px" y="0px"
	 width="64px" height="64px" viewBox="0 0 64 64" style="enable-background:new 0 0 64 64;" xml:space="preserve">
<style type="text/css">
	.st0{fill:#FFFFFF;stroke:#000000;stroke-width:0.7489;stroke-linecap:round;stroke-linejoin:round;stroke-opacity:0.2;}
</style>
<g>
	<path class="st0" d="M26,40.7c2.6,0,5.1,0,5.1,0l0,0l0,0c2.5,0,3.8,0,4.7,0c0.5,0,0.9,0,1.5,0c0.9,0,2.2,0,4.6,0.1
		c2.2,0.1,4.1,0.8,5.5,2.2c1.3,1.4,2,3.4,1.8,5.6c-0.2,3.6-3.1,6.4-6.7,6.6c-1.5,0.1-4.8,0.1-9,0.1s-8.6,0-11.7-0.1
		c-2.2-0.1-4.1-0.8-5.5-2.2c-1.3-1.4-2-3.4-1.8-5.6c0.2-3.6,3.1-6.4,6.7-6.6C22.4,40.7,24,40.7,26,40.7 M26,36c-1.7,0-3.5,0-4.8,0.1
		c-6.1,0.2-11,5-11.3,11.1c-0.4,7.2,4.7,12.7,12,12.8C25.2,60,29.6,60,33.7,60c4,0,7.5,0,9.1-0.1c6.1-0.2,11-5,11.3-11.1
		c0.4-7.3-4.7-12.8-12-12.8C39.6,36,38.3,36,37.4,36c-1.5,0-2.2,0-6.2,0C31.2,36,28.7,36,26,36L26,36z"/>
	<path d="M33.7,55.6c-4.2,0-8.6,0-11.7-0.1c-2.3-0.1-4.3-0.9-5.8-2.4c-1.4-1.5-2.1-3.6-1.9-5.9c0.3-3.8,3.3-6.8,7.1-6.9
		c1.1-0.1,2.6-0.1,4.7-0.1h11.3c0.9,0,2.3,0,4.6,0.1c2.3,0.1,4.3,0.9,5.8,2.4c1.4,1.5,2.1,3.6,1.9,5.9c-0.2,3.8-3.2,6.8-7,6.9
		C41.2,55.6,37.9,55.6,33.7,55.6z"/>
	<circle class="st0" cx="41.8" cy="48" r="2.4"/>
	<circle class="st0" cx="22.3" cy="48" r="2.4"/>
</g>
<path class="st0" d="M42.8,25.5c-1-1-2.8-1-3.8,0l-4.2,4.2V14.4c0-1.5-1.2-2.7-2.7-2.7s-2.7,1.2-2.7,2.7v15.4l-4.2-4.2
	c-1-1-2.9-1-3.9,0c-0.5,0.5-0.8,1.2-0.8,1.9c0,0.7,0.3,1.4,0.8,1.9l8.9,8.9c1,1,2.9,1,3.9,0l8.9-8.9c0.5-0.5,0.8-1.2,0.8-1.9
	C43.6,26.7,43.3,26.1,42.8,25.5z"/>
</svg>
