<?xml version="1.0" encoding="utf-8"?>
<!-- Generator: Adobe Illustrator 22.0.1, SVG Export Plug-In . SVG Version: 6.00 Build 0)  -->
<svg version="1.1" id="Layer_2_1_" xmlns="http://www.w3.org/2000/svg" xmlns:xlink="http://www.w3.org/1999/xlink" x="0px" y="0px"
	 width="64px" height="64px" viewBox="0 0 64 64" enable-background="new 0 0 64 64" xml:space="preserve">
<g>
	
		<path fill="#FFFFFF" stroke="#000000" stroke-width="0.7489" stroke-linecap="round" stroke-linejoin="round" stroke-opacity="0.2" d="
		M26,40.7c2.6,0,5.1,0,5.1,0l0,0l0,0c2.5,0,3.8,0,4.7,0c0.5,0,0.9,0,1.5,0c0.9,0,2.2,0,4.6,0.1c2.2,0.1,4.1,0.8,5.5,2.2
		c1.3,1.4,2,3.4,1.8,5.6c-0.2,3.6-3.1,6.4-6.7,6.6c-1.5,0.1-4.8,0.1-9,0.1s-8.6,0-11.7-0.1c-2.2-0.1-4.1-0.8-5.5-2.2
		c-1.3-1.4-2-3.4-1.8-5.6c0.2-3.6,3.1-6.4,6.7-6.6C22.4,40.7,24,40.7,26,40.7 M26,36c-1.7,0-3.5,0-4.8,0.1c-6.1,0.2-11,5-11.3,11.1
		c-0.4,7.2,4.7,12.7,12,12.8c3.3,0,7.7,0,11.8,0c4,0,7.5,0,9.1-0.1c6.1-0.2,11-5,11.3-11.1c0.4-7.3-4.7-12.8-12-12.8
		c-2.5,0-3.8,0-4.7,0c-1.5,0-2.2,0-6.2,0C31.2,36,28.7,36,26,36L26,36z"/>
	<path d="M33.7,55.6c-4.2,0-8.6,0-11.7-0.1c-2.3-0.1-4.3-0.9-5.8-2.4c-1.4-1.5-2.1-3.6-1.9-5.9c0.3-3.8,3.3-6.8,7.1-6.9
		c1.1-0.1,2.6-0.1,4.7-0.1h11.3c0.9,0,2.3,0,4.6,0.1s4.3,0.9,5.8,2.4c1.4,1.5,2.1,3.6,1.9,5.9c-0.2,3.8-3.2,6.8-7,6.9
		C41.2,55.6,37.9,55.6,33.7,55.6z"/>
	
		<circle fill="#FFFFFF" stroke="#000000" stroke-width="0.7489" stroke-linecap="round" stroke-linejoin="round" stroke-opacity="0.2" cx="41.8" cy="48" r="2.4"/>
	
		<circle fill="#FFFFFF" stroke="#000000" stroke-width="0.7489" stroke-linecap="round" stroke-linejoin="round" stroke-opacity="0.2" cx="22.3" cy="48" r="2.4"/>
</g>
<g>
	
		<path fill="#FFFFFF" stroke="#000000" stroke-width="0.564" stroke-linecap="round" stroke-linejoin="round" stroke-opacity="0.2" d="
		M37.2,14.6l-9.6,9.5c-0.4,0.4-0.4,1.1,0,1.5s1.1,0.4,1.5,0l0.5-0.5c0.3,0.3,0.9,0.9,1.7,1.7c2.1,2.1,5.4,2.3,7.8,0.7l5.1,5
		c0.4,0.4,1.1,0.4,1.5,0s0.4-1.1,0-1.5l-5-5c1.6-2.3,1.4-5.6-0.7-7.8c-0.7-0.7-1.3-1.3-1.7-1.7l0.5-0.5c0.4-0.4,0.4-1.1,0-1.5
		C38.3,14.2,37.6,14.2,37.2,14.6z"/>
	
		<path fill="#FFFFFF" stroke="#000000" stroke-width="0.564" stroke-linecap="round" stroke-linejoin="round" stroke-opacity="0.2" d="
		M36.4,13.8l-9.5,9.5c-0.4,0.4-1.1,0.4-1.5,0s-0.4-1.1,0-1.5l0.5-0.5c-0.3-0.3-0.9-0.9-1.7-1.7c-2.1-2.1-2.3-5.4-0.7-7.8l-5.1-5
		c-0.4-0.4-0.4-1.1,0-1.5s1.1-0.4,1.5,0l5.1,5c2.3-1.6,5.6-1.4,7.8,0.7c0.7,0.7,1.3,1.3,1.7,1.7l0.5-0.5c0.4-0.4,1.1-0.4,1.5,0
		C36.8,12.7,36.8,13.4,36.4,13.8z"/>
</g>
</svg>
