<?xml version="1.0" encoding="utf-8"?>
<!-- Generator: Adobe Illustrator 21.0.0, SVG Export Plug-In . SVG Version: 6.00 Build 0)  -->
<svg version="1.1" id="Layer_1" xmlns="http://www.w3.org/2000/svg" xmlns:xlink="http://www.w3.org/1999/xlink" x="0px" y="0px"
	 width="48px" height="48px" viewBox="0 0 48 48" style="enable-background:new 0 0 48 48;" xml:space="preserve">
<style type="text/css">
	.st0{fill:#D3BD99;}
	.st1{fill:#F94735;}
</style>
<g>
	<path class="st0" d="M10.4,39.5c-0.7,0-1.3-0.6-1.3-1.3V9.7c0-0.7,0.6-1.2,1.3-1.2H38c0.7,0,1.3,0.6,1.3,1.3v28.5
		c0,0.7-0.6,1.3-1.3,1.3L10.4,39.5L10.4,39.5z"/>
	<path class="st1" d="M10.1,38.5c-0.7,0-1.3-0.6-1.3-1.3V8.8c0-0.7,0.5-1.3,1.3-1.3h27.6c0.7,0,1.3,0.6,1.3,1.3v28.5
		c0,0.7-0.6,1.3-1.3,1.3L10.1,38.5L10.1,38.5z"/>
</g>
</svg>
