<?xml version="1.0" encoding="utf-8"?>
<!-- Generator: Adobe Illustrator 21.1.0, SVG Export Plug-In . SVG Version: 6.00 Build 0)  -->
<svg version="1.1" id="Layer_1" xmlns="http://www.w3.org/2000/svg" xmlns:xlink="http://www.w3.org/1999/xlink" x="0px" y="0px"
	 width="48px" height="48px" viewBox="0 0 48 48" style="enable-background:new 0 0 48 48;" xml:space="preserve">
<style type="text/css">
	.st0{opacity:0.17;fill:#525252;enable-background:new    ;}
	.st1{fill:#FFFFFF;}
</style>
<path class="st0" d="M42.1,23.8l-16.2-16c-0.2-0.2-0.6-0.4-0.8-0.4s-0.6,0.1-0.8,0.3l-16.3,16c-0.4,0.6-0.7,1.6-0.3,2.3
	s1.4,0.8,1.8,0.2l2.7-2.6v17.4c0,0.9,0.6,1.6,1.3,1.6H21v-9.9c0-0.7,0.6-1.4,1.4-1.4h5.4c0.7,0,1.4,0.6,1.4,1.4v10h7.5
	c0.7,0,1.3-0.7,1.3-1.6V23.6l2.7,2.6c0.6,0.6,1.4,0.6,1.8-0.2C42.7,25.5,42.7,24.3,42.1,23.8z"/>
<path class="st1" d="M41.1,22.8l-16.2-16c-0.2-0.2-0.6-0.4-0.8-0.4s-0.6,0.1-0.8,0.3l-16.3,16c-0.4,0.6-0.7,1.6-0.3,2.3
	s1.4,0.8,1.8,0.2l2.7-2.6v17.4c0,0.9,0.6,1.6,1.3,1.6H20v-9.9c0-0.7,0.6-1.4,1.4-1.4h5.4c0.7,0,1.4,0.6,1.4,1.4v10h7.5
	c0.7,0,1.3-0.7,1.3-1.6V22.6l2.7,2.6c0.6,0.6,1.4,0.6,1.8-0.2C41.7,24.5,41.7,23.3,41.1,22.8z"/>
</svg>
