<?xml version="1.0" encoding="utf-8"?>
<!-- Generator: Adobe Illustrator 22.0.1, SVG Export Plug-In . SVG Version: 6.00 Build 0)  -->
<svg version="1.1" xmlns="http://www.w3.org/2000/svg" xmlns:xlink="http://www.w3.org/1999/xlink" x="0px" y="0px" width="48px"
	 height="48px" viewBox="0 0 48 48" enable-background="new 0 0 48 48" xml:space="preserve">
<g id="Layer_1">
</g>
<g id="Layer_2">
	<path opacity="0.17" d="M24.5,41.5c-9,0-16.1-7.4-16-16.2c0.1-8.7,7.1-15.8,16-15.8c9,0,16.1,7.4,16,16.2
		C40.4,34.4,33.4,41.5,24.5,41.5z M25.1,25c2.5,0,4.9,0,7.3,0c0-2.5-0.4-4.8-1.1-7.1c-2.1,0.2-4.2,0.4-6.2,0.7
		C25.1,20.7,25.1,22.8,25.1,25z M25.1,26.1c0,2.2,0,4.3,0,6.4c2.1,0.2,4.2,0.5,6.2,0.7c0.7-2.3,1.1-4.6,1.1-7.1
		C29.9,26.1,27.5,26.1,25.1,26.1z M23.9,18.6c-2.1-0.2-4.1-0.5-6.2-0.7c-0.7,2.3-1.1,4.6-1.1,7.1c2.5,0,4.9,0,7.3,0
		C23.9,22.8,23.9,20.6,23.9,18.6z M23.9,32.4c0-2.1,0-4.2,0-6.4c-2.5,0-4.9,0-7.3,0c0,2.4,0.4,4.8,1.1,7
		C19.8,32.9,21.8,32.6,23.9,32.4z M33.5,25c2,0,3.9,0,5.9,0c0-0.1,0-0.3,0-0.4c-0.2-3-1.2-5.8-3.1-8.2c-0.1-0.1-0.2-0.1-0.3-0.1
		c-0.9,0.3-1.8,0.6-2.7,1c-0.3,0.1-0.6,0.2-0.9,0.3C33.1,20,33.5,22.5,33.5,25z M9.6,26c0.1,0.7,0.1,1.3,0.2,1.9
		c0.4,2.4,1.4,4.6,2.9,6.6c0.1,0.1,0.2,0.2,0.4,0.1c0.2-0.1,0.4-0.2,0.7-0.3c1-0.3,2-0.7,3-1c-0.7-2.4-1.1-4.8-1.2-7.3
		C13.5,26,11.6,26,9.6,26z M15.5,24.9c0-2.5,0.5-4.9,1.2-7.3c-1.3-0.5-2.6-0.9-3.9-1.4c-2,2.5-3,5.4-3.2,8.6
		C11.6,24.9,13.5,24.9,15.5,24.9z M32.3,33.4c1.2,0.4,2.4,0.9,3.6,1.3c0.2,0.1,0.4,0.1,0.5-0.1c1.6-2.1,2.6-4.5,2.9-7.2
		c0.1-0.4,0.1-0.8,0.1-1.3c-2,0-3.9,0-5.9,0C33.5,28.6,33,31,32.3,33.4z M23.9,10.7c-0.1,0-0.1,0-0.1,0c-1.3,0.2-2.3,0.9-3.1,1.8
		c-1.1,1.2-1.9,2.6-2.5,4.1c0,0.1,0,0.1-0.1,0.2c1.9,0.4,3.9,0.6,5.8,0.6C23.9,15.1,23.9,12.9,23.9,10.7z M25.1,33.6
		c0,2.3,0,4.5,0,6.7c1.3-0.2,2.3-0.9,3.2-1.8c1.2-1.2,2-2.7,2.6-4.2c0,0,0-0.1,0-0.2C29,33.9,27,33.7,25.1,33.6z M25.1,10.7
		c0,2.3,0,4.5,0,6.7c2,0,3.9-0.2,5.8-0.6c-0.7-1.8-1.6-3.3-2.9-4.6C27.2,11.4,26.3,10.8,25.1,10.7z M23.9,40.4c0-2.2,0-4.5,0-6.7
		c-2,0-3.9,0.2-5.8,0.6c0.5,1.2,1,2.3,1.8,3.3c0.6,0.9,1.4,1.6,2.3,2.2C22.7,40.1,23.3,40.3,23.9,40.4z M13.5,35.5
		c1.2,1.7,5.5,4.3,6.9,4.3c-1.6-1.5-2.7-3.3-3.4-5.4C15.8,34.8,14.7,35.2,13.5,35.5z M35.5,35.6c-1.2-0.4-2.3-0.7-3.5-1.1
		c-0.8,2.1-1.9,3.8-3.4,5.4C30.2,39.7,34.3,37.2,35.5,35.6z M20.4,11.2c-2.7,0.7-4.9,2.1-6.9,4.2c1.2,0.4,2.4,0.8,3.5,1.1
		C17.8,14.5,18.9,12.7,20.4,11.2z M35.4,15.5c0,0,0-0.1,0-0.1c-1.9-2-4.1-3.4-6.8-4.1c1.5,1.5,2.6,3.3,3.4,5.4
		C33.1,16.2,34.3,15.8,35.4,15.5z"/>
	<path fill="#FFFFFF" d="M23.5,40.5c-9,0-16.1-7.4-16-16.2c0.1-8.7,7.1-15.8,16-15.8c9,0,16.1,7.4,16,16.2
		C39.4,33.4,32.4,40.5,23.5,40.5z M24.1,24c2.5,0,4.9,0,7.3,0c0-2.5-0.4-4.8-1.1-7.1c-2.1,0.2-4.2,0.4-6.2,0.7
		C24.1,19.7,24.1,21.8,24.1,24z M24.1,25.1c0,2.2,0,4.3,0,6.4c2.1,0.2,4.2,0.5,6.2,0.7c0.7-2.3,1.1-4.6,1.1-7.1
		C28.9,25.1,26.5,25.1,24.1,25.1z M22.9,17.6c-2.1-0.2-4.1-0.5-6.2-0.7c-0.7,2.3-1.1,4.6-1.1,7.1c2.5,0,4.9,0,7.3,0
		C22.9,21.8,22.9,19.6,22.9,17.6z M22.9,31.4c0-2.1,0-4.2,0-6.4c-2.5,0-4.9,0-7.3,0c0,2.4,0.4,4.8,1.1,7
		C18.8,31.9,20.8,31.6,22.9,31.4z M32.5,24c2,0,3.9,0,5.9,0c0-0.1,0-0.3,0-0.4c-0.2-3-1.2-5.8-3.1-8.2c-0.1-0.1-0.2-0.1-0.3-0.1
		c-0.9,0.3-1.8,0.6-2.7,1c-0.3,0.1-0.6,0.2-0.9,0.3C32.1,19,32.5,21.5,32.5,24z M8.6,25c0.1,0.7,0.1,1.3,0.2,1.9
		c0.4,2.4,1.4,4.6,2.9,6.6c0.1,0.1,0.2,0.2,0.4,0.1c0.2-0.1,0.4-0.2,0.7-0.3c1-0.3,2-0.7,3-1c-0.7-2.4-1.1-4.8-1.2-7.3
		C12.5,25,10.6,25,8.6,25z M14.5,23.9c0-2.5,0.5-4.9,1.2-7.3c-1.3-0.5-2.6-0.9-3.9-1.4c-2,2.5-3,5.4-3.2,8.6
		C10.6,23.9,12.5,23.9,14.5,23.9z M31.3,32.4c1.2,0.4,2.4,0.9,3.6,1.3c0.2,0.1,0.4,0.1,0.5-0.1c1.6-2.1,2.6-4.5,2.9-7.2
		c0.1-0.4,0.1-0.8,0.1-1.3c-2,0-3.9,0-5.9,0C32.4,27.6,32,30,31.3,32.4z M22.9,9.7c-0.1,0-0.1,0-0.1,0c-1.3,0.2-2.3,0.9-3.1,1.8
		c-1.1,1.2-1.9,2.6-2.5,4.1c0,0.1,0,0.1-0.1,0.2c1.9,0.4,3.9,0.6,5.8,0.6C22.9,14.1,22.9,11.9,22.9,9.7z M24.1,32.6
		c0,2.3,0,4.5,0,6.7c1.3-0.2,2.3-0.9,3.2-1.8c1.2-1.2,2-2.7,2.6-4.2c0,0,0-0.1,0-0.2C28,32.9,26,32.7,24.1,32.6z M24.1,9.7
		c0,2.3,0,4.5,0,6.7c2,0,3.9-0.2,5.8-0.6c-0.7-1.8-1.6-3.3-2.9-4.6C26.2,10.4,25.3,9.8,24.1,9.7z M22.9,39.4c0-2.2,0-4.5,0-6.7
		c-2,0-3.9,0.2-5.8,0.6c0.5,1.2,1,2.3,1.8,3.3c0.6,0.9,1.4,1.6,2.3,2.2C21.7,39.1,22.3,39.3,22.9,39.4z M12.5,34.5
		c1.2,1.7,5.5,4.3,6.9,4.3c-1.6-1.5-2.7-3.3-3.4-5.4C14.8,33.8,13.7,34.2,12.5,34.5z M34.4,34.6c-1.2-0.4-2.3-0.7-3.5-1.1
		c-0.8,2.1-1.9,3.8-3.4,5.4C29.2,38.7,33.3,36.2,34.4,34.6z M19.4,10.2c-2.7,0.7-4.9,2.1-6.9,4.2c1.2,0.4,2.4,0.8,3.5,1.1
		C16.8,13.5,17.9,11.7,19.4,10.2z M34.4,14.5c0,0,0-0.1,0-0.1c-1.9-2-4.1-3.4-6.8-4.1c1.5,1.5,2.6,3.3,3.4,5.4
		C32.1,15.2,33.3,14.8,34.4,14.5z"/>
</g>
</svg>
