<?xml version="1.0" encoding="utf-8"?>
<!-- Generator: Adobe Illustrator 21.0.2, SVG Export Plug-In . SVG Version: 6.00 Build 0)  -->
<svg version="1.1" id="Layer_1" xmlns="http://www.w3.org/2000/svg" xmlns:xlink="http://www.w3.org/1999/xlink" x="0px" y="0px"
	 width="48px" height="48px" viewBox="0 0 48 48" style="enable-background:new 0 0 48 48;" xml:space="preserve">
<style type="text/css">
	.st0{opacity:0.17;}
	.st1{fill:#FFFFFF;}
</style>
<g class="st0">
	<g>
		<g>
			<g>
				<path d="M34.4,36h-20c-1.4,0-2.5-1.1-2.5-2.5S13,31,14.4,31h20c1.4,0,2.5,1.1,2.5,2.5S35.8,36,34.4,36z"/>
				<path d="M34.4,27h-20c-1.4,0-2.5-1.1-2.5-2.5S13,22,14.4,22h20c1.4,0,2.5,1.1,2.5,2.5S35.8,27,34.4,27z"/>
				<path d="M34.4,18h-20c-1.4,0-2.5-1.1-2.5-2.5S13,13,14.4,13h20c1.4,0,2.5,1.1,2.5,2.5S35.8,18,34.4,18z"/>
			</g>
		</g>
	</g>
</g>
<g>
	<g>
		<g>
			<g>
				<g>
					<path class="st1" d="M33.4,35h-20c-1.4,0-2.5-1.1-2.5-2.5c0-1.4,1.1-2.5,2.5-2.5h20c1.4,0,2.5,1.1,2.5,2.5
						C35.9,33.9,34.8,35,33.4,35z"/>
					<path class="st1" d="M33.4,26h-20c-1.4,0-2.5-1.1-2.5-2.5S12,21,13.4,21h20c1.4,0,2.5,1.1,2.5,2.5S34.8,26,33.4,26z"/>
					<path class="st1" d="M33.4,17h-20c-1.4,0-2.5-1.1-2.5-2.5S12,12,13.4,12h20c1.4,0,2.5,1.1,2.5,2.5S34.8,17,33.4,17z"/>
				</g>
			</g>
		</g>
	</g>
</g>
</svg>
