<?xml version="1.0" encoding="utf-8"?>
<!-- Generator: Adobe Illustrator 21.1.0, SVG Export Plug-In . SVG Version: 6.00 Build 0)  -->
<svg version="1.1" id="Layer_1" xmlns="http://www.w3.org/2000/svg" xmlns:xlink="http://www.w3.org/1999/xlink" x="0px" y="0px"
	 width="46px" height="46px" viewBox="0 0 46 46" style="enable-background:new 0 0 46 46;" xml:space="preserve">
<style type="text/css">
	.st0{fill:#FFFFFF;}
	.st1{enable-background:new    ;}
	.st2{fill:#FFCC00;}
</style>
<g id="Layer_1_copy">
	<path class="st0" d="M2.1,37.1c-0.6,0-1.3-0.4-1.3-2.1c0-0.2,0-0.5,0-0.9s0-0.7,0-0.9c0-0.5-0.1-0.6-0.1-0.7v-0.2v-2
		c0-0.1,0-0.2,0.1-0.3c0,0,0,0,0-0.1c0-0.4,0-0.8,0-1.5c0.1-0.5,0-0.6,0-0.6c-0.2-0.3-0.2-0.5-0.2-0.6c0.1-0.6,0.4-1.5,2-1.5
		c1.1,0,1.4,0.6,1.5,1v0.1c0,0.4,0,0.9,0.1,1.6s0.5,1.5,1.2,2.3c0.7,0.9,1.4,1.3,2,1.2c0.8-0.1,1.6-0.3,2.5-0.6
		c1.3-0.5,1.7-0.9,1.9-1.2c0.1-0.4,0.2-0.8,0.2-1.2c0-1.3-0.5-2.2-1.4-2.9c-0.3-0.2-0.9-0.5-2.5-0.7c-1.4-0.2-1.3-0.1-1.4-0.1
		c-1.2,0-2.4-0.4-3.4-1.2c-1.1-0.9-1.7-1.9-1.7-3.1V19c0-0.3,0.1-1,0.8-3.4c0.4-1.2,0.4-1.3,0.4-1.3c0.3-0.6,0.6-1,1.1-1.2
		c0.9-0.4,1.8-0.7,2.8-0.7c1.7,0,3,0.6,3.9,1.7c0-0.1,0-0.2,0-0.4l-0.1-0.8c0-0.6,0.3-1,0.8-1.2c0.1-0.1,0.3-0.1,0.5-0.1
		c0.3-0.1,0.7,0,1.1,0.2c0.6,0.4,0.6,1.3,0.6,2c0,0.5-0.1,1.3-0.1,2.2l-0.3,3.6c0,0.4,0,0.9,0,1.6c-0.1,0.5-0.5,1.1-1.6,1.1
		c-0.4,0-0.8-0.1-1.2-0.3l0,0l-0.1-0.2c-0.1-0.3-0.1-0.4-0.2-0.5l0.4-0.2l0,0H9.9v-0.4c0-0.5-0.1-1.2-0.4-2
		c-0.2-0.5-0.6-1.3-1.1-2.3C8,15.5,7.5,15.1,7,15.1c-0.9-0.1-1.2,0.3-1.4,0.7c0.1,0.2,0,0.6-0.2,1.2c-0.3,0.9-0.5,1.7-0.5,2.5
		c0,0.1,0,0.2-0.1,0.4c0.1,0.4,0.1,0.8,0.2,1.3s0.3,0.8,0.7,1c0.3,0.2,0.9,0.4,2.4,0.5c3.4,0.2,5.6,1.5,6.5,3.7
		c0.1,0.1,0.2,0.5,0.4,1v0.1c0.2,2.1,0,2.8-0.1,3.1c-0.8,2.1-3.3,3.5-7.4,4c-1.2,0.2-2.4-0.2-3.5-1.2c0,0.2,0,0.4,0.1,0.7
		c0.1,0.8,0.1,1.5,0,2.1v0.2l-0.2,0.1C3.1,36.9,2.5,37.1,2.1,37.1z"/>
	<g class="st1">
		<path class="st0" d="M15.9,20.5c0-0.3,0.1-0.5,0.2-0.8c0.1-0.2,0.2-0.4,0.4-0.6c0.2-0.2,0.4-0.3,0.6-0.4s0.5-0.2,0.8-0.2
			s0.5,0.1,0.8,0.2c0.2,0.1,0.5,0.2,0.6,0.4s0.3,0.4,0.4,0.6s0.2,0.5,0.2,0.8s-0.1,0.5-0.2,0.8c-0.1,0.2-0.3,0.4-0.4,0.6
			c-0.2,0.2-0.4,0.3-0.6,0.4s-0.5,0.1-0.8,0.1s-0.6,0-0.8-0.1s-0.5-0.2-0.6-0.4c-0.2-0.2-0.3-0.4-0.4-0.6
			C15.9,21.1,15.9,20.8,15.9,20.5z"/>
		<path class="st0" d="M15.9,27.6c0-0.3,0.1-0.5,0.2-0.8c0.1-0.2,0.2-0.4,0.4-0.6c0.2-0.2,0.4-0.3,0.6-0.4s0.5-0.2,0.8-0.2
			s0.5,0.1,0.8,0.2c0.2,0.1,0.5,0.2,0.6,0.4s0.3,0.4,0.4,0.6s0.2,0.5,0.2,0.8s-0.1,0.5-0.2,0.8c-0.1,0.2-0.3,0.4-0.4,0.6
			c-0.2,0.2-0.4,0.3-0.6,0.4s-0.5,0.1-0.8,0.1s-0.6,0-0.8-0.1s-0.5-0.2-0.6-0.4c-0.2-0.2-0.3-0.4-0.4-0.6
			C15.9,28.1,15.9,27.9,15.9,27.6z"/>
	</g>
	<g class="st1">
		<path class="st0" d="M22.3,12.1h3v7.5h0.1c0.3-0.5,0.7-0.9,1.2-1.2c0.5-0.3,1-0.4,1.6-0.4c0.7,0,1.3,0.1,1.7,0.4
			c0.4,0.3,0.7,0.6,1,1c0.2,0.3,0.3,0.7,0.4,1.3c0.1,0.5,0.1,1.3,0.1,2.4v5.8c0,0.8,0,1.5-0.1,2s-0.2,0.9-0.4,1.3
			c-0.5,1-1.4,1.4-2.7,1.4c-0.8,0-1.3-0.1-1.7-0.4c-0.4-0.3-0.8-0.7-1.2-1.1v1.4h-3V12.1z M28.3,22.8c0-0.5-0.1-0.9-0.3-1.3
			c-0.2-0.4-0.6-0.5-1.2-0.5c-0.4,0-0.8,0.2-1.1,0.5c-0.3,0.3-0.4,0.7-0.4,1.2v5.9c0,0.6,0.1,1,0.4,1.4s0.6,0.5,1.1,0.5
			s0.9-0.2,1.1-0.6s0.4-0.9,0.4-1.5V22.8z"/>
		<g>
			<path class="st0" d="M36.9,11.1h-3h-1v1v3v1h1h3h1v-1v-3v-1H36.9z M37.4,15.6h-4v-4h4V15.6z"/>
			<rect x="33.4" y="11.6" class="st2" width="4" height="4"/>
		</g>
		<rect x="33.9" y="18.2" class="st0" width="3" height="15.1"/>
		<path class="st0" d="M39.4,13.6h3v4.6h1.9v2.4h-1.9V29c0,0.4,0,0.6,0.1,0.8s0.2,0.3,0.3,0.4c0.2,0.1,0.3,0.2,0.6,0.2
			c0.2,0,0.5,0,0.9,0v2.9H43c-0.7,0-1.3-0.1-1.7-0.3c-0.5-0.2-0.8-0.5-1.1-0.8s-0.5-0.7-0.6-1.2c-0.1-0.4-0.2-0.8-0.2-1.2v-9.2h-1.5
			v-2.4h1.5V13.6z"/>
	</g>
</g>
</svg>
