<?xml version="1.0" encoding="utf-8"?>
<!-- Generator: Adobe Illustrator 22.0.1, SVG Export Plug-In . SVG Version: 6.00 Build 0)  -->
<svg version="1.1" id="Layer_2" xmlns="http://www.w3.org/2000/svg" xmlns:xlink="http://www.w3.org/1999/xlink" x="0px" y="0px"
	 width="48px" height="48px" viewBox="0 0 48 48" style="enable-background:new 0 0 48 48;" xml:space="preserve">
<style type="text/css">
	.st0{opacity:0.2;}
	.st1{fill:#FFFFFF;}
</style>
<path class="st0" d="M13.2,11.8c0,0,0.1,0,0.3,0.1L35,24.9c0.1,0,0.1,0.2,0,0.4l0,0L13.7,38.1c-0.2,0-0.3,0.1-0.6,0.1
	c-0.1,0-0.2-0.1-0.2-0.2V12C12.9,11.9,12.9,11.8,13.2,11.8 M13.2,8.8c-1.9,0-3.3,1.4-3.3,3.2v26c0,1.8,1.4,3.2,3.2,3.2
	c0.7,0,1.2-0.1,1.8-0.3l21.6-13c0.5-0.2,0.9-0.6,1.1-1.1c0.9-1.6,0.4-3.6-1.1-4.5l-21.6-13C14.3,9,13.8,8.8,13.2,8.8L13.2,8.8z"/>
<path class="st1" d="M13.1,40.2c-1.8,0-3.2-1.4-3.2-3.2V11c0-1.8,1.4-3.2,3.3-3.2c0.6,0,1.1,0.2,1.7,0.5l21.6,13
	c1.5,0.9,2,2.9,1.1,4.5c-0.2,0.5-0.6,0.9-1.1,1.1l-21.6,13C14.3,40.1,13.8,40.2,13.1,40.2z M22.2,29h1.7L20.1,18h-1.3L15,29h1.6
	l0.8-2.4h4L22.2,29z M17.9,25l1.5-4.8l0,0l1.5,4.8C20.9,25,17.9,25,17.9,25z"/>
</svg>
